source-code-pro_extralight.sfdir

StartChar: exclam
Encoding: 33 33 486
Width: 600
Flags: MW
HStem: -12 21G<287 313> -12 116<287 313> 650 20G<286 314 314 314>
VStem: 248 104<27 65> 286 28<608 670 608 670>
LayerCount: 2
Fore
SplineSet
288 214 m 1xa8
 286 608 l 1
 286 670 l 1
 314 670 l 1
 314 608 l 1
 312 214 l 1
 288 214 l 1xa8
248 46 m 0xb0
 248 84 274 104 300 104 c 0x70
 326 104 352 84 352 46 c 0
 352 8 326 -12 300 -12 c 0
 274 -12 248 8 248 46 c 0xb0
EndSplineSet
EndChar

StartChar: quotedbl
Encoding: 34 34 491
Width: 600
Flags: MW
HStem: 392 296<186 186 186 214 386 414 386 386>
VStem: 168.5 63 177 46 368.5 63 377 46
LayerCount: 2
Fore
SplineSet
186 392 m 1xa8
 168 607 l 1
 169 688 l 1
 231 688 l 1xc8
 232 607 l 1
 214 392 l 1
 186 392 l 1xa8
386 392 m 1
 368 607 l 1
 369 688 l 1
 431 688 l 1xb0
 432 607 l 1
 414 392 l 1
 386 392 l 1
EndSplineSet
EndChar

StartChar: numbersign
Encoding: 35 35 533
Width: 600
Flags: MW
HStem: 0 21G<158 158 158 186 342 342 342 370> 218 28<100 184 100 188 100 212 216 368 400 486> 424 28<120 210 120 212 120 238 240 394 424 506> 630 20G<238 266 266 266 422 450 450 450>
VStem: 100 406<218 452 246 452>
LayerCount: 2
Fore
SplineSet
158 0 m 1
 184 218 l 1
 100 218 l 1
 100 246 l 1
 188 246 l 1
 210 424 l 1
 120 424 l 1
 120 452 l 1
 212 452 l 1
 238 650 l 1
 266 650 l 1
 240 452 l 1
 396 452 l 1
 422 650 l 1
 450 650 l 1
 424 452 l 1
 506 452 l 1
 506 424 l 1
 422 424 l 1
 400 246 l 1
 486 246 l 1
 486 218 l 1
 396 218 l 1
 370 0 l 1
 342 0 l 1
 368 218 l 1
 212 218 l 1
 186 0 l 1
 158 0 l 1
216 246 m 1
 372 246 l 1
 394 424 l 1
 238 424 l 1
 216 246 l 1
EndSplineSet
EndChar

StartChar: dollar
Encoding: 36 36 630
Width: 600
Flags: MW
HStem: 34 28<323 323> 590 28<293 293>
VStem: 132 32<407 512 407 517.5> 293 30<-110 34 -110 35 -110 35 618 750> 470 32<147 260>
LayerCount: 2
Fore
SplineSet
480 548 m 1
 460 528 l 1
 416 566 382 590 306 590 c 0
 221 590 164 546 164 478 c 0
 164 336 502 368 502 184 c 0
 502 94 421 38 323 34 c 1
 323 -110 l 1
 293 -110 l 1
 293 35 l 1
 210 39 144 77 102 112 c 1
 120 134 l 1
 160 100 226 62 311 62 c 0
 414 62 470 112 470 182 c 0
 470 338 132 310 132 476 c 0
 132 559 202 612 293 618 c 1
 293 750 l 1
 323 750 l 1
 323 618 l 1
 399 614 441 584 480 548 c 1
EndSplineSet
Substitution2: "'ss04' Style Set 4 in Latin lookup 20 subtable" dollar.a
Substitution2: "'aalt' Access All Alternates in Latin lookup 0 subtable" dollar.a
EndChar

StartChar: percent
Encoding: 37 37 649
Width: 600
Flags: MW
HStem: -12 26<411 469 411 479> 286 26<411 469> 328 26<131 189 131 199> 626 26<131 189>
VStem: 28 30<448.5 536.5 448.5 544> 262 30<448.5 536.5> 308 30<108.5 196.5 108.5 204> 542 30<108.5 196.5>
LayerCount: 2
Fore
SplineSet
160 328 m 0
 82 328 28 387 28 492 c 0
 28 596 82 652 160 652 c 0
 238 652 292 596 292 492 c 0x3c
 292 387 238 328 160 328 c 0
160 354 m 0x3c
 218 354 262 405 262 492 c 0
 262 581 218 626 160 626 c 0
 102 626 58 581 58 492 c 0
 58 405 102 354 160 354 c 0x3c
64 36 m 1
 38 58 l 1
 218 258 l 1
 236 242 l 1
 64 36 l 1
536 624 m 1
 562 602 l 1
 382 402 l 1
 364 418 l 1
 536 624 l 1
440 -12 m 0xc3
 362 -12 308 47 308 152 c 0
 308 256 362 312 440 312 c 0
 518 312 572 256 572 152 c 0
 572 47 518 -12 440 -12 c 0xc3
440 14 m 0
 498 14 542 65 542 152 c 0
 542 241 498 286 440 286 c 0
 382 286 338 241 338 152 c 0
 338 65 382 14 440 14 c 0
EndSplineSet
EndChar

StartChar: ampersand
Encoding: 38 38 460
Width: 600
Flags: MW
HStem: -12 28<203 274 203 279.5> 644 28<246 305>
VStem: 57 32<122 203.5 122 208.5> 149 30<506.5 561 506.5 570> 353 30<518 576>
LayerCount: 2
Fore
SplineSet
245 16 m 0
 303 16 356 48 399 93 c 1
 327 160 254 248 206 339 c 1
 143 290 89 239 89 168 c 0
 89 76 161 16 245 16 c 0
179 530 m 0
 179 483 194 432 218 380 c 1
 287 432 353 482 353 554 c 0
 353 598 333 644 277 644 c 0
 215 644 179 592 179 530 c 0
569 16 m 1
 557 -12 l 1
 517 3 471 31 420 74 c 1
 372 23 316 -12 243 -12 c 0
 143 -12 57 56 57 166 c 0
 57 251 124 309 194 362 c 1
 166 419 149 476 149 528 c 0
 149 612 203 672 279 672 c 0
 347 672 383 622 383 556 c 0
 383 472 305 415 229 357 c 1
 276 267 348 179 418 115 c 1
 468 177 503 254 527 342 c 1
 557 342 l 1
 531 250 492 164 439 97 c 1
 486 58 530 31 569 16 c 1
EndSplineSet
EndChar

StartChar: quotesingle
Encoding: 39 39 490
Width: 600
Flags: MW
HStem: 392 296<286 286 286 314>
VStem: 268.5 63 277 46
LayerCount: 2
Fore
SplineSet
286 392 m 1xa0
 268 607 l 1
 269 688 l 1
 331 688 l 1xc0
 332 607 l 1
 314 392 l 1
 286 392 l 1xa0
EndSplineSet
EndChar

StartChar: parenleft
Encoding: 40 40 511
Width: 600
Flags: MW
HStem: -173 902<465 465>
VStem: 230 34<190 366 190 376.5>
LayerCount: 2
Fore
SplineSet
465 -173 m 1
 319 -71 230 81 230 278 c 0
 230 475 319 627 465 729 c 1
 482 706 l 1
 335 596 264 454 264 278 c 0
 264 102 335 -40 482 -150 c 1
 465 -173 l 1
EndSplineSet
Substitution2: "'subs' Subscript in Latin lookup 14 subtable" parenleft.subs
Substitution2: "'sups' Superscript in Latin lookup 13 subtable" parenleft.sups
Substitution2: "'dnom' Denominators in Latin lookup 9 subtable" parenleft.dnom
Substitution2: "'numr' Numerators in Latin lookup 8 subtable" parenleft.numr
AlternateSubs2: "'aalt' Access All Alternates in Latin lookup 1 subtable" parenleft.numr parenleft.dnom parenleft.sups parenleft.subs
EndChar

StartChar: parenright
Encoding: 41 41 512
Width: 600
Flags: MW
HStem: -173 902<135 135>
VStem: 336 34<190 366>
LayerCount: 2
Fore
SplineSet
135 -173 m 1
 118 -150 l 1
 265 -40 336 102 336 278 c 0
 336 454 265 596 118 706 c 1
 135 729 l 1
 281 627 370 475 370 278 c 0
 370 81 281 -71 135 -173 c 1
EndSplineSet
Substitution2: "'subs' Subscript in Latin lookup 14 subtable" parenright.subs
Substitution2: "'sups' Superscript in Latin lookup 13 subtable" parenright.sups
Substitution2: "'dnom' Denominators in Latin lookup 9 subtable" parenright.dnom
Substitution2: "'numr' Numerators in Latin lookup 8 subtable" parenright.numr
AlternateSubs2: "'aalt' Access All Alternates in Latin lookup 1 subtable" parenright.numr parenright.dnom parenright.sups parenright.subs
EndChar

StartChar: asterisk
Encoding: 42 42 521
Width: 600
Flags: MW
HStem: 128 420<176 313 287 424>
VStem: 284.5 31
LayerCount: 2
Fore
SplineSet
176 128 m 1
 152 145 l 1
 270 318 l 1
 101 390 l 1
 110 414 l 1
 282 350 l 1
 287 548 l 1
 313 548 l 1
 318 350 l 1
 490 414 l 1
 499 390 l 1
 330 318 l 1
 448 145 l 1
 424 128 l 1
 300 300 l 1
 176 128 l 1
EndSplineSet
Substitution2: "'ss01' Style Set 1 in Latin lookup 17 subtable" asterisk.a
Substitution2: "'aalt' Access All Alternates in Latin lookup 0 subtable" asterisk.a
EndChar

StartChar: plus
Encoding: 43 43 660
Width: 600
Flags: MW
HStem: 316 28<98 284 98 284 316 502>
VStem: 284 32<112 316 112 316 344 548>
LayerCount: 2
Fore
SplineSet
284 112 m 1
 284 316 l 1
 98 316 l 1
 98 344 l 1
 284 344 l 1
 284 548 l 1
 316 548 l 1
 316 344 l 1
 502 344 l 1
 502 316 l 1
 316 316 l 1
 316 112 l 1
 284 112 l 1
EndSplineSet
EndChar

StartChar: comma
Encoding: 44 44 482
Width: 600
Flags: MW
HStem: -1 107<292.5 311>
VStem: 331 38
LayerCount: 2
Fore
SplineSet
221 -210 m 1
 208 -185 l 1
 287 -144 328 -89 331 3 c 1
 323 0 315 -1 307 -1 c 0
 275 -1 253 15 253 52 c 0
 253 90 279 106 306 106 c 0
 347 106 369 69 369 13 c 0
 369 -96 308 -170 221 -210 c 1
EndSplineSet
Substitution2: "'subs' Subscript in Latin lookup 14 subtable" comma.subs
Substitution2: "'sups' Superscript in Latin lookup 13 subtable" comma.sups
Substitution2: "'dnom' Denominators in Latin lookup 9 subtable" comma.dnom
Substitution2: "'numr' Numerators in Latin lookup 8 subtable" comma.numr
AlternateSubs2: "'aalt' Access All Alternates in Latin lookup 1 subtable" comma.numr comma.dnom comma.sups comma.subs
EndChar

StartChar: hyphen
Encoding: 45 45 502
Width: 600
Flags: MW
HStem: 316 28<98 502 98 502>
VStem: 98 404<316 344 316 344>
LayerCount: 2
Fore
SplineSet
98 316 m 1
 98 344 l 1
 502 344 l 1
 502 316 l 1
 98 316 l 1
EndSplineSet
Substitution2: "'ss01' Style Set 1 in Latin lookup 17 subtable" hyphen.a
Substitution2: "'aalt' Access All Alternates in Latin lookup 0 subtable" hyphen.a
EndChar

StartChar: period
Encoding: 46 46 481
Width: 600
Flags: MW
HStem: -12 116<287 313>
VStem: 248 104<27 65>
LayerCount: 2
Fore
SplineSet
248 46 m 0
 248 84 274 104 300 104 c 0
 326 104 352 84 352 46 c 0
 352 8 326 -12 300 -12 c 0
 274 -12 248 8 248 46 c 0
EndSplineSet
Substitution2: "'subs' Subscript in Latin lookup 14 subtable" period.subs
Substitution2: "'sups' Superscript in Latin lookup 13 subtable" period.sups
Substitution2: "'dnom' Denominators in Latin lookup 9 subtable" period.dnom
Substitution2: "'numr' Numerators in Latin lookup 8 subtable" period.numr
AlternateSubs2: "'aalt' Access All Alternates in Latin lookup 1 subtable" period.numr period.dnom period.sups period.subs
EndChar

StartChar: slash
Encoding: 47 47 517
Width: 600
Flags: MW
HStem: -160 870<120 480 120 480>
VStem: 120 360
LayerCount: 2
Fore
SplineSet
480 710 m 1
 154 -160 l 1
 120 -160 l 1
 446 710 l 1
 480 710 l 1
EndSplineSet
Substitution2: "'frac' Diagonal Fractions in Latin lookup 10 subtable" slash.frac
EndChar

StartChar: zero
Encoding: 48 48 461
Width: 600
Flags: MW
HStem: -12 28<245 355 245 369> 274 116<287 313> 624 28<245 355>
VStem: 84 32<223 421 223 428> 248 104<313 351> 484 32<223 421>
LayerCount: 2
Fore
SplineSet
300 -12 m 0
 162 -12 84 112 84 322 c 0
 84 534 162 652 300 652 c 0
 438 652 516 534 516 322 c 0
 516 112 438 -12 300 -12 c 0
300 624 m 0
 190 624 116 520 116 322 c 0
 116 124 190 16 300 16 c 0
 410 16 484 124 484 322 c 0
 484 520 410 624 300 624 c 0
300 274 m 0
 274 274 248 294 248 332 c 0
 248 370 274 390 300 390 c 0
 326 390 352 370 352 332 c 0
 352 294 326 274 300 274 c 0
EndSplineSet
Substitution2: "'onum' Oldstyle Figures in Latin lookup 15 subtable" zero.onum
Substitution2: "'subs' Subscript in Latin lookup 14 subtable" zero.subs
Substitution2: "'sups' Superscript in Latin lookup 13 subtable" zero.sups
Substitution2: "'dnom' Denominators in Latin lookup 9 subtable" zero.dnom
Substitution2: "'numr' Numerators in Latin lookup 8 subtable" zero.numr
AlternateSubs2: "'aalt' Access All Alternates in Latin lookup 1 subtable" zero.numr zero.dnom zero.sups zero.subs zero.onum
EndChar

StartChar: one
Encoding: 49 49 462
Width: 600
Flags: MW
HStem: 0 28<112 306 336 520 112 306> 580 22<166 306 166 166> 580 60<166 336>
VStem: 306 30<28 580 580 580>
LayerCount: 2
Fore
SplineSet
336 28 m 1xb0
 520 28 l 1
 520 0 l 1
 112 0 l 1
 112 28 l 1
 306 28 l 1
 306 580 l 1
 166 580 l 1xb0
 166 602 l 1xd0
 229 610 278 624 313 640 c 1
 336 640 l 1
 336 28 l 1xb0
EndSplineSet
Substitution2: "'onum' Oldstyle Figures in Latin lookup 15 subtable" one.onum
Substitution2: "'subs' Subscript in Latin lookup 14 subtable" one.subs
Substitution2: "'sups' Superscript in Latin lookup 13 subtable" one.sups
Substitution2: "'dnom' Denominators in Latin lookup 9 subtable" one.dnom
Substitution2: "'numr' Numerators in Latin lookup 8 subtable" one.numr
AlternateSubs2: "'aalt' Access All Alternates in Latin lookup 1 subtable" one.numr one.dnom one.sups one.subs one.onum
EndChar

StartChar: two
Encoding: 50 50 463
Width: 600
Flags: MW
HStem: 0 28<253 511 253 511> 624 28<245 337>
VStem: 444 31<417 517>
LayerCount: 2
Fore
SplineSet
85 0 m 1
 85 20 l 1
 329 242 444 358 444 476 c 0
 444 558 395 624 279 624 c 0
 211 624 150 588 105 538 c 1
 83 558 l 1
 134 610 196 652 280 652 c 0
 404 652 475 582 475 476 c 0
 475 346 346 223 132 24 c 1
 173 26 212 28 253 28 c 2
 511 28 l 1
 511 0 l 1
 85 0 l 1
EndSplineSet
Substitution2: "'onum' Oldstyle Figures in Latin lookup 15 subtable" two.onum
Substitution2: "'subs' Subscript in Latin lookup 14 subtable" two.subs
Substitution2: "'sups' Superscript in Latin lookup 13 subtable" two.sups
Substitution2: "'dnom' Denominators in Latin lookup 9 subtable" two.dnom
Substitution2: "'numr' Numerators in Latin lookup 8 subtable" two.numr
AlternateSubs2: "'aalt' Access All Alternates in Latin lookup 1 subtable" two.numr two.dnom two.sups two.subs two.onum
EndChar

StartChar: three
Encoding: 51 51 464
Width: 600
Flags: MW
HStem: -12 28<245 347 245 354> 322 30<212 298.5 212 303.5> 624 28<258 339>
VStem: 212 124<336 340 336 352 336 352> 452 32<458 536> 476 32<121 212>
LayerCount: 2
Fore
SplineSet
70 78 m 1xf4
 90 100 l 1
 132 58 194 16 296 16 c 0
 398 16 476 76 476 166 c 0xf4
 476 258 395 322 212 322 c 1
 212 352 l 1
 385 352 452 418 452 498 c 0
 452 574 386 624 292 624 c 0
 224 624 158 592 118 552 c 1
 98 574 l 1
 144 616 210 652 292 652 c 0
 398 652 484 596 484 500 c 0xf8
 484 414 418 363 336 340 c 1
 336 336 l 1
 426 320 508 260 508 168 c 0
 508 58 414 -12 294 -12 c 0
 182 -12 114 36 70 78 c 1xf4
EndSplineSet
Substitution2: "'onum' Oldstyle Figures in Latin lookup 15 subtable" three.onum
Substitution2: "'subs' Subscript in Latin lookup 14 subtable" three.subs
Substitution2: "'sups' Superscript in Latin lookup 13 subtable" three.sups
Substitution2: "'dnom' Denominators in Latin lookup 9 subtable" three.dnom
Substitution2: "'numr' Numerators in Latin lookup 8 subtable" three.numr
AlternateSubs2: "'aalt' Access All Alternates in Latin lookup 1 subtable" three.numr three.dnom three.sups three.subs three.onum
EndChar

StartChar: four
Encoding: 52 52 465
Width: 600
Flags: MW
HStem: 0 21G<390 420 390 390> 196 29<92 390 92 390 420 535> 587 54<389 420 389 420> 621 20G<405 420 420 420>
VStem: 390 30<0 196 0 196 225 496 496 496>
LayerCount: 2
Fore
SplineSet
92 225 m 1xd8
 390 225 l 1
 390 496 l 1
 392 526 393 557 395 587 c 1
 389 587 l 1
 369 560 348 533 328 506 c 1xe8
 92 225 l 1xd8
535 225 m 1
 535 196 l 1
 420 196 l 1
 420 0 l 1
 390 0 l 1
 390 196 l 1
 43 196 l 1
 43 213 l 1
 405 641 l 1
 420 641 l 1
 420 225 l 1
 535 225 l 1
EndSplineSet
Substitution2: "'onum' Oldstyle Figures in Latin lookup 15 subtable" four.onum
Substitution2: "'subs' Subscript in Latin lookup 14 subtable" four.subs
Substitution2: "'sups' Superscript in Latin lookup 13 subtable" four.sups
Substitution2: "'dnom' Denominators in Latin lookup 9 subtable" four.dnom
Substitution2: "'numr' Numerators in Latin lookup 8 subtable" four.numr
AlternateSubs2: "'aalt' Access All Alternates in Latin lookup 1 subtable" four.numr four.dnom four.sups four.subs four.onum
EndChar

StartChar: five
Encoding: 53 53 466
Width: 600
Flags: MW
HStem: -12 28<236.5 341.5 236.5 345.5> 372 30<263 351> 612 28<170 480 170 170>
VStem: 482 32<144 252>
LayerCount: 2
Fore
SplineSet
64 74 m 1
 84 96 l 1
 128 56 183 16 290 16 c 0
 393 16 482 90 482 198 c 0
 482 306 410 372 292 372 c 0
 230 372 191 354 144 328 c 1
 118 344 l 1
 142 640 l 1
 480 640 l 1
 480 612 l 1
 170 612 l 1
 148 366 l 1
 191 387 232 402 294 402 c 0
 420 402 514 340 514 200 c 0
 514 64 403 -12 288 -12 c 0
 171 -12 110 34 64 74 c 1
EndSplineSet
Substitution2: "'onum' Oldstyle Figures in Latin lookup 15 subtable" five.onum
Substitution2: "'subs' Subscript in Latin lookup 14 subtable" five.subs
Substitution2: "'sups' Superscript in Latin lookup 13 subtable" five.sups
Substitution2: "'dnom' Denominators in Latin lookup 9 subtable" five.dnom
Substitution2: "'numr' Numerators in Latin lookup 8 subtable" five.numr
AlternateSubs2: "'aalt' Access All Alternates in Latin lookup 1 subtable" five.numr five.dnom five.sups five.subs five.onum
EndChar

StartChar: six
Encoding: 54 54 467
Width: 600
Flags: MW
HStem: -12 28<260 374 260 377.5> 356 28<292.5 379> 624 28<290 377>
VStem: 90 32 492 32<139 239>
LayerCount: 2
Fore
SplineSet
326 16 m 0
 422 16 492 92 492 186 c 0
 492 292 436 356 322 356 c 0
 263 356 190 327 123 254 c 1
 132 115 194 16 326 16 c 0
510 592 m 1
 490 570 l 1
 452 606 404 624 350 624 c 0
 230 624 123 539 122 292 c 1
 179 348 246 384 324 384 c 0
 448 384 524 314 524 186 c 0
 524 72 431 -12 324 -12 c 0
 178 -12 90 98 90 288 c 0
 90 560 215 652 352 652 c 0
 420 652 469 628 510 592 c 1
EndSplineSet
Substitution2: "'onum' Oldstyle Figures in Latin lookup 15 subtable" six.onum
Substitution2: "'subs' Subscript in Latin lookup 14 subtable" six.subs
Substitution2: "'sups' Superscript in Latin lookup 13 subtable" six.sups
Substitution2: "'dnom' Denominators in Latin lookup 9 subtable" six.dnom
Substitution2: "'numr' Numerators in Latin lookup 8 subtable" six.numr
AlternateSubs2: "'aalt' Access All Alternates in Latin lookup 1 subtable" six.numr six.dnom six.sups six.subs six.onum
EndChar

StartChar: seven
Encoding: 55 55 468
Width: 600
Flags: MW
HStem: 0 21G<252 252 252 288> 612 28<76 484 76 526>
VStem: 252 36<0 0>
LayerCount: 2
Fore
SplineSet
252 0 m 1
 262 266 328 424 484 612 c 1
 76 612 l 1
 76 640 l 1
 526 640 l 1
 526 622 l 1
 350 416 296 252 288 0 c 1
 252 0 l 1
EndSplineSet
Substitution2: "'onum' Oldstyle Figures in Latin lookup 15 subtable" seven.onum
Substitution2: "'subs' Subscript in Latin lookup 14 subtable" seven.subs
Substitution2: "'sups' Superscript in Latin lookup 13 subtable" seven.sups
Substitution2: "'dnom' Denominators in Latin lookup 9 subtable" seven.dnom
Substitution2: "'numr' Numerators in Latin lookup 8 subtable" seven.numr
AlternateSubs2: "'aalt' Access All Alternates in Latin lookup 1 subtable" seven.numr seven.dnom seven.sups seven.subs seven.onum
EndChar

StartChar: nine
Encoding: 57 57 470
Width: 600
Flags: MW
HStem: -12 28<225 312 225 318.5> 256 28<223 309.5 223 317> 624 28<228 342>
VStem: 78 32<401 501 401 511> 480 32
LayerCount: 2
Fore
SplineSet
280 284 m 0
 339 284 412 313 479 386 c 1
 470 525 408 624 276 624 c 0
 180 624 110 548 110 454 c 0
 110 348 166 284 280 284 c 0
92 48 m 1
 112 70 l 1
 150 34 198 16 252 16 c 0
 372 16 479 101 480 348 c 1
 423 292 356 256 278 256 c 0
 154 256 78 326 78 454 c 0
 78 568 171 652 278 652 c 0
 424 652 512 542 512 352 c 0
 512 80 387 -12 250 -12 c 0
 182 -12 133 12 92 48 c 1
EndSplineSet
Substitution2: "'onum' Oldstyle Figures in Latin lookup 15 subtable" nine.onum
Substitution2: "'subs' Subscript in Latin lookup 14 subtable" nine.subs
Substitution2: "'sups' Superscript in Latin lookup 13 subtable" nine.sups
Substitution2: "'dnom' Denominators in Latin lookup 9 subtable" nine.dnom
Substitution2: "'numr' Numerators in Latin lookup 8 subtable" nine.numr
AlternateSubs2: "'aalt' Access All Alternates in Latin lookup 1 subtable" nine.numr nine.dnom nine.sups nine.subs nine.onum
EndChar

StartChar: colon
Encoding: 58 58 483
Width: 600
Flags: MW
HStem: -12 116<287 313> 374 116<287 313>
VStem: 248 104<27 65 413 451>
LayerCount: 2
Fore
SplineSet
248 432 m 0
 248 470 274 490 300 490 c 0
 326 490 352 470 352 432 c 0
 352 394 326 374 300 374 c 0
 274 374 248 394 248 432 c 0
248 46 m 0
 248 84 274 104 300 104 c 0
 326 104 352 84 352 46 c 0
 352 8 326 -12 300 -12 c 0
 274 -12 248 8 248 46 c 0
EndSplineSet
EndChar

StartChar: semicolon
Encoding: 59 59 484
Width: 600
Flags: MW
HStem: -1 107<292.5 311> 374 116<287 313>
VStem: 248 104<413 451> 331 38
LayerCount: 2
Fore
SplineSet
300 374 m 0xe0
 274 374 248 394 248 432 c 0
 248 470 274 490 300 490 c 0
 326 490 352 470 352 432 c 0
 352 394 326 374 300 374 c 0xe0
221 -210 m 1
 208 -185 l 1
 287 -144 328 -89 331 3 c 1
 323 0 315 -1 307 -1 c 0
 275 -1 253 15 253 52 c 0
 253 90 279 106 306 106 c 0
 347 106 369 69 369 13 c 0xd0
 369 -96 308 -170 221 -210 c 1
EndSplineSet
EndChar

StartChar: less
Encoding: 60 60 666
Width: 600
Flags: MW
HStem: 62 540<486 486>
VStem: 124 32<330 334 330 348 330 348>
LayerCount: 2
Fore
SplineSet
124 316 m 1
 124 348 l 1
 486 602 l 1
 486 566 l 1
 156 334 l 1
 156 330 l 1
 486 98 l 1
 486 62 l 1
 124 316 l 1
EndSplineSet
EndChar

StartChar: equal
Encoding: 61 61 665
Width: 600
Flags: MW
HStem: 216 28<98 502 98 502> 416 28<98 502 98 502>
VStem: 98 404<216 244 216 244 416 444 216 444>
LayerCount: 2
Fore
SplineSet
98 416 m 1
 98 444 l 1
 502 444 l 1
 502 416 l 1
 98 416 l 1
98 216 m 1
 98 244 l 1
 502 244 l 1
 502 216 l 1
 98 216 l 1
EndSplineSet
EndChar

StartChar: greater
Encoding: 62 62 667
Width: 600
Flags: MW
HStem: 62 540<114 114>
VStem: 444 32<330 334 334 334>
LayerCount: 2
Fore
SplineSet
476 348 m 1
 476 316 l 1
 114 62 l 1
 114 98 l 1
 444 330 l 1
 444 334 l 1
 114 566 l 1
 114 602 l 1
 476 348 l 1
EndSplineSet
EndChar

StartChar: question
Encoding: 63 63 488
Width: 600
Flags: MW
HStem: -12 21G<273 299> -12 116<273 299> 654 28<263 341>
VStem: 234 104<27 65> 432 32<468 563>
LayerCount: 2
Fore
SplineSet
262 214 m 1xb8
 236 364 432 406 432 530 c 0
 432 596 390 654 292 654 c 0
 234 654 180 630 140 588 c 1
 118 608 l 1
 160 650 218 682 294 682 c 0
 402 682 464 614 464 532 c 0
 464 400 268 355 290 214 c 1
 262 214 l 1xb8
234 46 m 0
 234 84 260 104 286 104 c 0x78
 312 104 338 84 338 46 c 0
 338 8 312 -12 286 -12 c 0
 260 -12 234 8 234 46 c 0
EndSplineSet
EndChar

StartChar: at
Encoding: 64 64 531
Width: 600
Flags: MW
HStem: -142 28<269 372 269 373.5> 88 28<339 391 339 391> 600 28<277.5 407.5>
VStem: 64 32<136 356.5 136 368.5> 236 32<181.5 249.5 181.5 260> 512 30<164 164 202 356 356 356 382 395 395 396 100 451.5>
LayerCount: 2
Fore
SplineSet
542 396 m 2
 542 100 l 1
 516 100 l 1
 512 164 l 1
 508 164 l 1
 476 126 416 88 366 88 c 0
 297 88 236 128 236 212 c 0
 236 308 328 360 512 382 c 1
 512 395 l 2
 512 508 466 600 349 600 c 0
 206 600 96 467 96 246 c 0
 96 26 196 -114 342 -114 c 0
 402 -114 450 -97 490 -64 c 1
 506 -86 l 1
 458 -124 405 -142 342 -142 c 0
 187 -142 64 2 64 248 c 0
 64 489 186 628 352 628 c 0
 480 628 542 528 542 396 c 2
268 212 m 0
 268 151 308 116 370 116 c 0
 412 116 464 144 512 202 c 1
 512 356 l 1
 339 332 268 287 268 212 c 0
EndSplineSet
Substitution2: "'case' Case-Sensitive Forms in Latin lookup 16 subtable" at.case
Substitution2: "'aalt' Access All Alternates in Latin lookup 0 subtable" at.case
EndChar

StartChar: A
Encoding: 65 65 2
Width: 600
GlyphClass: 2
Flags: MW
HStem: 0 21G<50 82 50 50 516 550 516 516> 236 28<175 424 175 434 165 424> 626 34<298 302 298 298>
VStem: 50 500<0 0>
AnchorPoint: "Anchor-4" 496 0 basechar 0
AnchorPoint: "Anchor-2" 300 -22 basechar 0
AnchorPoint: "Anchor-0" 300 682 basechar 0
LayerCount: 2
Fore
SplineSet
175 264 m 1
 424 264 l 1
 378 396 l 2
 350 476 326 544 302 626 c 1
 298 626 l 1
 274 544 250 476 222 396 c 2
 175 264 l 1
516 0 m 1
 434 236 l 1
 165 236 l 1
 82 0 l 1
 50 0 l 1
 286 660 l 1
 314 660 l 1
 550 0 l 1
 516 0 l 1
EndSplineSet
EndChar

StartChar: B
Encoding: 66 66 3
Width: 600
GlyphClass: 2
Flags: MW
HStem: 0 28<151 279 279 291> 338 28<151 259 259 279 151 259> 632 28<151 265 151 151>
VStem: 119 32<28 28 28 338 366 632> 461 32<465 549> 503 32<134 238 129 240>
AnchorPoint: "Anchor-2" 305 -22 basechar 0
AnchorPoint: "Anchor-0" 296 682 basechar 0
LayerCount: 2
Fore
SplineSet
119 0 m 1
 119 660 l 1
 279 660 l 2
 411 660 493 608 493 500 c 0xfc
 493 430 453 376 375 356 c 1
 375 352 l 1
 473 338 535 284 535 192 c 0
 535 66 441 0 291 0 c 2
 119 0 l 1
151 366 m 1
 259 366 l 2
 403 366 461 412 461 504 c 0
 461 594 393 632 265 632 c 2
 151 632 l 1
 151 366 l 1
151 28 m 1
 279 28 l 2
 417 28 503 78 503 190 c 0xf4
 503 290 421 338 279 338 c 2
 151 338 l 1
 151 28 l 1
EndSplineSet
EndChar

StartChar: D
Encoding: 68 68 5
Width: 600
GlyphClass: 2
Flags: MW
HStem: 0 28<132 244 244 248> 632 28<132 244 132 132>
VStem: 100 32<28 28 28 632> 510 34<245 419>
AnchorPoint: "Anchor-2" 290 -22 basechar 0
AnchorPoint: "Anchor-0" 300 682 basechar 0
LayerCount: 2
Fore
SplineSet
100 0 m 1
 100 660 l 1
 248 660 l 2
 452 660 544 528 544 332 c 0
 544 136 452 0 248 0 c 2
 100 0 l 1
132 28 m 1
 244 28 l 2
 432 28 510 158 510 332 c 0
 510 506 432 632 244 632 c 2
 132 632 l 1
 132 28 l 1
EndSplineSet
EndChar

StartChar: E
Encoding: 69 69 6
Width: 600
GlyphClass: 2
Flags: MW
HStem: 0 28<164 526 164 526> 338 28<164 460 164 460> 632 28<164 516 164 164>
VStem: 132 32<28 338 366 632>
AnchorPoint: "Anchor-4" 429 0 basechar 0
AnchorPoint: "Anchor-2" 342 -22 basechar 0
AnchorPoint: "Anchor-0" 338 682 basechar 0
LayerCount: 2
Fore
SplineSet
132 0 m 1
 132 660 l 1
 516 660 l 1
 516 632 l 1
 164 632 l 1
 164 366 l 1
 460 366 l 1
 460 338 l 1
 164 338 l 1
 164 28 l 1
 526 28 l 1
 526 0 l 1
 132 0 l 1
EndSplineSet
EndChar

StartChar: F
Encoding: 70 70 7
Width: 600
GlyphClass: 2
Flags: MW
HStem: 0 21G<156 156 156 187> 326 28<187 479 187 479> 632 28<187 534 187 187>
VStem: 156 31<0 326 354 632>
AnchorPoint: "Anchor-2" 181 -22 basechar 0
AnchorPoint: "Anchor-0" 349 682 basechar 0
LayerCount: 2
Fore
SplineSet
156 0 m 1
 156 660 l 1
 534 660 l 1
 534 632 l 1
 187 632 l 1
 187 354 l 1
 479 354 l 1
 479 326 l 1
 187 326 l 1
 187 0 l 1
 156 0 l 1
EndSplineSet
EndChar

StartChar: H
Encoding: 72 72 9
Width: 600
GlyphClass: 2
Flags: MW
HStem: 0 21G<92 92 92 124 476 476 476 508> 338 28<124 476 124 476> 640 20G<92 124 124 124 476 508 508 508>
VStem: 92 32<0 338 366 660> 476 32<0 338 338 338 366 660 0 660>
AnchorPoint: "Anchor-2" 299 -22 basechar 0
AnchorPoint: "Anchor-0" 299 682 basechar 0
LayerCount: 2
Fore
SplineSet
92 0 m 1
 92 660 l 1
 124 660 l 1
 124 366 l 1
 476 366 l 1
 476 660 l 1
 508 660 l 1
 508 0 l 1
 476 0 l 1
 476 338 l 1
 124 338 l 1
 124 0 l 1
 92 0 l 1
EndSplineSet
EndChar

StartChar: I
Encoding: 73 73 10
Width: 600
GlyphClass: 2
Flags: MW
HStem: 0 28<112 284 112 284 316 488> 632 28<112 284 112 488 316 316 316 488>
VStem: 284 32<28 632 28 632>
AnchorPoint: "Anchor-4" 274 0 basechar 0
AnchorPoint: "Anchor-2" 300 -22 basechar 0
AnchorPoint: "Anchor-0" 300 682 basechar 0
LayerCount: 2
Fore
SplineSet
112 0 m 1
 112 28 l 1
 284 28 l 1
 284 632 l 1
 112 632 l 1
 112 660 l 1
 488 660 l 1
 488 632 l 1
 316 632 l 1
 316 28 l 1
 488 28 l 1
 488 0 l 1
 112 0 l 1
EndSplineSet
EndChar

StartChar: J
Encoding: 74 74 11
Width: 600
GlyphClass: 2
Flags: MW
HStem: -12 29<250.5 336.5 250.5 352.5> 634 27<152 443 152 475>
VStem: 443 32<204 634 634 634>
AnchorPoint: "Anchor-2" 300 -22 basechar 0
AnchorPoint: "Anchor-0" 320 682 basechar 0
LayerCount: 2
Fore
SplineSet
98 98 m 1
 128 115 l 1
 166 48 222 17 279 17 c 0
 394 17 443 80 443 204 c 2
 443 634 l 1
 152 634 l 1
 152 661 l 1
 475 661 l 1
 475 201 l 2
 475 83 427 -12 278 -12 c 0
 203 -12 134 25 98 98 c 1
EndSplineSet
EndChar

StartChar: K
Encoding: 75 75 12
Width: 600
GlyphClass: 2
Flags: MW
HStem: 0 21G<122 122 122 154 530 530 530 568> 640 20G<122 154 154 154 500 539 539 539>
VStem: 122 32<0 234 280 660>
AnchorPoint: "Anchor-2" 349 -22 basechar 0
AnchorPoint: "Anchor-0" 329 682 basechar 0
LayerCount: 2
Fore
SplineSet
122 0 m 1
 122 660 l 1
 154 660 l 1
 154 280 l 1
 156 280 l 1
 500 660 l 1
 539 660 l 1
 323 418 l 1
 568 0 l 1
 530 0 l 1
 299 394 l 1
 154 234 l 1
 154 0 l 1
 122 0 l 1
EndSplineSet
EndChar

StartChar: L
Encoding: 76 76 13
Width: 600
GlyphClass: 2
Flags: MW
HStem: 0 28<186 538 186 538> 640 20G<156 186 186 186>
VStem: 156 30<28 660 28 660 28 660>
AnchorPoint: "Anchor-2" 358 -22 basechar 0
AnchorPoint: "Anchor-0" 186 682 basechar 0
LayerCount: 2
Fore
SplineSet
156 0 m 1
 156 660 l 1
 186 660 l 1
 186 28 l 1
 538 28 l 1
 538 0 l 1
 156 0 l 1
EndSplineSet
EndChar

StartChar: M
Encoding: 77 77 14
Width: 600
GlyphClass: 2
Flags: MW
HStem: 0 21G<95 95 95 126 473 473 473 505> 181 41<299 303 299 314 287 303> 623 37<122 124 122 122 473 476 473 473>
VStem: 95 31<0 495 0 660> 473 32<0 495 495 515.5 623 623>
AnchorPoint: "Anchor-2" 300 -22 basechar 0
AnchorPoint: "Anchor-0" 300 682 basechar 0
LayerCount: 2
Fore
SplineSet
95 0 m 1
 95 660 l 1
 141 660 l 1
 257 342 l 1
 299 222 l 1
 303 222 l 1
 343 342 l 1
 459 660 l 1
 505 660 l 1
 505 0 l 1
 473 0 l 1
 473 495 l 2
 473 536 475 582 476 623 c 1
 473 623 l 1
 437 513 l 1
 314 181 l 1
 287 181 l 1
 163 513 l 1
 124 623 l 1
 122 623 l 1
 123 582 126 536 126 495 c 2
 126 0 l 1
 95 0 l 1
EndSplineSet
EndChar

StartChar: O
Encoding: 79 79 16
Width: 600
GlyphClass: 2
Flags: MW
HStem: -12 30<237.5 362.5 237.5 371> 642 30<237.5 362.5>
VStem: 56 34<237 427 237 436> 510 34<237 427>
AnchorPoint: "Anchor-4" 300 0 basechar 0
AnchorPoint: "Anchor-3" 416 650 basechar 0
AnchorPoint: "Anchor-2" 300 -22 basechar 0
AnchorPoint: "Anchor-0" 300 682 basechar 0
LayerCount: 2
Fore
SplineSet
300 -12 m 0
 158 -12 56 124 56 332 c 0
 56 540 158 672 300 672 c 0
 442 672 544 540 544 332 c 0
 544 124 442 -12 300 -12 c 0
300 18 m 0
 425 18 510 142 510 332 c 0
 510 522 425 642 300 642 c 0
 175 642 90 522 90 332 c 0
 90 142 175 18 300 18 c 0
EndSplineSet
EndChar

StartChar: P
Encoding: 80 80 17
Width: 600
GlyphClass: 2
Flags: MW
HStem: 0 21G<124 124 124 156> 292 28<156 284 284 296 156 284> 632 28<156 284 156 156>
VStem: 124 32<0 292 320 632> 494 34<423 538>
AnchorPoint: "Anchor-2" 142 -22 basechar 0
AnchorPoint: "Anchor-0" 316 682 basechar 0
LayerCount: 2
Fore
SplineSet
124 0 m 1
 124 660 l 1
 296 660 l 2
 444 660 528 612 528 480 c 0
 528 354 444 292 296 292 c 2
 156 292 l 1
 156 0 l 1
 124 0 l 1
156 320 m 1
 284 320 l 2
 426 320 494 366 494 480 c 0
 494 596 426 632 284 632 c 2
 156 632 l 1
 156 320 l 1
EndSplineSet
EndChar

StartChar: Q
Encoding: 81 81 18
Width: 600
GlyphClass: 2
Flags: MW
HStem: -150 33<435.5 484.5> -11 27 645 28<236.5 363.5>
VStem: 60 32<237.5 427 237.5 436> 508 32<237.5 427>
AnchorPoint: "Anchor-0" 298 694 basechar 0
LayerCount: 2
Fore
SplineSet
92 332 m 0
 92 143 173 16 300 16 c 0
 427 16 508 143 508 332 c 0
 508 522 427 645 300 645 c 0
 173 645 92 522 92 332 c 0
525 -110 m 1
 532 -142 l 1
 511 -147 494 -150 475 -150 c 0
 369 -150 308 -89 281 -11 c 1
 149 0 60 134 60 332 c 0
 60 540 157 673 300 673 c 0
 443 673 540 540 540 332 c 0
 540 133 451 -1 317 -11 c 1
 339 -77 392 -117 479 -117 c 0
 499 -117 514 -114 525 -110 c 1
EndSplineSet
EndChar

StartChar: R
Encoding: 82 82 19
Width: 600
GlyphClass: 2
Flags: MW
HStem: 0 21G<124 156 124 124 490 528 490 490> 312 28<156 294 294 304 156 294> 632 28<156 294 156 156>
VStem: 124 32<0 312 0 340 340 632> 484 34<439 542>
AnchorPoint: "Anchor-2" 320 -22 basechar 0
AnchorPoint: "Anchor-0" 306 682 basechar 0
LayerCount: 2
Fore
SplineSet
156 340 m 1
 294 340 l 2
 416 340 484 388 484 490 c 0
 484 594 416 632 294 632 c 2
 156 632 l 1
 156 340 l 1
528 0 m 1
 490 0 l 1
 304 312 l 1
 156 312 l 1
 156 0 l 1
 124 0 l 1
 124 660 l 1
 306 660 l 2
 436 660 518 612 518 490 c 0
 518 385 450 324 340 314 c 1
 528 0 l 1
EndSplineSet
EndChar

StartChar: T
Encoding: 84 84 21
Width: 600
GlyphClass: 2
Flags: MW
HStem: 0 21G<284 284 284 316> 632 28<50 284 50 550 316 316 316 550>
VStem: 284 32<0 632 0 632>
AnchorPoint: "Anchor-2" 300 -22 basechar 0
AnchorPoint: "Anchor-1" 300 0 basechar 0
AnchorPoint: "Anchor-0" 298 682 basechar 0
LayerCount: 2
Fore
SplineSet
284 0 m 1
 284 632 l 1
 50 632 l 1
 50 660 l 1
 550 660 l 1
 550 632 l 1
 316 632 l 1
 316 0 l 1
 284 0 l 1
EndSplineSet
EndChar

StartChar: U
Encoding: 85 85 22
Width: 600
GlyphClass: 2
Flags: MW
HStem: -12 30<254 347 254 352> 640 20G<92 124 124 124 478 508 508 508>
VStem: 92 32<246 254 254 660> 478 30<254 660>
AnchorPoint: "Anchor-4" 299 0 basechar 0
AnchorPoint: "Anchor-3" 495 670 basechar 0
AnchorPoint: "Anchor-2" 299 -22 basechar 0
AnchorPoint: "Anchor-0" 299 682 basechar 0
LayerCount: 2
Fore
SplineSet
92 246 m 2
 92 660 l 1
 124 660 l 1
 124 254 l 2
 124 72 208 18 300 18 c 0
 394 18 478 72 478 254 c 2
 478 660 l 1
 508 660 l 1
 508 246 l 2
 508 42 404 -12 300 -12 c 0
 196 -12 92 42 92 246 c 2
EndSplineSet
EndChar

StartChar: V
Encoding: 86 86 23
Width: 600
GlyphClass: 2
Flags: MW
HStem: 0 41<285 303 299 303 299 317> 640 20G<65 99 99 99 503 535 535 535>
VStem: 65 470<660 660>
AnchorPoint: "Anchor-2" 303 -22 basechar 0
AnchorPoint: "Anchor-0" 299 682 basechar 0
LayerCount: 2
Fore
SplineSet
285 0 m 1
 65 660 l 1
 99 660 l 1
 227 264 l 2
 253 182 271 122 299 41 c 1
 303 41 l 1
 331 122 349 182 375 264 c 2
 503 660 l 1
 535 660 l 1
 317 0 l 1
 285 0 l 1
EndSplineSet
EndChar

StartChar: X
Encoding: 88 88 25
Width: 600
GlyphClass: 2
Flags: MW
HStem: 0 21G<83 83 83 115 483 483 483 517> 640 20G<97 131 131 131 471 503 503 503>
VStem: 83 434<0 0>
AnchorPoint: "Anchor-2" 299 -22 basechar 0
AnchorPoint: "Anchor-0" 301 682 basechar 0
LayerCount: 2
Fore
SplineSet
83 0 m 1
 283 342 l 1
 97 660 l 1
 131 660 l 1
 247 456 l 2
 265 426 279 404 301 368 c 1
 305 368 l 1
 325 404 337 426 355 456 c 2
 471 660 l 1
 503 660 l 1
 317 340 l 1
 517 0 l 1
 483 0 l 1
 361 212 l 2
 343 244 323 276 299 316 c 1
 295 316 l 1
 273 276 255 244 237 212 c 2
 115 0 l 1
 83 0 l 1
EndSplineSet
EndChar

StartChar: Y
Encoding: 89 89 26
Width: 600
GlyphClass: 2
Flags: MW
HStem: 0 21G<284 284 284 316> 640 20G<56 88 88 88 514 544 544 544>
VStem: 284 32<0 245 0 245>
AnchorPoint: "Anchor-2" 300 -22 basechar 0
AnchorPoint: "Anchor-0" 300 682 basechar 0
LayerCount: 2
Fore
SplineSet
284 0 m 1
 284 245 l 1
 56 660 l 1
 88 660 l 1
 212 434 l 1
 243 383 269 331 300 278 c 1
 304 278 l 1
 336 331 365 383 394 435 c 1
 514 660 l 1
 544 660 l 1
 316 245 l 1
 316 0 l 1
 284 0 l 1
EndSplineSet
EndChar

StartChar: Z
Encoding: 90 90 27
Width: 600
GlyphClass: 2
Flags: MW
HStem: 0 28<109 533 109 533> 634 27<107 488 107 526>
VStem: 72 461<0 19 19 19>
AnchorPoint: "Anchor-2" 312 -22 basechar 0
AnchorPoint: "Anchor-0" 316 682 basechar 0
LayerCount: 2
Fore
SplineSet
72 0 m 1
 72 19 l 1
 488 634 l 1
 107 634 l 1
 107 661 l 1
 526 661 l 1
 526 642 l 1
 109 28 l 1
 533 28 l 1
 533 0 l 1
 72 0 l 1
EndSplineSet
EndChar

StartChar: bracketleft
Encoding: 91 91 513
Width: 600
Flags: MW
HStem: -152 23<274 506 274 506> 685 23<274 506 274 274>
VStem: 246 28<-129 685 -129 708 -129 708>
LayerCount: 2
Fore
SplineSet
246 -152 m 1
 246 708 l 1
 506 708 l 1
 506 685 l 1
 274 685 l 1
 274 -129 l 1
 506 -129 l 1
 506 -152 l 1
 246 -152 l 1
EndSplineSet
EndChar

StartChar: backslash
Encoding: 92 92 519
Width: 600
Flags: MW
HStem: -160 870<120 446 120 480>
VStem: 120 360
LayerCount: 2
Fore
SplineSet
446 -160 m 1
 120 710 l 1
 154 710 l 1
 480 -160 l 1
 446 -160 l 1
EndSplineSet
EndChar

StartChar: bracketright
Encoding: 93 93 514
Width: 600
Flags: MW
HStem: -152 23<94 326 94 354 94 326> 685 23<94 326 94 354>
VStem: 326 28<-129 685 685 685>
LayerCount: 2
Fore
SplineSet
94 -129 m 1
 326 -129 l 1
 326 685 l 1
 94 685 l 1
 94 708 l 1
 354 708 l 1
 354 -152 l 1
 94 -152 l 1
 94 -129 l 1
EndSplineSet
EndChar

StartChar: asciicircum
Encoding: 94 94 671
Width: 600
Flags: MW
HStem: 638 32<298 302 298 298>
VStem: 132 336<292 292>
LayerCount: 2
Fore
SplineSet
132 292 m 1
 282 670 l 1
 318 670 l 1
 468 292 l 1
 436 292 l 1
 354 506 l 1
 302 638 l 1
 298 638 l 1
 246 506 l 1
 164 292 l 1
 132 292 l 1
EndSplineSet
EndChar

StartChar: underscore
Encoding: 95 95 510
Width: 600
Flags: MW
HStem: -120 38<60 540 60 540>
VStem: 60 480<-120 -82 -120 -82>
LayerCount: 2
Fore
SplineSet
60 -82 m 1
 540 -82 l 1
 540 -120 l 1
 60 -120 l 1
 60 -82 l 1
EndSplineSet
EndChar

StartChar: grave
Encoding: 96 96 715
Width: 600
Flags: MW
HStem: 572 134<220 324 220 352>
VStem: 220 132
LayerCount: 2
Fore
SplineSet
324 572 m 1
 220 706 l 1
 260 706 l 1
 352 572 l 1
 324 572 l 1
EndSplineSet
EndChar

StartChar: a
Encoding: 97 97 28
Width: 600
GlyphClass: 2
Flags: MW
HStem: -12 28<232 298 232 300> 0 21G<474 500 474 474> 462 28<284 380>
VStem: 96 32<81 159 81 170.5> 470 30<74 74 108 272 272 272 298 310 0 340>
AnchorPoint: "Anchor-2" 298 -22 basechar 0
AnchorPoint: "Anchor-0" 318 500 basechar 0
LayerCount: 2
Fore
SplineSet
96 117 m 0xb8
 96 224 206 274 470 298 c 1
 470 382 438 462 322 462 c 0
 246 462 173 422 136 394 c 1
 120 418 l 1
 154 444 238 490 324 490 c 0
 451 490 500 406 500 310 c 2
 500 0 l 1
 474 0 l 1x78
 470 74 l 1
 468 74 l 1
 412 29 336 -12 264 -12 c 0
 180 -12 96 26 96 117 c 0xb8
128 118 m 0
 128 44 198 16 266 16 c 0
 330 16 398 47 470 108 c 1
 470 272 l 1
 212 248 128 200 128 118 c 0
EndSplineSet
Substitution2: "'ss02' Style Set 2 in Latin lookup 18 subtable" a.a
Substitution2: "'sups' Superscript in Latin lookup 12 subtable" a.sups
AlternateSubs2: "'aalt' Access All Alternates in Latin lookup 1 subtable" a.sups a.a
EndChar

StartChar: b
Encoding: 98 98 29
Width: 600
GlyphClass: 2
Flags: MW
HStem: -12 28<287.5 363 287.5 365.5> 0 21G<110 110 110 136> 462 28<297.5 386.5> 702 20G<110 140 140 140>
VStem: 110 30<54 54 92 368 508 722> 498 32<179 307>
AnchorPoint: "Anchor-2" 296 -22 basechar 0
AnchorPoint: "Anchor-0" 128 730 basechar 0
LayerCount: 2
Fore
SplineSet
110 0 m 1x7c
 110 722 l 1
 140 722 l 1
 140 508 l 1
 138 402 l 1
 191 454 262 490 326 490 c 0
 463 490 530 394 530 246 c 0
 530 84 425 -12 306 -12 c 0
 257 -12 191 14 142 54 c 1
 140 54 l 1xbc
 136 0 l 1
 110 0 l 1x7c
140 92 m 1
 200 37 267 16 308 16 c 0
 418 16 498 112 498 246 c 0
 498 368 449 462 324 462 c 0
 271 462 204 432 140 368 c 1
 140 92 l 1
EndSplineSet
Substitution2: "'sups' Superscript in Latin lookup 12 subtable" b.sups
Substitution2: "'aalt' Access All Alternates in Latin lookup 0 subtable" b.sups
EndChar

StartChar: c
Encoding: 99 99 30
Width: 600
GlyphClass: 2
Flags: MW
HStem: -12 28<280 381.5 280 386> 462 28<281 379>
VStem: 90 32<172 304 172 318>
AnchorPoint: "Anchor-2" 343 -22 basechar 0
AnchorPoint: "Anchor-1" 343 0 basechar 0
AnchorPoint: "Anchor-0" 345 500 basechar 0
LayerCount: 2
Fore
SplineSet
90 238 m 0
 90 398 206 490 348 490 c 0
 429 490 480 454 519 416 c 1
 499 394 l 1
 458 434 410 462 348 462 c 0
 214 462 122 370 122 238 c 0
 122 106 212 16 348 16 c 0
 415 16 470 46 514 88 c 1
 532 66 l 1
 484 20 424 -12 348 -12 c 0
 200 -12 90 80 90 238 c 0
EndSplineSet
Substitution2: "'sups' Superscript in Latin lookup 12 subtable" c.sups
Substitution2: "'aalt' Access All Alternates in Latin lookup 0 subtable" c.sups
EndChar

StartChar: d
Encoding: 100 100 31
Width: 600
GlyphClass: 2
Flags: MW
HStem: -12 28<227 313.5 227 317> 0 21G<464 490 464 464> 462 28<242 322.5> 702 20G<460 490 490 490>
VStem: 70 32<172 300 172 315> 460 30<74 74 110 386 386 386 520 722 0 722>
AnchorPoint: "Anchor-2" 304 -22 basechar 0
AnchorPoint: "Anchor-0" 456 730 basechar 0
LayerCount: 2
Fore
SplineSet
70 238 m 0xbc
 70 392 177 490 298 490 c 0
 360 490 409 464 462 420 c 1
 460 520 l 1
 460 722 l 1
 490 722 l 1
 490 0 l 1
 464 0 l 1x7c
 460 74 l 1
 458 74 l 1
 415 29 352 -12 282 -12 c 0
 156 -12 70 76 70 238 c 0xbc
102 238 m 0
 102 106 170 16 284 16 c 0
 343 16 403 50 460 110 c 1
 460 386 l 1
 402 441 349 462 296 462 c 0
 188 462 102 362 102 238 c 0
EndSplineSet
Substitution2: "'sups' Superscript in Latin lookup 12 subtable" d.sups
Substitution2: "'aalt' Access All Alternates in Latin lookup 0 subtable" d.sups
EndChar

StartChar: f
Encoding: 102 102 33
Width: 600
GlyphClass: 2
Flags: MW
HStem: 0 21G<266 294 266 266> 450 28<120 266 294 524> 706 28<387 460.5 382 463>
VStem: 266 28<0 450 0 450 478 542 542 546>
AnchorPoint: "Anchor-2" 290 -22 basechar 0
AnchorPoint: "Anchor-0" 426 740 basechar 0
LayerCount: 2
Fore
SplineSet
572 704 m 1
 560 680 l 1
 514 702 486 706 440 706 c 0
 334 706 294 640 294 546 c 2
 294 478 l 1
 524 478 l 1
 524 450 l 1
 294 450 l 1
 294 0 l 1
 266 0 l 1
 266 450 l 1
 120 450 l 1
 120 474 l 1
 266 478 l 1
 266 542 l 2
 266 664 324 734 440 734 c 0
 481 734 522 728 572 704 c 1
EndSplineSet
Substitution2: "'sups' Superscript in Latin lookup 12 subtable" f.sups
Substitution2: "'aalt' Access All Alternates in Latin lookup 0 subtable" f.sups
EndChar

StartChar: g
Encoding: 103 103 34
Width: 600
GlyphClass: 2
Flags: MW
HStem: -234 28<243 375.5 243 388> 2 32<266 276 276 389 389 397> 152 28<281 335 257 344> 450 28<408 560 408 408> 462 28<257 309 248 335>
VStem: 88 32<-127.5 -78.5 -127.5 -74.5> 122 32<291 361 279 368> 438 32<279 347.5 272 361> 528 32<-106 -45.5>
AnchorPoint: "Anchor-2" 310 -230 basechar 0
AnchorPoint: "Anchor-0" 310 500 basechar 0
LayerCount: 2
Fore
SplineSet
120 -97 m 0xf580
 120 -158 180 -206 306 -206 c 0
 445 -206 528 -138 528 -74 c 0
 528 -17 485 2 397 2 c 2
 276 2 l 2
 254 2 226 4 203 11 c 1
 141 -22 120 -60 120 -97 c 0xf580
88 -93 m 0
 88 -56 118 -11 170 22 c 1
 170 26 l 1
 146 37 120 62 120 102 c 0
 120 132 140 166 178 192 c 1
 178 196 l 1
 148 222 122 262 122 320 c 0
 122 416 200 490 296 490 c 0xeb80
 322 490 342 486 360 478 c 1
 560 478 l 1
 560 450 l 1
 408 450 l 1
 440 420 470 375 470 320 c 0
 470 224 392 152 296 152 c 0
 266 152 232 160 202 176 c 1
 172 158 152 132 152 105 c 0xf380
 152 56 198 34 266 34 c 2
 389 34 l 2
 510 34 560 4 560 -72 c 0
 560 -152 464 -234 312 -234 c 0
 160 -234 88 -176 88 -93 c 0
296 180 m 0xeb80
 374 180 438 238 438 320 c 0
 438 402 374 462 296 462 c 0
 218 462 154 402 154 320 c 0
 154 238 218 180 296 180 c 0xeb80
EndSplineSet
Substitution2: "'ss03' Style Set 3 in Latin lookup 19 subtable" g.a
Substitution2: "'sups' Superscript in Latin lookup 12 subtable" g.sups
AlternateSubs2: "'aalt' Access All Alternates in Latin lookup 1 subtable" g.sups g.a
EndChar

StartChar: h
Encoding: 104 104 35
Width: 600
GlyphClass: 2
Flags: MW
HStem: 0 21G<110 110 110 140 480 480 480 510> 462 28<300 386.5> 702 20G<110 140 140 140>
VStem: 110 30<0 346 508 722> 480 30<0 294 294 298 0 350.5>
AnchorPoint: "Anchor-2" 319 -22 basechar 0
AnchorPoint: "Anchor-0" 151 730 basechar 0
LayerCount: 2
Fore
SplineSet
110 0 m 1
 110 722 l 1
 140 722 l 1
 140 508 l 1
 138 378 l 1
 201 444 258 490 336 490 c 0
 453 490 510 429 510 298 c 2
 510 0 l 1
 480 0 l 1
 480 294 l 2
 480 407 437 462 336 462 c 0
 264 462 214 424 140 346 c 1
 140 0 l 1
 110 0 l 1
EndSplineSet
Substitution2: "'sups' Superscript in Latin lookup 12 subtable" h.sups
Substitution2: "'aalt' Access All Alternates in Latin lookup 0 subtable" h.sups
EndChar

StartChar: i
Encoding: 105 105 36
Width: 600
GlyphClass: 2
Flags: MW
HStem: 0 21G<346 376 346 346> 450 28<100 376 100 346> 600 84<339 361>
VStem: 310 80<629 655> 346 30<0 450 450 450>
AnchorPoint: "Anchor-4" 379 0 basechar 0
AnchorPoint: "Anchor-2" 350 -22 basechar 0
AnchorPoint: "Anchor-0" 350 672 basechar 0
LayerCount: 2
Fore
SplineSet
100 450 m 1xe8
 100 478 l 1
 376 478 l 1
 376 0 l 1
 346 0 l 1
 346 450 l 1
 100 450 l 1xe8
350 600 m 0xf0
 328 600 310 616 310 642 c 0
 310 668 328 684 350 684 c 0
 372 684 390 668 390 642 c 0
 390 616 372 600 350 600 c 0xf0
EndSplineSet
Substitution2: "'sups' Superscript in Latin lookup 12 subtable" i.sups
Substitution2: "'aalt' Access All Alternates in Latin lookup 0 subtable" i.sups
EndChar

StartChar: j
Encoding: 106 106 37
Width: 600
GlyphClass: 2
Flags: MW
HStem: -234 28<177.5 257.5 177.5 263> 450 28<100 376 100 346> 600 84<339 361>
VStem: 310 80<629 655> 346 30<-52 -46 -46 450 450 450>
AnchorPoint: "Anchor-2" 233 -228 basechar 0
AnchorPoint: "Anchor-0" 350 672 basechar 0
LayerCount: 2
Fore
SplineSet
100 450 m 1xc8
 100 478 l 1
 376 478 l 1
 376 -46 l 2
 376 -164 332 -234 194 -234 c 0
 151 -234 101 -220 66 -202 c 1
 80 -176 l 1
 111 -192 156 -206 199 -206 c 0
 316 -206 346 -143 346 -52 c 2
 346 450 l 1
 100 450 l 1xc8
350 600 m 0xf0
 328 600 310 616 310 642 c 0
 310 668 328 684 350 684 c 0
 372 684 390 668 390 642 c 0
 390 616 372 600 350 600 c 0xf0
EndSplineSet
Substitution2: "'sups' Superscript in Latin lookup 12 subtable" j.sups
Substitution2: "'aalt' Access All Alternates in Latin lookup 0 subtable" j.sups
EndChar

StartChar: k
Encoding: 107 107 38
Width: 600
GlyphClass: 2
Flags: MW
HStem: 0 21G<130 130 130 160 528 528 528 564> 458 20G<490 530 530 530> 702 20G<130 160 160 160>
VStem: 130 30<0 138 176 722>
AnchorPoint: "Anchor-2" 344 -22 basechar 0
AnchorPoint: "Anchor-0" 188 730 basechar 0
LayerCount: 2
Fore
SplineSet
130 0 m 1
 130 722 l 1
 160 722 l 1
 160 176 l 1
 164 176 l 1
 490 478 l 1
 530 478 l 1
 332 294 l 1
 564 0 l 1
 528 0 l 1
 308 276 l 1
 160 138 l 1
 160 0 l 1
 130 0 l 1
EndSplineSet
Substitution2: "'sups' Superscript in Latin lookup 12 subtable" k.sups
Substitution2: "'aalt' Access All Alternates in Latin lookup 0 subtable" k.sups
EndChar

StartChar: l
Encoding: 108 108 39
Width: 600
GlyphClass: 2
Flags: MW
HStem: -12 28<381 433 381 438> 694 28<97 310 97 280>
VStem: 280 30<138 694 694 694>
AnchorPoint: "Anchor-2" 378 -22 basechar 0
AnchorPoint: "Anchor-0" 294 730 basechar 0
LayerCount: 2
Fore
SplineSet
97 694 m 1
 97 722 l 1
 310 722 l 1
 310 132 l 2
 310 54 345 16 417 16 c 0
 449 16 480 24 520 43 c 1
 532 18 l 1
 494 3 461 -12 415 -12 c 0
 329 -12 280 31 280 138 c 2
 280 694 l 1
 97 694 l 1
EndSplineSet
Substitution2: "'sups' Superscript in Latin lookup 12 subtable" l.sups
Substitution2: "'aalt' Access All Alternates in Latin lookup 0 subtable" l.sups
EndChar

StartChar: m
Encoding: 109 109 40
Width: 600
GlyphClass: 2
Flags: MW
HStem: 0 21G<80 80 80 110 296 296 296 326 512 512 512 542> 458 20G<80 106 106 106> 462 28<197.5 246 413.5 462>
VStem: 80 30<0 366> 296 30<0 344 344 366 0 383> 512 30<0 344 344 348 0 383>
CounterMasks: 1 1c
AnchorPoint: "Anchor-2" 313 -22 basechar 0
AnchorPoint: "Anchor-0" 312 498 basechar 0
LayerCount: 2
Fore
SplineSet
80 0 m 1xbc
 80 478 l 1
 106 478 l 1xdc
 110 412 l 1
 112 412 l 1
 141 460 170 490 223 490 c 0
 277 490 307 462 320 404 c 1
 357 460 386 490 439 490 c 0
 505 490 542 444 542 348 c 2
 542 0 l 1
 512 0 l 1
 512 344 l 2
 512 422 487 462 437 462 c 0
 390 462 360 430 326 366 c 1
 326 0 l 1
 296 0 l 1
 296 344 l 2
 296 422 271 462 221 462 c 0
 174 462 144 430 110 366 c 1
 110 0 l 1
 80 0 l 1xbc
EndSplineSet
Substitution2: "'sups' Superscript in Latin lookup 12 subtable" m.sups
Substitution2: "'aalt' Access All Alternates in Latin lookup 0 subtable" m.sups
EndChar

StartChar: n
Encoding: 110 110 41
Width: 600
GlyphClass: 2
Flags: MW
HStem: 0 21G<110 110 110 140 480 480 480 510> 458 20G<110 136 136 136> 462 28<300 386.5>
VStem: 110 30<0 346> 480 30<0 294 294 298 0 350.5>
AnchorPoint: "Anchor-2" 318 -22 basechar 0
AnchorPoint: "Anchor-0" 320 500 basechar 0
LayerCount: 2
Fore
SplineSet
110 0 m 1xb8
 110 478 l 1
 136 478 l 1xd8
 140 382 l 1
 144 382 l 1
 201 444 258 490 336 490 c 0
 453 490 510 429 510 298 c 2
 510 0 l 1
 480 0 l 1
 480 294 l 2
 480 407 437 462 336 462 c 0
 264 462 214 424 140 346 c 1
 140 0 l 1
 110 0 l 1xb8
EndSplineSet
Substitution2: "'sups' Superscript in Latin lookup 12 subtable" n.sups
Substitution2: "'aalt' Access All Alternates in Latin lookup 0 subtable" n.sups
EndChar

StartChar: o
Encoding: 111 111 42
Width: 600
GlyphClass: 2
Flags: MW
HStem: -12 28<243 357 243 362.5> 462 28<243 357>
VStem: 70 32<172 304 172 318> 498 32<172 304>
AnchorPoint: "Anchor-4" 346 0 basechar 0
AnchorPoint: "Anchor-3" 412 478 basechar 0
AnchorPoint: "Anchor-2" 300 -22 basechar 0
AnchorPoint: "Anchor-0" 300 500 basechar 0
LayerCount: 2
Fore
SplineSet
70 238 m 0
 70 398 175 490 300 490 c 0
 425 490 530 398 530 238 c 0
 530 80 425 -12 300 -12 c 0
 175 -12 70 80 70 238 c 0
102 238 m 0
 102 106 186 16 300 16 c 0
 414 16 498 106 498 238 c 0
 498 370 414 462 300 462 c 0
 186 462 102 370 102 238 c 0
EndSplineSet
Substitution2: "'sups' Superscript in Latin lookup 12 subtable" o.sups
Substitution2: "'aalt' Access All Alternates in Latin lookup 0 subtable" o.sups
EndChar

StartChar: p
Encoding: 112 112 43
Width: 600
GlyphClass: 2
Flags: MW
HStem: -222 21G<110 140 110 110> -12 28<286.5 362 286.5 364.5> 458 20G<110 136 136 136> 462 28<297.5 386.5>
VStem: 110 30<-222 -42 -42 58 92 368> 498 32<179 307>
AnchorPoint: "Anchor-2" 130 -218 basechar 0
AnchorPoint: "Anchor-0" 308 500 basechar 0
LayerCount: 2
Fore
SplineSet
140 58 m 1xdc
 140 -42 l 1
 140 -222 l 1
 110 -222 l 1
 110 478 l 1
 136 478 l 1xec
 140 406 l 1
 142 406 l 1
 191 454 262 490 326 490 c 0
 463 490 530 394 530 246 c 0
 530 84 425 -12 304 -12 c 0
 257 -12 191 14 140 58 c 1xdc
140 92 m 1
 200 37 267 16 306 16 c 0
 418 16 498 112 498 246 c 0
 498 368 449 462 324 462 c 0
 271 462 204 432 140 368 c 1xdc
 140 92 l 1
EndSplineSet
Substitution2: "'sups' Superscript in Latin lookup 12 subtable" p.sups
Substitution2: "'aalt' Access All Alternates in Latin lookup 0 subtable" p.sups
EndChar

StartChar: q
Encoding: 113 113 44
Width: 600
GlyphClass: 2
Flags: MW
HStem: -222 21G<460 490 460 460> -12 28<227 313.5 227 317> 458 20G<464 490 490 490> 462 28<242 322.5>
VStem: 70 32<172 300 172 315> 460 30<-222 -22 -22 -22 110 386 386 386 422 422>
AnchorPoint: "Anchor-2" 452 -218 basechar 0
AnchorPoint: "Anchor-0" 296 500 basechar 0
LayerCount: 2
Fore
SplineSet
70 238 m 0xdc
 70 392 177 490 298 490 c 0
 360 490 409 464 458 422 c 1
 460 422 l 1xdc
 464 478 l 1
 490 478 l 1xec
 490 -222 l 1
 460 -222 l 1
 460 -22 l 1
 462 76 l 1
 414 28 352 -12 282 -12 c 0
 156 -12 70 76 70 238 c 0xdc
102 238 m 0
 102 106 170 16 284 16 c 0
 343 16 403 50 460 110 c 1
 460 386 l 1
 402 441 349 462 296 462 c 0
 188 462 102 362 102 238 c 0
EndSplineSet
Substitution2: "'sups' Superscript in Latin lookup 12 subtable" q.sups
Substitution2: "'aalt' Access All Alternates in Latin lookup 0 subtable" q.sups
EndChar

StartChar: r
Encoding: 114 114 45
Width: 600
GlyphClass: 2
Flags: MW
HStem: 0 21G<170 170 170 200> 458 20G<170 196 196 196> 460 30<385.5 446>
VStem: 170 30<0 306>
AnchorPoint: "Anchor-2" 198 -22 basechar 0
AnchorPoint: "Anchor-0" 344 500 basechar 0
LayerCount: 2
Fore
SplineSet
170 0 m 1xb0
 170 478 l 1
 196 478 l 1xd0
 200 358 l 1
 202 358 l 1
 254 434 333 490 431 490 c 0
 462 490 497 486 528 470 c 1
 518 442 l 1
 482 455 465 460 427 460 c 0
 344 460 270 418 200 306 c 1
 200 0 l 1
 170 0 l 1xb0
EndSplineSet
Substitution2: "'sups' Superscript in Latin lookup 12 subtable" r.sups
Substitution2: "'aalt' Access All Alternates in Latin lookup 0 subtable" r.sups
EndChar

StartChar: s
Encoding: 115 115 46
Width: 600
GlyphClass: 2
Flags: MW
HStem: -12 28<272 376 272 383> 462 28<237.5 326.5 232.5 327.5>
VStem: 114 32<344 392 344 399> 482 32<91 141>
AnchorPoint: "Anchor-2" 312 -22 basechar 0
AnchorPoint: "Anchor-1" 316 0 basechar 0
AnchorPoint: "Anchor-0" 296 500 basechar 0
LayerCount: 2
Fore
SplineSet
87 64 m 1
 106 88 l 1
 158 44 220 16 324 16 c 0
 428 16 482 64 482 118 c 0
 482 164 454 199 304 234 c 0
 193 260 114 304 114 366 c 0
 114 432 169 490 296 490 c 0
 357 490 431 466 476 432 c 1
 458 408 l 1
 416 440 361 462 294 462 c 0
 181 462 146 416 146 368 c 0
 146 320 210 288 312 263 c 0
 470 224 514 186 514 120 c 0
 514 50 444 -12 322 -12 c 0
 222 -12 143 23 87 64 c 1
EndSplineSet
Substitution2: "'sups' Superscript in Latin lookup 12 subtable" s.sups
Substitution2: "'aalt' Access All Alternates in Latin lookup 0 subtable" s.sups
EndChar

StartChar: t
Encoding: 116 116 47
Width: 600
GlyphClass: 2
Flags: MW
HStem: -12 28<343.5 419> 450 28<84 232 262 524>
VStem: 232 30<176 450>
AnchorPoint: "Anchor-2" 388 -22 basechar 0
AnchorPoint: "Anchor-1" 378 0 basechar 0
AnchorPoint: "Anchor-0" 262 630 basechar 0
LayerCount: 2
Fore
SplineSet
232 176 m 2
 232 450 l 1
 84 450 l 1
 84 474 l 1
 232 478 l 1
 236 618 l 1
 262 618 l 1
 262 478 l 1
 524 478 l 1
 524 450 l 1
 262 450 l 1
 262 172 l 2
 262 76 288 16 399 16 c 0
 452 16 493 26 532 42 c 1
 542 18 l 1
 499 0 441 -12 397 -12 c 0
 270 -12 232 64 232 176 c 2
EndSplineSet
Substitution2: "'sups' Superscript in Latin lookup 12 subtable" t.sups
Substitution2: "'aalt' Access All Alternates in Latin lookup 0 subtable" t.sups
EndChar

StartChar: u
Encoding: 117 117 48
Width: 600
GlyphClass: 2
Flags: MW
HStem: -12 28<213.5 300 213.5 303> 0 21G<464 490 464 464> 458 20G<90 120 120 120 460 490 490 490>
VStem: 90 30<180 184 184 478> 460 30<96 96 132 478 0 478>
AnchorPoint: "Anchor-2" 322 -22 basechar 0
AnchorPoint: "Anchor-0" 294 500 basechar 0
LayerCount: 2
Fore
SplineSet
490 478 m 1xb8
 490 0 l 1
 464 0 l 1x78
 460 96 l 1
 456 96 l 1
 403 34 342 -12 264 -12 c 0
 147 -12 90 49 90 180 c 2
 90 478 l 1
 120 478 l 1
 120 184 l 2
 120 71 163 16 264 16 c 0
 336 16 390 53 460 132 c 1
 460 478 l 1
 490 478 l 1xb8
EndSplineSet
Substitution2: "'sups' Superscript in Latin lookup 12 subtable" u.sups
Substitution2: "'aalt' Access All Alternates in Latin lookup 0 subtable" u.sups
EndChar

StartChar: v
Encoding: 118 118 49
Width: 600
GlyphClass: 2
Flags: MW
HStem: 0 32<286 304 300 304 300 316> 458 20G<66 98 98 98 504 534 534 534>
VStem: 66 468<478 478>
AnchorPoint: "Anchor-2" 301 -22 basechar 0
AnchorPoint: "Anchor-0" 301 500 basechar 0
LayerCount: 2
Fore
SplineSet
286 0 m 1
 66 478 l 1
 98 478 l 1
 238 168 l 2
 260 120 281 74 300 32 c 1
 304 32 l 1
 323 74 342 120 364 168 c 2
 504 478 l 1
 534 478 l 1
 316 0 l 1
 286 0 l 1
EndSplineSet
Substitution2: "'sups' Superscript in Latin lookup 12 subtable" v.sups
Substitution2: "'aalt' Access All Alternates in Latin lookup 0 subtable" v.sups
EndChar

StartChar: x
Encoding: 120 120 51
Width: 600
GlyphClass: 2
Flags: MW
HStem: 0 21G<86 86 86 120 478 478 478 514> 458 20G<102 138 138 138 464 498 498 498>
VStem: 86 428<0 0>
AnchorPoint: "Anchor-2" 300 -22 basechar 0
AnchorPoint: "Anchor-0" 300 500 basechar 0
LayerCount: 2
Fore
SplineSet
86 0 m 1
 281 248 l 1
 102 478 l 1
 138 478 l 1
 236 350 l 2
 256 324 276 296 298 270 c 1
 302 270 l 1
 324 296 348 326 368 352 c 2
 464 478 l 1
 498 478 l 1
 317 248 l 1
 514 0 l 1
 478 0 l 1
 370 137 l 2
 348 164 324 198 300 226 c 1
 296 226 l 1
 272 196 250 168 226 136 c 2
 120 0 l 1
 86 0 l 1
EndSplineSet
Substitution2: "'sups' Superscript in Latin lookup 12 subtable" x.sups
Substitution2: "'aalt' Access All Alternates in Latin lookup 0 subtable" x.sups
EndChar

StartChar: y
Encoding: 121 121 52
Width: 600
GlyphClass: 2
Flags: MW
HStem: -222 30<116 163.5 116 171> 458 20G<64 96 96 96 506 536 536 536>
VStem: 64 472<478 478>
AnchorPoint: "Anchor-2" 266 -242 basechar 0
AnchorPoint: "Anchor-0" 302 500 basechar 0
LayerCount: 2
Fore
SplineSet
77 -184 m 1
 89 -188 107 -192 125 -192 c 0
 202 -192 251 -134 282 -56 c 2
 300 -12 l 1
 64 478 l 1
 96 478 l 1
 244 164 l 2
 263 124 288 72 312 30 c 1
 316 30 l 1
 336 72 357 124 374 164 c 2
 506 478 l 1
 536 478 l 1
 306 -68 l 1
 280 -142 220 -222 122 -222 c 0
 104 -222 80 -218 67 -212 c 1
 77 -184 l 1
EndSplineSet
Substitution2: "'sups' Superscript in Latin lookup 12 subtable" y.sups
Substitution2: "'aalt' Access All Alternates in Latin lookup 0 subtable" y.sups
EndChar

StartChar: z
Encoding: 122 122 53
Width: 600
GlyphClass: 2
Flags: MW
HStem: 0 28<120 524 120 524> 450 28<114 464 114 512>
VStem: 72 452<0 16 16 16>
AnchorPoint: "Anchor-2" 316 -22 basechar 0
AnchorPoint: "Anchor-0" 318 500 basechar 0
LayerCount: 2
Fore
SplineSet
72 0 m 1
 72 16 l 1
 464 450 l 1
 114 450 l 1
 114 478 l 1
 512 478 l 1
 512 462 l 1
 120 28 l 1
 524 28 l 1
 524 0 l 1
 72 0 l 1
EndSplineSet
Substitution2: "'sups' Superscript in Latin lookup 12 subtable" z.sups
Substitution2: "'aalt' Access All Alternates in Latin lookup 0 subtable" z.sups
EndChar

StartChar: braceleft
Encoding: 123 123 515
Width: 600
Flags: MW
HStem: -152 23<446 458 458 506> 266 24<132 195> 685 23<387.5 506 458 506 458 506>
VStem: 132 96<276 280 276 290 276 290> 274 37
LayerCount: 2
Fore
SplineSet
274 -26 m 0
 274 48 283 114 283 185 c 0
 283 226 258 266 132 266 c 1
 132 290 l 1
 258 290 283 330 283 371 c 0
 283 435 274 514 274 582 c 0
 274 681 335 708 458 708 c 2
 506 708 l 1
 506 685 l 1
 446 685 l 2
 329 685 304 651 304 578 c 0
 304 517 311 447 311 382 c 0
 311 327 294 292 228 280 c 1
 228 276 l 1
 294 264 311 229 311 174 c 0
 311 100 304 45 304 -22 c 0
 304 -95 329 -129 446 -129 c 2
 506 -129 l 1
 506 -152 l 1
 458 -152 l 2
 335 -152 274 -125 274 -26 c 0
EndSplineSet
EndChar

StartChar: bar
Encoding: 124 124 518
Width: 600
Flags: MW
HStem: -250 1000<286 314 286 314>
VStem: 286 28<-250 750 -250 750>
LayerCount: 2
Fore
SplineSet
286 -250 m 1
 286 750 l 1
 314 750 l 1
 314 -250 l 1
 286 -250 l 1
EndSplineSet
EndChar

StartChar: braceright
Encoding: 125 125 516
Width: 600
Flags: MW
HStem: -152 23<94 142 94 154> 266 24<404.5 467> 685 23<94 142 142 154 94 142>
VStem: 290 35 372 95<276 280 280 280>
LayerCount: 2
Fore
SplineSet
94 -129 m 1
 154 -129 l 2
 271 -129 298 -95 298 -22 c 0
 298 45 290 100 290 174 c 0
 290 229 305 264 372 276 c 1
 372 280 l 1
 305 292 290 327 290 382 c 0
 290 447 298 517 298 578 c 0
 298 651 271 685 154 685 c 2
 94 685 l 1
 94 708 l 1
 142 708 l 2
 265 708 325 681 325 582 c 0
 325 514 317 435 317 371 c 0
 317 330 342 290 467 290 c 1
 467 266 l 1
 342 266 317 226 317 185 c 0
 317 114 325 48 325 -26 c 0
 325 -125 265 -152 142 -152 c 2
 94 -152 l 1
 94 -129 l 1
EndSplineSet
EndChar

StartChar: asciitilde
Encoding: 126 126 673
Width: 600
Flags: MW
HStem: 270 28<363 409 363 411> 362 28<191 237>
VStem: 96 408<280 378>
LayerCount: 2
Fore
SplineSet
120 272 m 1
 96 280 l 1
 124 366 168 390 210 390 c 0
 286 390 334 298 392 298 c 0
 426 298 454 306 480 388 c 1
 504 378 l 1
 476 294 432 270 390 270 c 0
 314 270 266 362 208 362 c 0
 174 362 146 352 120 272 c 1
EndSplineSet
EndChar

StartChar: exclamdown
Encoding: 161 161 487
Width: 600
Flags: MW
HStem: 374 116<287 313> 470 20G<287 313>
VStem: 248 104<413 451> 286 28<-192 -130 -192 -130>
LayerCount: 2
Fore
SplineSet
312 264 m 1x50
 314 -130 l 1
 314 -192 l 1
 286 -192 l 1
 286 -130 l 1
 288 264 l 1
 312 264 l 1x50
352 432 m 0x60
 352 394 326 374 300 374 c 0xa0
 274 374 248 394 248 432 c 0
 248 470 274 490 300 490 c 0
 326 490 352 470 352 432 c 0x60
EndSplineSet
EndChar

StartChar: cent
Encoding: 162 162 634
Width: 600
Flags: MW
HStem: 84 28<344 344> 512 28<344 344> 632 20G<316 344 344 344>
VStem: 126 32<256.5 367 256.5 381> 316 28<-26 84 -26 85 -26 85 113 510 510 510 540 652>
LayerCount: 2
Fore
SplineSet
316 113 m 1
 316 510 l 1
 226 499 158 422 158 312 c 0
 158 201 220 124 316 113 c 1
474 168 m 1
 492 148 l 1
 453 113 404 85 344 84 c 1
 344 -26 l 1
 316 -26 l 1
 316 85 l 1
 206 95 126 176 126 312 c 0
 126 450 212 528 316 539 c 1
 316 652 l 1
 344 652 l 1
 344 540 l 1
 408 539 449 509 480 480 c 1
 462 460 l 1
 431 489 392 511 344 512 c 1
 344 112 l 1
 396 113 441 138 474 168 c 1
EndSplineSet
EndChar

StartChar: sterling
Encoding: 163 163 631
Width: 600
Flags: MW
HStem: 0 28<153 516 153 516> 296 28<194 194 194 203 233 233 233 430> 624 28<289.5 378>
VStem: 87 66<0 28 18 28> 152 29<459.5 525 459.5 537> 216 28<179 231.5>
LayerCount: 2
Fore
SplineSet
153 28 m 1xf4
 516 28 l 1
 516 0 l 1
 87 0 l 1
 87 18 l 1xf4
 181 62 216 140 216 218 c 0
 216 245 211 271 203 296 c 1
 82 296 l 1
 82 322 l 1
 194 324 l 1
 176 378 152 430 152 486 c 0
 152 588 225 652 347 652 c 0
 429 652 481 618 514 582 c 1
 492 562 l 1
 458 596 413 624 343 624 c 0
 236 624 181 562 181 488 c 0
 181 431 206 380 225 324 c 1xec
 430 324 l 1
 430 296 l 1
 233 296 l 1
 240 272 244 246 244 218 c 0
 244 130 212 78 153 32 c 1
 153 28 l 1xf4
EndSplineSet
EndChar

StartChar: currency
Encoding: 164 164 629
Width: 600
Flags: MW
HStem: 138 28<277.5 322> 492 28<277.5 322 277.5 339>
VStem: 124 32<304.5 352.5> 444 32<304.5 352.5 304.5 376>
LayerCount: 2
Fore
SplineSet
96 98 m 1
 76 120 l 1
 162 208 l 1
 138 240 124 281 124 328 c 0
 124 377 138 419 162 451 c 1
 76 540 l 1
 96 562 l 1
 182 473 l 1
 213 503 255 520 300 520 c 0
 344 520 386 503 418 473 c 1
 504 562 l 1
 524 540 l 1
 437 451 l 1
 461 419 476 377 476 328 c 0
 476 281 461 240 438 208 c 1
 524 120 l 1
 504 98 l 1
 418 186 l 1
 387 155 344 138 300 138 c 0
 255 138 213 155 181 186 c 1
 96 98 l 1
156 328 m 0
 156 232 222 166 300 166 c 0
 378 166 444 232 444 328 c 0
 444 424 378 492 300 492 c 0
 222 492 156 424 156 328 c 0
EndSplineSet
EndChar

StartChar: yen
Encoding: 165 165 632
Width: 600
Flags: MW
HStem: 0 21G<284 314 284 284> 168 28<92 284 92 284 314 508> 270 28<92 273 92 284 92 273 325 508> 620 20G<70 102 102 102 500 530 530 530>
VStem: 284 30<0 168 0 168 196 270>
LayerCount: 2
Fore
SplineSet
70 640 m 1
 102 640 l 1
 219 438 l 2
 245 394 270 350 298 300 c 1
 302 300 l 1
 330 350 355 394 383 438 c 1
 500 640 l 1
 530 640 l 1
 325 298 l 1
 508 298 l 1
 508 270 l 1
 314 270 l 1
 314 196 l 1
 508 196 l 1
 508 168 l 1
 314 168 l 1
 314 0 l 1
 284 0 l 1
 284 168 l 1
 92 168 l 1
 92 196 l 1
 284 196 l 1
 284 270 l 1
 92 270 l 1
 92 298 l 1
 273 298 l 1
 70 640 l 1
EndSplineSet
EndChar

StartChar: brokenbar
Encoding: 166 166 520
Width: 600
Flags: MW
HStem: -250 1000<286 314 286 314>
VStem: 286 28<-250 222 -250 222 274 750>
LayerCount: 2
Fore
SplineSet
286 274 m 1
 286 750 l 1
 314 750 l 1
 314 274 l 1
 286 274 l 1
286 222 m 1
 314 222 l 1
 314 -250 l 1
 286 -250 l 1
 286 222 l 1
EndSplineSet
EndChar

StartChar: section
Encoding: 167 167 524
Width: 600
Flags: MW
HStem: -48 28<261.5 328 261.5 331> 652 28<266 330>
VStem: 106 30<302 385.5 302 389.5> 172 30<550.5 590 500.5 594> 402 30<46 90 37 142> 464 30<253 340>
LayerCount: 2
Fore
SplineSet
372 176 m 1
 430 200 464 224 464 282 c 0
 464 398 315 411 230 469 c 1
 175 441 136 413 136 358 c 0
 136 246 285 233 372 176 c 1
446 628 m 1
 428 606 l 1
 393 632 358 652 302 652 c 0
 230 652 202 610 202 570 c 0
 202 431 494 470 494 284 c 0
 494 215 453 183 397 155 c 1
 418 135 432 108 432 72 c 0
 432 2 366 -48 296 -48 c 0
 224 -48 170 -22 130 12 c 1
 152 34 l 1
 189 2 227 -20 296 -20 c 0
 360 -20 402 22 402 70 c 0
 402 214 106 174 106 356 c 0
 106 423 151 460 206 488 c 1
 185 508 172 533 172 568 c 0
 172 620 212 680 302 680 c 0
 358 680 407 658 446 628 c 1
EndSplineSet
EndChar

StartChar: dieresis
Encoding: 168 168 725
Width: 600
Flags: MW
HStem: 602 72<204 224 376 396>
VStem: 180 68<628 648> 352 68<628 648>
LayerCount: 2
Fore
SplineSet
214 602 m 0
 194 602 180 618 180 638 c 0
 180 658 194 674 214 674 c 0
 234 674 248 658 248 638 c 0
 248 618 234 602 214 602 c 0
386 602 m 0
 366 602 352 618 352 638 c 0
 352 658 366 674 386 674 c 0
 406 674 420 658 420 638 c 0
 420 618 406 602 386 602 c 0
EndSplineSet
EndChar

StartChar: copyright
Encoding: 169 169 526
Width: 600
Flags: MW
HStem: -12 26<231 369 231 377> 124 30<270 327 270 332> 478 30<273 325> 626 26<231 369>
VStem: 40 30<230 413.5 230 422.5> 152 34<270 369 270 380> 530 30<230 413.5>
LayerCount: 2
Fore
SplineSet
40 322 m 0
 40 523 146 652 300 652 c 0
 454 652 560 523 560 322 c 0
 560 120 454 -12 300 -12 c 0
 146 -12 40 120 40 322 c 0
70 322 m 0
 70 138 162 14 300 14 c 0
 438 14 530 138 530 322 c 0
 530 505 438 626 300 626 c 0
 162 626 70 505 70 322 c 0
152 322 m 0
 152 438 226 508 310 508 c 0
 354 508 382 490 408 464 c 1
 390 442 l 1
 364 465 342 478 308 478 c 0
 238 478 186 416 186 322 c 0
 186 218 234 154 306 154 c 0
 348 154 378 173 404 196 c 1
 420 174 l 1
 390 146 360 124 304 124 c 0
 222 124 152 196 152 322 c 0
EndSplineSet
EndChar

StartChar: ordfeminine
Encoding: 170 170 594
Width: 600
Flags: MW
HStem: 252 27<266 302.5> 558 27<296 352.5>
VStem: 178 32<319 366 319 374.5> 402 32<329 435 435 435 459 462 260 484.5>
LayerCount: 2
Fore
SplineSet
178 339 m 0
 178 410 251 443 402 459 c 1
 402 510 386 558 319 558 c 0
 273 558 233 537 208 521 c 1
 193 544 l 1
 218 560 268 585 322 585 c 0
 404 585 434 531 434 462 c 2
 434 260 l 1
 407 260 l 1
 404 301 l 1
 403 301 l 1
 368 275 325 252 280 252 c 0
 226 252 178 280 178 339 c 0
210 341 m 0
 210 297 246 279 286 279 c 0
 324 279 361 297 402 329 c 1
 402 435 l 1
 263 420 210 391 210 341 c 0
EndSplineSet
Substitution2: "'ss02' Style Set 2 in Latin lookup 18 subtable" ordfeminine.a
Substitution2: "'aalt' Access All Alternates in Latin lookup 0 subtable" ordfeminine.a
EndChar

StartChar: guillemotleft
Encoding: 171 171 500
Width: 600
Flags: MW
HStem: 74 356<253 253 253 453>
VStem: 115 32<252 252 252 266 252 266> 315 32<252 252 252 266 252 266>
LayerCount: 2
Fore
SplineSet
253 74 m 1
 115 238 l 1
 115 266 l 1
 253 430 l 1
 273 412 l 1
 147 252 l 1
 273 90 l 1
 253 74 l 1
453 74 m 1
 315 238 l 1
 315 266 l 1
 453 430 l 1
 473 412 l 1
 347 252 l 1
 473 90 l 1
 453 74 l 1
EndSplineSet
EndChar

StartChar: logicalnot
Encoding: 172 172 675
Width: 600
Flags: MW
HStem: 316 28<98 502 98 470>
VStem: 470 32<112 316 316 316>
LayerCount: 2
Fore
SplineSet
98 316 m 1
 98 344 l 1
 502 344 l 1
 502 112 l 1
 470 112 l 1
 470 316 l 1
 98 316 l 1
EndSplineSet
EndChar

StartChar: uni00AD
Encoding: 173 173 503
Width: 600
Flags: MW
HStem: 316 28<98 502 98 502>
VStem: 98 404<316 344 316 344>
LayerCount: 2
Fore
SplineSet
98 316 m 1
 98 344 l 1
 502 344 l 1
 502 316 l 1
 98 316 l 1
EndSplineSet
Substitution2: "'ss01' Style Set 1 in Latin lookup 17 subtable" uni00AD.a
Substitution2: "'aalt' Access All Alternates in Latin lookup 0 subtable" uni00AD.a
EndChar

StartChar: registered
Encoding: 174 174 528
Width: 600
Flags: MW
HStem: 326 26<258 342 258 349> 496 26<262 292 292 308 262 312 262 292> 600 26<262 296 262 262> 686 26<258 342>
VStem: 120 28<470 566 470 576> 234 28<418 496 522 600> 346 30<549 572> 452 28<470 566>
LayerCount: 2
Fore
SplineSet
300 326 m 0
 202 326 120 402 120 518 c 0
 120 634 202 712 300 712 c 0
 398 712 480 634 480 518 c 0
 480 402 398 326 300 326 c 0
300 352 m 0
 384 352 452 422 452 518 c 0
 452 614 384 686 300 686 c 0
 216 686 148 614 148 518 c 0
 148 422 216 352 300 352 c 0
234 418 m 1
 234 626 l 1
 300 626 l 2
 338 626 376 612 376 562 c 0
 376 536 358 512 336 506 c 1
 386 418 l 1
 352 418 l 1
 312 496 l 1
 262 496 l 1
 262 418 l 1
 234 418 l 1
262 522 m 1
 292 522 l 2
 324 522 346 532 346 560 c 0
 346 584 334 600 296 600 c 2
 262 600 l 1
 262 522 l 1
EndSplineSet
EndChar

StartChar: degree
Encoding: 176 176 628
Width: 600
Flags: MW
HStem: 454 26<276 324 276 328> 658 26<276 324>
VStem: 190 28<543 594 543 605> 382 28<543 594>
LayerCount: 2
Fore
SplineSet
300 454 m 0
 244 454 190 496 190 568 c 0
 190 642 244 684 300 684 c 0
 356 684 410 642 410 568 c 0
 410 496 356 454 300 454 c 0
300 480 m 0
 348 480 382 518 382 568 c 0
 382 620 348 658 300 658 c 0
 252 658 218 620 218 568 c 0
 218 518 252 480 300 480 c 0
EndSplineSet
EndChar

StartChar: plusminus
Encoding: 177 177 670
Width: 600
Flags: MW
HStem: 0 28<98 502 98 502> 312 28<98 284 98 284 316 502>
VStem: 284 32<102 312 102 312 340 548>
LayerCount: 2
Fore
SplineSet
284 102 m 1
 284 312 l 1
 98 312 l 1
 98 340 l 1
 284 340 l 1
 284 548 l 1
 316 548 l 1
 316 340 l 1
 502 340 l 1
 502 312 l 1
 316 312 l 1
 316 102 l 1
 284 102 l 1
98 0 m 1
 98 28 l 1
 502 28 l 1
 502 0 l 1
 98 0 l 1
EndSplineSet
EndChar

StartChar: two.sups
Encoding: 178 178 540
Width: 600
Flags: MW
HStem: 440 26<243 414 243 414> 726 26<275 315.5>
VStem: 366 30<627.5 676.5>
LayerCount: 2
Fore
SplineSet
193 440 m 1
 193 460 l 1
 314 560 366 601 366 654 c 0
 366 699 339 726 292 726 c 0
 258 726 228 706 208 678 c 1
 186 694 l 1
 210 726 249 752 292 752 c 0
 358 752 396 717 396 653 c 0
 396 592 330 542 243 466 c 1
 414 466 l 1
 414 440 l 1
 193 440 l 1
EndSplineSet
EndChar

StartChar: three.sups
Encoding: 179 179 541
Width: 600
Flags: MW
HStem: 428 26<279 323 279 330> 580 24<264 298.5 264 302> 726 26<281.5 318>
VStem: 362 30<652 687> 378 30<494 537.5>
LayerCount: 2
Fore
SplineSet
178 492 m 1xe8
 202 510 l 1
 222 478 258 454 300 454 c 0
 346 454 378 472 378 516 c 0xe8
 378 559 340 580 264 580 c 1
 264 604 l 1
 333 604 362 634 362 670 c 0
 362 704 342 726 294 726 c 0
 269 726 234 712 214 686 c 1
 194 704 l 1
 216 733 256 752 296 752 c 0
 354 752 392 724 392 672 c 0xf0
 392 632 372 608 334 594 c 1
 374 586 408 560 408 516 c 0
 408 456 362 428 298 428 c 0
 248 428 200 459 178 492 c 1xe8
EndSplineSet
EndChar

StartChar: acute
Encoding: 180 180 716
Width: 600
Flags: MW
HStem: 572 134<248 380 248 380>
VStem: 248 132
LayerCount: 2
Fore
SplineSet
380 706 m 1
 276 572 l 1
 248 572 l 1
 340 706 l 1
 380 706 l 1
EndSplineSet
EndChar

StartChar: uni00B5
Encoding: 181 181 678
Width: 600
Flags: MW
HStem: -12 28<234 292.5 211.5 302 504 512>
VStem: 90 26<4.5 64 4.5 478> 460 28<67.5 112>
LayerCount: 2
Fore
SplineSet
90 -180 m 1
 90 478 l 1
 120 478 l 1
 120 184 l 2
 120 80 161 16 262 16 c 0
 323 16 387 31 460 154 c 1
 460 478 l 1
 490 478 l 1
 489 334 488 190 488 46 c 0
 488 26 498 16 510 16 c 0
 514 16 518 16 528 18 c 1
 534 -8 l 1
 526 -10 519 -12 508 -12 c 0
 468 -12 460 23 460 112 c 1
 458 112 l 1
 405 26 338 -12 266 -12 c 0
 202 -12 150 2 116 64 c 1
 116 -55 116 -94 120 -180 c 1
 90 -180 l 1
EndSplineSet
EndChar

StartChar: paragraph
Encoding: 182 182 525
Width: 600
Flags: MW
HStem: 640 20G<324 368 368 368 424 452 452 452>
VStem: 92 276<380 528> 424 28<-80 660 -80 660>
LayerCount: 2
Fore
SplineSet
424 -80 m 1
 424 660 l 1
 452 660 l 1
 452 -80 l 1
 424 -80 l 1
368 660 m 1
 368 250 l 1
 342 250 l 2
 192 250 92 306 92 454 c 0
 92 602 186 660 324 660 c 2
 368 660 l 1
EndSplineSet
EndChar

StartChar: periodcentered
Encoding: 183 183 508
Width: 600
Flags: MW
HStem: 284 116<287 313>
VStem: 248 104<323 361>
LayerCount: 2
Fore
SplineSet
248 342 m 0
 248 380 274 400 300 400 c 0
 326 400 352 380 352 342 c 0
 352 304 326 284 300 284 c 0
 274 284 248 304 248 342 c 0
EndSplineSet
EndChar

StartChar: cedilla
Encoding: 184 184 731
Width: 600
Flags: MW
HStem: -206 26<240 246> -206 208<246 334>
VStem: 334 30<-142 -112>
LayerCount: 2
Fore
SplineSet
266 -74 m 1x60
 306 2 l 1
 334 2 l 1
 304 -56 l 1
 336 -66 364 -84 364 -124 c 0
 364 -174 306 -198 246 -206 c 1
 240 -180 l 1
 296 -172 334 -156 334 -128 c 0xa0
 334 -96 304 -84 266 -74 c 1x60
EndSplineSet
EndChar

StartChar: one.sups
Encoding: 185 185 539
Width: 600
Flags: MW
HStem: 685 55<218 328>
VStem: 300 28<440 685 685 685>
LayerCount: 2
Fore
SplineSet
300 440 m 1
 300 685 l 1
 218 685 l 1
 218 709 l 1
 256 716 280 726 304 740 c 1
 328 740 l 1
 328 440 l 1
 300 440 l 1
EndSplineSet
EndChar

StartChar: ordmasculine
Encoding: 186 186 596
Width: 600
Flags: MW
HStem: 252 28<266 334 266 341> 558 27<266 334>
VStem: 150 33<377 459 377 471> 417 33<377 459>
LayerCount: 2
Fore
SplineSet
150 418 m 0
 150 524 219 585 300 585 c 0
 382 585 450 524 450 418 c 0
 450 313 382 252 300 252 c 0
 219 252 150 313 150 418 c 0
183 418 m 0
 183 336 232 280 300 280 c 0
 368 280 417 336 417 418 c 0
 417 500 368 558 300 558 c 0
 232 558 183 500 183 418 c 0
EndSplineSet
EndChar

StartChar: guillemotright
Encoding: 187 187 501
Width: 600
Flags: MW
HStem: 74 356<147 147 147 347>
VStem: 253 32<252 252> 453 32<252 252>
LayerCount: 2
Fore
SplineSet
127 90 m 1
 253 252 l 1
 127 412 l 1
 147 430 l 1
 285 266 l 1
 285 238 l 1
 147 74 l 1
 127 90 l 1
327 90 m 1
 453 252 l 1
 327 412 l 1
 347 430 l 1
 485 266 l 1
 485 238 l 1
 347 74 l 1
 327 90 l 1
EndSplineSet
EndChar

StartChar: onequarter
Encoding: 188 188 651
Width: 600
Flags: MW
HStem: 0 107<360 512 360 484> 83 24<360 484 360 484 512 561> 258 42<484 512 484 512> 585 24<78 160 78 78> 585 55<78 188>
VStem: 160 28<340 585 585 585> 484 28<0 83 0 83 107 190 190 190 258 258>
LayerCount: 2
Fore
SplineSet
562 602 m 1x4e
 382 402 l 1
 364 418 l 1
 536 624 l 1
 562 602 l 1x4e
160 340 m 1
 160 585 l 1
 78 585 l 1x6e
 78 609 l 1x56
 116 616 140 626 164 640 c 1
 188 640 l 1
 188 340 l 1
 160 340 l 1
38 58 m 1
 218 258 l 1
 236 242 l 1
 64 36 l 1
 38 58 l 1
360 107 m 1
 484 107 l 1
 484 190 l 1
 488 258 l 1
 484 258 l 1
 431 192 l 1
 360 107 l 1
512 300 m 1
 512 107 l 1
 561 107 l 1
 561 83 l 1
 512 83 l 1x4e
 512 0 l 1
 484 0 l 1x8e
 484 83 l 1
 320 83 l 1
 320 98 l 1
 492 300 l 1
 512 300 l 1
EndSplineSet
EndChar

StartChar: onehalf
Encoding: 189 189 652
Width: 600
Flags: MW
HStem: 0 26<383 554 383 554> 286 26<415 455.5> 585 24<78 160 78 78> 585 55<78 188>
VStem: 160 28<340 585 585 585> 506 30<187.5 236.5>
LayerCount: 2
Fore
SplineSet
160 340 m 1xdc
 160 585 l 1
 78 585 l 1xdc
 78 609 l 1xec
 116 616 140 626 164 640 c 1
 188 640 l 1
 188 340 l 1
 160 340 l 1xdc
64 36 m 1
 38 58 l 1
 218 258 l 1
 236 242 l 1
 64 36 l 1
536 624 m 1
 562 602 l 1
 382 402 l 1
 364 418 l 1
 536 624 l 1
333 0 m 1
 333 20 l 1
 454 120 506 161 506 214 c 0
 506 259 479 286 432 286 c 0
 398 286 368 266 348 238 c 1
 326 254 l 1
 350 286 389 312 432 312 c 0
 498 312 536 277 536 213 c 0
 536 152 470 102 383 26 c 1
 554 26 l 1
 554 0 l 1
 333 0 l 1
EndSplineSet
EndChar

StartChar: threequarters
Encoding: 190 190 653
Width: 600
Flags: MW
HStem: 0 107<360 512 360 484> 83 24<360 484 360 484 512 561> 258 42<484 512 484 512> 328 26<139 183 139 190> 480 24<124 158.5 124 162> 626 26<141.5 178>
VStem: 222 30<552 587> 238 30<394 437.5> 484 28<0 83 0 83 107 190 190 190 258 258>
LayerCount: 2
Fore
SplineSet
602 602 m 1x5d80
 422 402 l 1
 404 418 l 1
 576 624 l 1
 602 602 l 1x5d80
74 586 m 1
 54 604 l 1
 76 633 116 652 156 652 c 0
 214 652 252 624 252 572 c 0x7e80
 252 532 232 508 194 494 c 1
 234 486 268 460 268 416 c 0
 268 356 222 328 158 328 c 0
 108 328 60 359 38 392 c 1
 62 410 l 1
 82 378 118 354 160 354 c 0
 206 354 238 372 238 416 c 0x5d80
 238 459 200 480 124 480 c 1
 124 504 l 1
 193 504 222 534 222 570 c 0
 222 604 202 626 154 626 c 0x5e80
 129 626 94 612 74 586 c 1
78 58 m 1
 258 258 l 1
 276 242 l 1
 104 36 l 1
 78 58 l 1
360 107 m 1
 484 107 l 1
 484 190 l 1
 488 258 l 1
 484 258 l 1
 431 192 l 1
 360 107 l 1
512 300 m 1
 512 107 l 1
 561 107 l 1
 561 83 l 1
 512 83 l 1x5d80
 512 0 l 1
 484 0 l 1x9d80
 484 83 l 1
 320 83 l 1
 320 98 l 1
 492 300 l 1
 512 300 l 1
EndSplineSet
EndChar

StartChar: questiondown
Encoding: 191 191 489
Width: 600
Flags: MW
HStem: -204 28<261 339 261 346> 374 116<303 329> 470 20G<303 329>
VStem: 138 32<-85 10 -85 12> 264 104<413 451>
LayerCount: 2
Fore
SplineSet
340 264 m 1xb8
 366 114 170 72 170 -52 c 0
 170 -118 212 -176 310 -176 c 0
 368 -176 422 -152 462 -110 c 1
 484 -130 l 1
 442 -172 384 -204 308 -204 c 0
 200 -204 138 -136 138 -54 c 0
 138 78 334 123 312 264 c 1
 340 264 l 1xb8
368 432 m 0
 368 394 342 374 316 374 c 0xd8
 290 374 264 394 264 432 c 0
 264 470 290 490 316 490 c 0
 342 490 368 470 368 432 c 0
EndSplineSet
EndChar

StartChar: Aacute
Encoding: 193 193 55
Width: 600
Flags: MW
HStem: 0 21G<50 82 50 50 516 550 516 516> 236 28<175 424 175 434 165 424> 626 34<298 302 298 298> 710 104<268 406 268 406>
VStem: 50 500<0 0>
LayerCount: 2
Fore
SplineSet
406 814 m 1
 298 710 l 1
 268 710 l 1
 362 814 l 1
 406 814 l 1
175 264 m 1
 424 264 l 1
 378 396 l 2
 350 476 326 544 302 626 c 1
 298 626 l 1
 274 544 250 476 222 396 c 2
 175 264 l 1
516 0 m 1
 434 236 l 1
 165 236 l 1
 82 0 l 1
 50 0 l 1
 286 660 l 1
 314 660 l 1
 550 0 l 1
 516 0 l 1
EndSplineSet
EndChar

StartChar: Acircumflex
Encoding: 194 194 56
Width: 600
Flags: MW
HStem: 0 21G<50 82 50 50 516 550 516 516> 236 28<175 424 175 434 165 424> 626 34<298 302 298 298> 784 30<298 298 298 302>
VStem: 50 500<0 0>
LayerCount: 2
Fore
SplineSet
298 784 m 1
 220 710 l 1
 190 710 l 1
 286 814 l 1
 314 814 l 1
 410 710 l 1
 380 710 l 1
 302 784 l 1
 298 784 l 1
175 264 m 1
 424 264 l 1
 378 396 l 2
 350 476 326 544 302 626 c 1
 298 626 l 1
 274 544 250 476 222 396 c 2
 175 264 l 1
516 0 m 1
 434 236 l 1
 165 236 l 1
 82 0 l 1
 50 0 l 1
 286 660 l 1
 314 660 l 1
 550 0 l 1
 516 0 l 1
EndSplineSet
EndChar

StartChar: Atilde
Encoding: 195 195 57
Width: 600
Flags: MW
HStem: 0 21G<50 82 50 50 516 550 516 516> 236 28<175 424 175 434 165 424> 626 34<298 302 298 298> 718 28<339 371 339 380> 776 28<229 261>
VStem: 176 22<718 718> 402 22<804 804>
LayerCount: 2
Fore
SplineSet
402 804 m 1
 424 804 l 1
 422 766 402 718 358 718 c 0
 306 718 282 776 240 776 c 0xee
 218 776 202 752 198 718 c 1
 176 718 l 1
 178 756 198 804 242 804 c 0
 294 804 318 746 360 746 c 0xfe
 382 746 398 770 402 804 c 1
175 264 m 1
 424 264 l 1
 378 396 l 2
 350 476 326 544 302 626 c 1
 298 626 l 1
 274 544 250 476 222 396 c 2
 175 264 l 1
516 0 m 1
 434 236 l 1
 165 236 l 1
 82 0 l 1
 50 0 l 1
 286 660 l 1
 314 660 l 1
 550 0 l 1
 516 0 l 1
EndSplineSet
EndChar

StartChar: Adieresis
Encoding: 196 196 58
Width: 600
Flags: MW
HStem: 0 21G<50 82 50 50 516 550 516 516> 236 28<175 424 175 434 165 424> 626 34<298 302 298 298> 728 64<215 233 367 385>
VStem: 192 64<750 770> 344 64<750 770>
LayerCount: 2
Fore
SplineSet
376 728 m 0
 358 728 344 740 344 760 c 0
 344 780 358 792 376 792 c 0
 394 792 408 780 408 760 c 0
 408 740 394 728 376 728 c 0
224 728 m 0
 206 728 192 740 192 760 c 0
 192 780 206 792 224 792 c 0
 242 792 256 780 256 760 c 0
 256 740 242 728 224 728 c 0
175 264 m 1
 424 264 l 1
 378 396 l 2
 350 476 326 544 302 626 c 1
 298 626 l 1
 274 544 250 476 222 396 c 2
 175 264 l 1
516 0 m 1
 434 236 l 1
 165 236 l 1
 82 0 l 1
 50 0 l 1
 286 660 l 1
 314 660 l 1
 550 0 l 1
 516 0 l 1
EndSplineSet
EndChar

StartChar: Aring
Encoding: 197 197 61
Width: 600
Flags: MW
HStem: 0 21G<50 82 50 50 516 550 516 516> 236 28<175 424 175 434 165 424> 626 34<298 302 298 298> 700 22<285 314 285 321> 838 22<285 314>
VStem: 222 24<761 798 761 804> 352 26<761 798>
LayerCount: 2
Fore
SplineSet
300 838 m 0
 270 838 246 816 246 780 c 0
 246 742 270 722 300 722 c 0
 328 722 352 742 352 780 c 0
 352 816 328 838 300 838 c 0
300 700 m 0
 256 700 222 732 222 780 c 0
 222 828 256 860 300 860 c 0
 342 860 378 828 378 780 c 0
 378 732 342 700 300 700 c 0
175 264 m 1
 424 264 l 1
 378 396 l 2
 350 476 326 544 302 626 c 1
 298 626 l 1
 274 544 250 476 222 396 c 2
 175 264 l 1
516 0 m 1
 434 236 l 1
 165 236 l 1
 82 0 l 1
 50 0 l 1
 286 660 l 1
 314 660 l 1
 550 0 l 1
 516 0 l 1
EndSplineSet
EndChar

StartChar: AE
Encoding: 198 198 76
Width: 600
GlyphClass: 2
Flags: MW
HStem: 0 28<354 588 354 588> 226 28<149 322 149 322 137 322> 338 28<354 524 354 524> 632 28<354 578 354 354>
VStem: 322 32<28 28 28 226 226 226 254 338 366 630 630 630>
AnchorPoint: "Anchor-0" 484 694 basechar 0
LayerCount: 2
Fore
SplineSet
149 254 m 1
 322 254 l 1
 322 630 l 1
 318 630 l 1
 284 552 248 476 212 394 c 2
 149 254 l 1
354 28 m 1
 588 28 l 1
 588 0 l 1
 322 0 l 1
 322 226 l 1
 137 226 l 1
 36 0 l 1
 0 0 l 1
 302 660 l 1
 578 660 l 1
 578 632 l 1
 354 632 l 1
 354 366 l 1
 524 366 l 1
 524 338 l 1
 354 338 l 1
 354 28 l 1
EndSplineSet
EndChar

StartChar: Ccedilla
Encoding: 199 199 78
Width: 600
Flags: MW
HStem: -206 26<268 274> -11 29<327 327> 642 30<277 384>
VStem: 74 34<237 427 237 436> 362 30<-142 -112>
LayerCount: 2
Fore
SplineSet
521 102 m 1
 541 82 l 1
 493 26 437 -10 355 -12 c 1
 332 -56 l 1
 364 -66 392 -84 392 -124 c 0
 392 -174 334 -198 274 -206 c 1
 268 -180 l 1
 324 -172 362 -156 362 -128 c 0
 362 -96 332 -84 294 -74 c 1
 327 -11 l 1
 176 -1 74 133 74 332 c 0
 74 540 185 672 353 672 c 0
 429 672 487 634 521 594 c 1
 501 572 l 1
 465 614 415 642 353 642 c 0
 201 642 108 522 108 332 c 0
 108 142 201 18 349 18 c 0
 419 18 471 46 521 102 c 1
EndSplineSet
EndChar

StartChar: Egrave
Encoding: 200 200 87
Width: 600
Flags: MW
HStem: 0 28<164 526 164 526> 338 28<164 460 164 460> 632 28<164 516 164 164> 632 182<232 276 232 516 164 276>
VStem: 132 32<28 338 366 632>
LayerCount: 2
Fore
SplineSet
132 0 m 1xe8
 132 660 l 1
 516 660 l 1
 516 632 l 1
 164 632 l 1
 164 366 l 1
 460 366 l 1
 460 338 l 1
 164 338 l 1
 164 28 l 1
 526 28 l 1
 526 0 l 1
 132 0 l 1xe8
340 710 m 1
 232 814 l 1
 276 814 l 1xd8
 370 710 l 1
 340 710 l 1
EndSplineSet
EndChar

StartChar: Eacute
Encoding: 201 201 88
Width: 600
Flags: MW
HStem: 0 28<164 526 164 526> 338 28<164 460 164 460> 632 28<164 516 164 164> 632 182<400 444 400 516>
VStem: 132 32<28 338 366 632>
LayerCount: 2
Fore
SplineSet
132 0 m 1xe8
 132 660 l 1
 516 660 l 1
 516 632 l 1
 164 632 l 1
 164 366 l 1
 460 366 l 1
 460 338 l 1
 164 338 l 1
 164 28 l 1
 526 28 l 1
 526 0 l 1
 132 0 l 1xe8
444 814 m 1xd8
 336 710 l 1
 306 710 l 1
 400 814 l 1
 444 814 l 1xd8
EndSplineSet
EndChar

StartChar: Ecircumflex
Encoding: 202 202 89
Width: 600
Flags: MW
HStem: 0 28<164 526 164 526> 338 28<164 460 164 460> 632 28<164 516 164 164> 784 30<336 340 336 336>
VStem: 132 32<28 338 366 632>
LayerCount: 2
Fore
SplineSet
132 0 m 1
 132 660 l 1
 516 660 l 1
 516 632 l 1
 164 632 l 1
 164 366 l 1
 460 366 l 1
 460 338 l 1
 164 338 l 1
 164 28 l 1
 526 28 l 1
 526 0 l 1
 132 0 l 1
258 710 m 1
 228 710 l 1
 324 814 l 1
 352 814 l 1
 448 710 l 1
 418 710 l 1
 340 784 l 1
 336 784 l 1
 258 710 l 1
EndSplineSet
MultipleSubs2: "Multiple Substitution lookup 2 subtable" E uni0302
EndChar

StartChar: Edieresis
Encoding: 203 203 91
Width: 600
Flags: MW
HStem: 0 28<164 526 164 526> 338 28<164 460 164 460> 632 28<164 516 164 164> 632 160<253 271 405 423 253 516 164 271>
VStem: 132 32<28 338 366 632> 230 64<750 770> 382 64<750 770>
LayerCount: 2
Fore
SplineSet
132 0 m 1xe8
 132 660 l 1
 516 660 l 1
 516 632 l 1
 164 632 l 1
 164 366 l 1
 460 366 l 1
 460 338 l 1
 164 338 l 1
 164 28 l 1
 526 28 l 1
 526 0 l 1
 132 0 l 1xe8
262 728 m 0xde
 244 728 230 740 230 760 c 0
 230 780 244 792 262 792 c 0
 280 792 294 780 294 760 c 0
 294 740 280 728 262 728 c 0xde
414 728 m 0
 396 728 382 740 382 760 c 0
 382 780 396 792 414 792 c 0
 432 792 446 780 446 760 c 0
 446 740 432 728 414 728 c 0
EndSplineSet
EndChar

StartChar: Iacute
Encoding: 205 205 116
Width: 600
Flags: MW
HStem: 0 28<112 284 112 284 316 488> 632 28<112 284 112 488 316 316 316 488>
VStem: 284 32<28 632 28 632>
LayerCount: 2
Fore
SplineSet
112 0 m 1
 112 28 l 1
 284 28 l 1
 284 632 l 1
 112 632 l 1
 112 660 l 1
 488 660 l 1
 488 632 l 1
 316 632 l 1
 316 28 l 1
 488 28 l 1
 488 0 l 1
 112 0 l 1
406 814 m 1
 298 710 l 1
 268 710 l 1
 362 814 l 1
 406 814 l 1
EndSplineSet
EndChar

StartChar: Icircumflex
Encoding: 206 206 117
Width: 600
Flags: MW
HStem: 0 28<112 284 112 284 316 488> 632 28<112 284 112 488 316 316 316 488> 784 30<298 302 298 298>
VStem: 284 32<28 632 28 632>
LayerCount: 2
Fore
SplineSet
112 0 m 1
 112 28 l 1
 284 28 l 1
 284 632 l 1
 112 632 l 1
 112 660 l 1
 488 660 l 1
 488 632 l 1
 316 632 l 1
 316 28 l 1
 488 28 l 1
 488 0 l 1
 112 0 l 1
220 710 m 1
 190 710 l 1
 286 814 l 1
 314 814 l 1
 410 710 l 1
 380 710 l 1
 302 784 l 1
 298 784 l 1
 220 710 l 1
EndSplineSet
EndChar

StartChar: Idieresis
Encoding: 207 207 119
Width: 600
Flags: MW
HStem: 0 28<112 284 112 284 316 488> 632 28<112 284 112 488 316 316 316 488> 728 64<215 233 367 385>
VStem: 192 64<750 770> 284 32<28 632 28 632> 344 64<750 770>
LayerCount: 2
Fore
SplineSet
112 0 m 1
 112 28 l 1
 284 28 l 1
 284 632 l 1
 112 632 l 1
 112 660 l 1
 488 660 l 1
 488 632 l 1
 316 632 l 1
 316 28 l 1
 488 28 l 1
 488 0 l 1
 112 0 l 1
224 728 m 0xfc
 206 728 192 740 192 760 c 0
 192 780 206 792 224 792 c 0
 242 792 256 780 256 760 c 0
 256 740 242 728 224 728 c 0xfc
376 728 m 0
 358 728 344 740 344 760 c 0
 344 780 358 792 376 792 c 0
 394 792 408 780 408 760 c 0
 408 740 394 728 376 728 c 0
EndSplineSet
EndChar

StartChar: Eth
Encoding: 208 208 228
Width: 600
Flags: MW
HStem: 0 28<138 250 250 254> 336 28<28 106 138 310> 632 28<138 250 138 138>
VStem: 106 32<28 28 28 336 364 632> 516 34<245 419>
LayerCount: 2
Fore
SplineSet
106 0 m 1
 106 336 l 1
 28 336 l 1
 28 360 l 1
 106 364 l 1
 106 660 l 1
 254 660 l 2
 458 660 550 528 550 332 c 0
 550 136 458 0 254 0 c 2
 106 0 l 1
138 28 m 1
 250 28 l 2
 438 28 516 158 516 332 c 0
 516 506 438 632 250 632 c 2
 138 632 l 1
 138 364 l 1
 310 364 l 1
 310 336 l 1
 138 336 l 1
 138 28 l 1
EndSplineSet
EndChar

StartChar: Ntilde
Encoding: 209 209 140
Width: 600
Flags: MW
HStem: 0 46<471 478 476 478 476 504> 614 46<122 124 122 122> 718 28<345 377 345 386> 776 28<235 267>
VStem: 96 30<0 433 0 660> 182 22<718 718> 408 22<804 804> 474 30<231 660 0 660>
LayerCount: 2
Fore
SplineSet
96 0 m 1
 96 660 l 1
 129 660 l 1
 403 174 l 1
 476 46 l 1
 478 46 l 1
 477 109 474 169 474 231 c 2
 474 660 l 1
 504 660 l 1
 504 0 l 1
 471 0 l 1
 197 486 l 1
 124 614 l 1
 122 614 l 1
 123 551 126 495 126 433 c 2
 126 0 l 1
 96 0 l 1
364 718 m 0xff
 312 718 288 776 246 776 c 0xdf
 224 776 208 752 204 718 c 1
 182 718 l 1
 184 756 204 804 248 804 c 0
 300 804 324 746 366 746 c 0xff
 388 746 404 770 408 804 c 1
 430 804 l 1xdf
 428 766 408 718 364 718 c 0xff
EndSplineSet
EndChar

StartChar: Ograve
Encoding: 210 210 145
Width: 600
Flags: MW
HStem: -12 30<237.5 362.5 237.5 371> 642 30<237.5 362.5>
VStem: 56 34<237 427 237 436> 510 34<237 427>
LayerCount: 2
Fore
SplineSet
300 -12 m 0
 158 -12 56 124 56 332 c 0
 56 540 158 672 300 672 c 0
 442 672 544 540 544 332 c 0
 544 124 442 -12 300 -12 c 0
300 18 m 0
 425 18 510 142 510 332 c 0
 510 522 425 642 300 642 c 0
 175 642 90 522 90 332 c 0
 90 142 175 18 300 18 c 0
302 710 m 1
 194 814 l 1
 238 814 l 1
 332 710 l 1
 302 710 l 1
EndSplineSet
EndChar

StartChar: Oacute
Encoding: 211 211 146
Width: 600
Flags: MW
HStem: -12 30<237.5 362.5 237.5 371> 642 30<237.5 362.5>
VStem: 56 34<237 427 237 436> 510 34<237 427>
LayerCount: 2
Fore
SplineSet
300 -12 m 0
 158 -12 56 124 56 332 c 0
 56 540 158 672 300 672 c 0
 442 672 544 540 544 332 c 0
 544 124 442 -12 300 -12 c 0
300 18 m 0
 425 18 510 142 510 332 c 0
 510 522 425 642 300 642 c 0
 175 642 90 522 90 332 c 0
 90 142 175 18 300 18 c 0
406 814 m 1
 298 710 l 1
 268 710 l 1
 362 814 l 1
 406 814 l 1
EndSplineSet
EndChar

StartChar: Otilde
Encoding: 213 213 148
Width: 600
Flags: MW
HStem: -12 30<237.5 362.5 237.5 371> 642 30<237.5 362.5> 718 28<339 371 339 380> 776 28<229 261>
VStem: 56 34<237 427 237 436> 176 22<718 718> 402 22<804 804> 510 34<237 427>
LayerCount: 2
Fore
SplineSet
300 -12 m 0
 158 -12 56 124 56 332 c 0
 56 540 158 672 300 672 c 0
 442 672 544 540 544 332 c 0
 544 124 442 -12 300 -12 c 0
300 18 m 0
 425 18 510 142 510 332 c 0
 510 522 425 642 300 642 c 0
 175 642 90 522 90 332 c 0
 90 142 175 18 300 18 c 0
358 718 m 0xff
 306 718 282 776 240 776 c 0xdf
 218 776 202 752 198 718 c 1
 176 718 l 1
 178 756 198 804 242 804 c 0
 294 804 318 746 360 746 c 0xff
 382 746 398 770 402 804 c 1
 424 804 l 1xdf
 422 766 402 718 358 718 c 0xff
EndSplineSet
EndChar

StartChar: Odieresis
Encoding: 214 214 149
Width: 600
Flags: MW
HStem: -12 30<237.5 362.5 237.5 371> 642 30<237.5 362.5> 728 64<215 233 367 385>
VStem: 56 34<237 427 237 436> 192 64<750 770> 344 64<750 770> 510 34<237 427>
LayerCount: 2
Fore
SplineSet
300 -12 m 0
 158 -12 56 124 56 332 c 0
 56 540 158 672 300 672 c 0
 442 672 544 540 544 332 c 0
 544 124 442 -12 300 -12 c 0
300 18 m 0
 425 18 510 142 510 332 c 0
 510 522 425 642 300 642 c 0
 175 642 90 522 90 332 c 0
 90 142 175 18 300 18 c 0
224 728 m 0
 206 728 192 740 192 760 c 0
 192 780 206 792 224 792 c 0
 242 792 256 780 256 760 c 0
 256 740 242 728 224 728 c 0
376 728 m 0
 358 728 344 740 344 760 c 0
 344 780 358 792 376 792 c 0
 394 792 408 780 408 760 c 0
 408 740 394 728 376 728 c 0
EndSplineSet
EndChar

StartChar: multiply
Encoding: 215 215 662
Width: 600
Flags: MW
HStem: 138 384<136 136 136 464>
VStem: 116 368<160 160 160 500>
LayerCount: 2
Fore
SplineSet
136 138 m 1
 116 160 l 1
 280 330 l 1
 116 500 l 1
 136 522 l 1
 300 350 l 1
 464 522 l 1
 484 500 l 1
 320 330 l 1
 484 160 l 1
 464 138 l 1
 300 310 l 1
 136 138 l 1
EndSplineSet
EndChar

StartChar: Oslash
Encoding: 216 216 161
Width: 600
GlyphClass: 2
Flags: MW
HStem: -12 30<271 362.5 271 371> -4 21G<58 58> 642 30<237.5 329> 644 20G<538 538>
VStem: 56 34<288.5 427 288.5 436> 510 34<237 376>
AnchorPoint: "Anchor-0" 298 682 basechar 0
LayerCount: 2
Fore
SplineSet
459 547 m 1xac
 156 93 l 1
 192 45 242 18 300 18 c 0
 425 18 510 142 510 332 c 0
 510 420 492 494 459 547 c 1xac
139 118 m 1
 443 571 l 1
 407 617 358 642 300 642 c 0
 175 642 90 522 90 332 c 0
 90 245 108 171 139 118 c 1
538 664 m 1x9c
 479 575 l 1
 520 517 544 433 544 332 c 0
 544 124 442 -12 300 -12 c 0
 236 -12 180 16 137 66 c 1
 80 -20 l 1x9c
 58 -4 l 1
 120 89 l 1
 80 148 56 232 56 332 c 0
 56 540 158 672 300 672 c 0
 364 672 419 646 461 598 c 1
 516 680 l 1x6c
 538 664 l 1x9c
EndSplineSet
EndChar

StartChar: Uacute
Encoding: 218 218 190
Width: 600
Flags: MW
HStem: -12 30<254 347 254 352> 640 20G<92 124 124 124 478 508 508 508>
VStem: 92 32<246 254 254 660> 478 30<254 660>
LayerCount: 2
Fore
SplineSet
92 246 m 2
 92 660 l 1
 124 660 l 1
 124 254 l 2
 124 72 208 18 300 18 c 0
 394 18 478 72 478 254 c 2
 478 660 l 1
 508 660 l 1
 508 246 l 2
 508 42 404 -12 300 -12 c 0
 196 -12 92 42 92 246 c 2
406 814 m 1
 298 710 l 1
 268 710 l 1
 362 814 l 1
 406 814 l 1
EndSplineSet
EndChar

StartChar: Ucircumflex
Encoding: 219 219 191
Width: 600
Flags: MW
HStem: -12 30<254 347 254 352> 640 20G<92 124 124 124 478 508 508 508> 784 30<298 302 298 298>
VStem: 92 32<246 254 254 660> 478 30<254 660>
LayerCount: 2
Fore
SplineSet
92 246 m 2
 92 660 l 1
 124 660 l 1
 124 254 l 2
 124 72 208 18 300 18 c 0
 394 18 478 72 478 254 c 2
 478 660 l 1
 508 660 l 1
 508 246 l 2
 508 42 404 -12 300 -12 c 0
 196 -12 92 42 92 246 c 2
220 710 m 1
 190 710 l 1
 286 814 l 1
 314 814 l 1
 410 710 l 1
 380 710 l 1
 302 784 l 1
 298 784 l 1
 220 710 l 1
EndSplineSet
EndChar

StartChar: Udieresis
Encoding: 220 220 193
Width: 600
Flags: MW
HStem: -12 30<254 347 254 352> 640 20G<92 124 124 124 478 508 508 508> 728 64<215 233 367 385>
VStem: 92 32<246 254 254 660> 192 64<750 770> 344 64<750 770> 478 30<254 660>
LayerCount: 2
Fore
SplineSet
92 246 m 2
 92 660 l 1
 124 660 l 1
 124 254 l 2
 124 72 208 18 300 18 c 0
 394 18 478 72 478 254 c 2
 478 660 l 1
 508 660 l 1
 508 246 l 2
 508 42 404 -12 300 -12 c 0
 196 -12 92 42 92 246 c 2
224 728 m 0
 206 728 192 740 192 760 c 0
 192 780 206 792 224 792 c 0
 242 792 256 780 256 760 c 0
 256 740 242 728 224 728 c 0
376 728 m 0
 358 728 344 740 344 760 c 0
 344 780 358 792 376 792 c 0
 394 792 408 780 408 760 c 0
 408 740 394 728 376 728 c 0
EndSplineSet
EndChar

StartChar: Thorn
Encoding: 222 222 229
Width: 600
Flags: MW
HStem: 0 21G<124 124 124 156> 172 28<156 284 284 296 156 284> 512 28<156 284 156 296> 512 148<124 284 124 156>
VStem: 124 32<0 172 200 512 540 660> 494 34<303 418>
LayerCount: 2
Fore
SplineSet
124 0 m 1xec
 124 660 l 1
 156 660 l 1xdc
 156 540 l 1
 296 540 l 2
 444 540 528 492 528 360 c 0
 528 234 444 172 296 172 c 2
 156 172 l 1
 156 0 l 1
 124 0 l 1xec
156 200 m 1
 284 200 l 2
 426 200 494 246 494 360 c 0
 494 476 426 512 284 512 c 2
 156 512 l 1xec
 156 200 l 1
EndSplineSet
EndChar

StartChar: germandbls
Encoding: 223 223 363
Width: 600
Flags: MW
HStem: -12 28<380.5 445.5 380.5 447.5> 0 21G<110 110 110 140> 706 28<244.5 325>
VStem: 110 30<0 524 0 538 0 599> 288 32<317 420 317 426> 402 32<554 630> 526 32<95 196>
LayerCount: 2
Fore
SplineSet
110 0 m 1x7e
 110 538 l 2
 110 660 187 734 290 734 c 0
 377 734 434 676 434 602 c 0
 434 498 320 462 320 378 c 0
 320 256 558 294 558 124 c 0
 558 46 491 -12 404 -12 c 0
 347 -12 296 8 257 40 c 1
 276 64 l 1
 318 32 356 16 405 16 c 0xbe
 486 16 526 68 526 122 c 0
 526 270 288 230 288 376 c 0
 288 476 402 508 402 600 c 0
 402 660 362 706 288 706 c 0
 201 706 140 648 140 524 c 2
 140 0 l 1
 110 0 l 1x7e
EndSplineSet
EndChar

StartChar: atilde
Encoding: 227 227 234
Width: 600
Flags: MW
HStem: -12 28<232 298 232 300> 0 21G<474 500 474 474> 462 28<284 380> 582 26<356.5 385 356.5 395.5> 638 26<251 280.5>
VStem: 96 32<81 159 81 170.5> 200 24<582 582> 412 24<664 664> 470 30<74 74 108 272 272 272 298 310 0 340>
LayerCount: 2
Fore
SplineSet
96 117 m 0xaf80
 96 224 206 274 470 298 c 1
 470 382 438 462 322 462 c 0
 246 462 173 422 136 394 c 1
 120 418 l 1
 154 444 238 490 324 490 c 0
 451 490 500 406 500 310 c 2
 500 0 l 1
 474 0 l 1x6f80
 470 74 l 1
 468 74 l 1
 412 29 336 -12 264 -12 c 0
 180 -12 96 26 96 117 c 0xaf80
128 118 m 0
 128 44 198 16 266 16 c 0
 330 16 398 47 470 108 c 1
 470 272 l 1
 212 248 128 200 128 118 c 0
200 582 m 1
 202 618 217 664 264 664 c 0xaf80
 312 664 339 608 374 608 c 0
 396 608 408 630 412 664 c 1
 436 664 l 1
 434 629 419 582 372 582 c 0xbf80
 324 582 299 638 262 638 c 0
 240 638 228 617 224 582 c 1
 200 582 l 1
EndSplineSet
Substitution2: "'ss02' Style Set 2 in Latin lookup 18 subtable" atilde.a
Substitution2: "'aalt' Access All Alternates in Latin lookup 0 subtable" atilde.a
EndChar

StartChar: adieresis
Encoding: 228 228 235
Width: 600
Flags: MW
HStem: -12 28<232 298 232 300> 0 21G<474 500 474 474> 462 28<284 380> 602 72<222 242 394 414>
VStem: 96 32<81 159 81 170.5> 198 68<628 648> 370 68<628 648> 470 30<74 74 108 272 272 272 298 310 0 340>
LayerCount: 2
Fore
SplineSet
96 117 m 0xa9
 96 224 206 274 470 298 c 1
 470 382 438 462 322 462 c 0
 246 462 173 422 136 394 c 1
 120 418 l 1
 154 444 238 490 324 490 c 0
 451 490 500 406 500 310 c 2
 500 0 l 1
 474 0 l 1x69
 470 74 l 1
 468 74 l 1
 412 29 336 -12 264 -12 c 0
 180 -12 96 26 96 117 c 0xa9
128 118 m 0
 128 44 198 16 266 16 c 0
 330 16 398 47 470 108 c 1
 470 272 l 1
 212 248 128 200 128 118 c 0
232 602 m 0xbf
 212 602 198 618 198 638 c 0
 198 658 212 674 232 674 c 0
 252 674 266 658 266 638 c 0
 266 618 252 602 232 602 c 0xbf
404 602 m 0
 384 602 370 618 370 638 c 0
 370 658 384 674 404 674 c 0
 424 674 438 658 438 638 c 0
 438 618 424 602 404 602 c 0
EndSplineSet
Substitution2: "'ss02' Style Set 2 in Latin lookup 18 subtable" adieresis.a
Substitution2: "'aalt' Access All Alternates in Latin lookup 0 subtable" adieresis.a
EndChar

StartChar: aring
Encoding: 229 229 238
Width: 600
Flags: MW
HStem: -12 28<232 298 232 300> 0 21G<474 500 474 474> 462 28<284 380> 538 22<303 333 303 340> 684 22<303 333>
VStem: 96 32<81 159 81 170.5> 240 24<603 641 603 647> 372 24<603 641> 470 30<74 74 108 272 272 272 298 310 0 340>
LayerCount: 2
Fore
SplineSet
96 117 m 0xbf80
 96 224 206 274 470 298 c 1
 470 382 438 462 322 462 c 0
 246 462 173 422 136 394 c 1
 120 418 l 1
 154 444 238 490 324 490 c 0
 451 490 500 406 500 310 c 2
 500 0 l 1
 474 0 l 1x7f80
 470 74 l 1
 468 74 l 1
 412 29 336 -12 264 -12 c 0
 180 -12 96 26 96 117 c 0xbf80
128 118 m 0
 128 44 198 16 266 16 c 0
 330 16 398 47 470 108 c 1
 470 272 l 1
 212 248 128 200 128 118 c 0
318 538 m 0
 274 538 240 572 240 622 c 0
 240 672 274 706 318 706 c 0
 362 706 396 672 396 622 c 0
 396 572 362 538 318 538 c 0
318 560 m 0
 348 560 372 584 372 622 c 0
 372 660 348 684 318 684 c 0
 288 684 264 660 264 622 c 0
 264 584 288 560 318 560 c 0
EndSplineSet
Substitution2: "'ss02' Style Set 2 in Latin lookup 18 subtable" aring.a
Substitution2: "'aalt' Access All Alternates in Latin lookup 0 subtable" aring.a
EndChar

StartChar: ae
Encoding: 230 230 253
Width: 600
Flags: MW
HStem: -12 27<116 168 116 169.5 426.5 485> 238 26<316 570 316 598 315 570> 462 28<425.5 501>
VStem: 17 32<85.5 160.5 85.5 168> 284 32<264 264 264 272 264 272> 570 30<276 317>
LayerCount: 2
Fore
SplineSet
17 122 m 0
 17 214 109 276 284 298 c 1
 285 392 257 463 174 463 c 0
 132 463 78 438 50 417 c 1
 36 440 l 1
 65 460 120 490 183 490 c 0
 251 490 294 438 308 372 c 1
 338 444 391 490 460 490 c 0
 556 490 600 392 600 282 c 0
 600 270 600 258 598 238 c 1
 315 238 l 1
 314 111 360 15 462 15 c 0
 508 15 545 33 573 50 c 1
 586 28 l 1
 557 10 518 -12 461 -12 c 0
 392 -12 344 26 314 90 c 1
 258 27 197 -12 142 -12 c 0
 71 -12 17 31 17 122 c 0
316 264 m 1
 570 264 l 1
 570 370 544 462 458 462 c 0
 373 462 320 384 316 264 c 1
49 120 m 0
 49 51 87 15 145 15 c 0
 191 15 254 51 302 116 c 1
 291 152 284 196 284 244 c 2
 284 272 l 1
 116 247 49 201 49 120 c 0
EndSplineSet
EndChar

StartChar: ccedilla
Encoding: 231 231 255
Width: 600
Flags: MW
HStem: -206 26<273 279> -12 28<332 332 360 360> 462 28<281 379>
VStem: 90 32<172 304 172 318> 367 30<-142 -112>
LayerCount: 2
Fore
SplineSet
360 -12 m 1
 337 -56 l 1
 369 -66 397 -84 397 -124 c 0
 397 -174 339 -198 279 -206 c 1
 273 -180 l 1
 329 -172 367 -156 367 -128 c 0
 367 -96 337 -84 299 -74 c 1
 332 -12 l 1
 192 -5 90 86 90 238 c 0
 90 398 206 490 348 490 c 0
 429 490 480 454 519 416 c 1
 499 394 l 1
 458 434 410 462 348 462 c 0
 214 462 122 370 122 238 c 0
 122 106 212 16 348 16 c 0
 415 16 470 46 514 88 c 1
 532 66 l 1
 487 22 430 -9 360 -12 c 1
EndSplineSet
EndChar

StartChar: eacute
Encoding: 233 233 265
Width: 600
Flags: MW
HStem: -12 28<266 365 266 373.5> 238 28<112 500 112 528 112 500> 462 28<267.5 372>
VStem: 80 32<174 238 174 266 174 316> 500 30<266 331>
LayerCount: 2
Fore
SplineSet
80 238 m 0
 80 394 197 490 318 490 c 0
 446 490 530 408 530 270 c 0
 530 260 530 250 528 238 c 1
 112 238 l 1
 112 110 200 16 332 16 c 0
 398 16 451 38 496 70 c 1
 510 44 l 1
 468 17 417 -12 330 -12 c 0
 194 -12 80 82 80 238 c 0
112 266 m 1
 500 266 l 1
 500 396 426 462 318 462 c 0
 217 462 126 386 112 266 c 1
396 706 m 1
 292 572 l 1
 264 572 l 1
 356 706 l 1
 396 706 l 1
EndSplineSet
Substitution2: "'sups' Superscript in Latin lookup 12 subtable" eacute.sups
Substitution2: "'aalt' Access All Alternates in Latin lookup 0 subtable" eacute.sups
EndChar

StartChar: edieresis
Encoding: 235 235 268
Width: 600
Flags: MW
HStem: -12 28<266 365 266 373.5> 238 28<112 500 112 528 112 500> 462 28<267.5 372> 602 72<221 241 393 413>
VStem: 80 32<174 238 174 266 174 316> 197 68<628 648> 369 68<628 648> 500 30<266 331>
LayerCount: 2
Fore
SplineSet
80 238 m 0
 80 394 197 490 318 490 c 0
 446 490 530 408 530 270 c 0
 530 260 530 250 528 238 c 1
 112 238 l 1
 112 110 200 16 332 16 c 0
 398 16 451 38 496 70 c 1
 510 44 l 1
 468 17 417 -12 330 -12 c 0
 194 -12 80 82 80 238 c 0
112 266 m 1
 500 266 l 1
 500 396 426 462 318 462 c 0
 217 462 126 386 112 266 c 1
231 602 m 0
 211 602 197 618 197 638 c 0
 197 658 211 674 231 674 c 0
 251 674 265 658 265 638 c 0
 265 618 251 602 231 602 c 0
403 602 m 0
 383 602 369 618 369 638 c 0
 369 658 383 674 403 674 c 0
 423 674 437 658 437 638 c 0
 437 618 423 602 403 602 c 0
EndSplineSet
EndChar

StartChar: igrave
Encoding: 236 236 292
Width: 600
Flags: MW
HStem: 0 21G<346 376 346 346> 450 28<100 376 100 346>
VStem: 346 30<0 450 450 450>
LayerCount: 2
Fore
SplineSet
100 450 m 1
 100 478 l 1
 376 478 l 1
 376 0 l 1
 346 0 l 1
 346 450 l 1
 100 450 l 1
374 572 m 1
 270 706 l 1
 310 706 l 1
 402 572 l 1
 374 572 l 1
EndSplineSet
EndChar

StartChar: iacute
Encoding: 237 237 293
Width: 600
Flags: MW
HStem: 0 21G<346 376 346 346> 450 28<100 376 100 346>
VStem: 346 30<0 450 450 450>
LayerCount: 2
Fore
SplineSet
100 450 m 1
 100 478 l 1
 376 478 l 1
 376 0 l 1
 346 0 l 1
 346 450 l 1
 100 450 l 1
430 706 m 1
 326 572 l 1
 298 572 l 1
 390 706 l 1
 430 706 l 1
EndSplineSet
EndChar

StartChar: icircumflex
Encoding: 238 238 294
Width: 600
Flags: MW
HStem: 0 21G<346 376 346 346> 450 28<100 376 100 346> 674 32<348 352 348 348>
VStem: 346 30<0 450 450 450>
LayerCount: 2
Fore
SplineSet
100 450 m 1
 100 478 l 1
 376 478 l 1
 376 0 l 1
 346 0 l 1
 346 450 l 1
 100 450 l 1
242 572 m 1
 336 706 l 1
 364 706 l 1
 458 572 l 1
 430 572 l 1
 352 674 l 1
 348 674 l 1
 270 572 l 1
 242 572 l 1
EndSplineSet
EndChar

StartChar: idieresis
Encoding: 239 239 296
Width: 600
Flags: MW
HStem: 0 21G<346 376 346 346> 450 28<100 376 100 346> 602 72<254 274 426 446>
VStem: 230 68<628 648> 346 30<0 450 450 450> 402 68<628 648>
LayerCount: 2
Fore
SplineSet
100 450 m 1
 100 478 l 1
 376 478 l 1
 376 0 l 1
 346 0 l 1
 346 450 l 1
 100 450 l 1
264 602 m 0
 244 602 230 618 230 638 c 0
 230 658 244 674 264 674 c 0
 284 674 298 658 298 638 c 0
 298 618 284 602 264 602 c 0
436 602 m 0xfc
 416 602 402 618 402 638 c 0
 402 658 416 674 436 674 c 0
 456 674 470 658 470 638 c 0
 470 618 456 602 436 602 c 0xfc
EndSplineSet
EndChar

StartChar: eth
Encoding: 240 240 409
Width: 600
Flags: MW
HStem: -12 28<245.5 367> 412 28<234 332.5> 702 20G<206 206>
VStem: 70 32<159 269 159 283> 492 32<186 259.5>
LayerCount: 2
Fore
SplineSet
300 16 m 0
 437 16 492 122 492 250 c 0
 492 269 491 287 490 304 c 1
 435 383 363 412 302 412 c 0
 166 412 102 320 102 218 c 0
 102 100 191 16 300 16 c 0
502 678 m 1
 377 613 l 1
 466 531 524 418 524 250 c 0
 524 90 434 -12 300 -12 c 0
 181 -12 70 74 70 218 c 0
 70 348 160 440 304 440 c 0
 375 440 442 400 485 348 c 1
 468 462 419 539 350 599 c 1
 200 520 l 1
 188 542 l 1
 329 616 l 1
 288 648 241 675 190 700 c 1
 206 722 l 1
 261 696 312 667 357 630 c 1
 490 700 l 1
 502 678 l 1
EndSplineSet
EndChar

StartChar: ntilde
Encoding: 241 241 319
Width: 600
Flags: MW
HStem: 0 21G<110 110 110 140 480 480 480 510> 458 20G<110 136 136 136> 462 28<300 386.5> 582 26<358.5 387 358.5 397.5> 638 26<253 282.5>
VStem: 110 30<0 346> 202 24<582 582> 414 24<664 664> 480 30<0 294 294 298 0 350.5>
LayerCount: 2
Fore
SplineSet
110 0 m 1xaf80
 110 478 l 1
 136 478 l 1xcf80
 140 382 l 1
 144 382 l 1
 201 444 258 490 336 490 c 0
 453 490 510 429 510 298 c 2
 510 0 l 1
 480 0 l 1
 480 294 l 2
 480 407 437 462 336 462 c 0
 264 462 214 424 140 346 c 1
 140 0 l 1
 110 0 l 1xaf80
202 582 m 1
 204 618 219 664 266 664 c 0xaf80
 314 664 341 608 376 608 c 0
 398 608 410 630 414 664 c 1
 438 664 l 1
 436 629 421 582 374 582 c 0xbf80
 326 582 301 638 264 638 c 0
 242 638 230 617 226 582 c 1
 202 582 l 1
EndSplineSet
EndChar

StartChar: ocircumflex
Encoding: 244 244 327
Width: 600
Flags: MW
HStem: -12 28<243 357 243 362.5> 462 28<243 357> 674 32<298 302 298 298>
VStem: 70 32<172 304 172 318> 498 32<172 304>
LayerCount: 2
Fore
SplineSet
70 238 m 0
 70 398 175 490 300 490 c 0
 425 490 530 398 530 238 c 0
 530 80 425 -12 300 -12 c 0
 175 -12 70 80 70 238 c 0
102 238 m 0
 102 106 186 16 300 16 c 0
 414 16 498 106 498 238 c 0
 498 370 414 462 300 462 c 0
 186 462 102 370 102 238 c 0
192 572 m 1
 286 706 l 1
 314 706 l 1
 408 572 l 1
 380 572 l 1
 302 674 l 1
 298 674 l 1
 220 572 l 1
 192 572 l 1
EndSplineSet
MultipleSubs2: "Multiple Substitution lookup 2 subtable" o uni0302
EndChar

StartChar: otilde
Encoding: 245 245 328
Width: 600
Flags: MW
HStem: -12 28<243 357 243 362.5> 462 28<243 357> 582 26<338.5 367 338.5 377.5> 638 26<233 262.5>
VStem: 70 32<172 304 172 318> 182 24<582 582> 394 24<664 664> 498 32<172 304>
LayerCount: 2
Fore
SplineSet
70 238 m 0
 70 398 175 490 300 490 c 0
 425 490 530 398 530 238 c 0
 530 80 425 -12 300 -12 c 0
 175 -12 70 80 70 238 c 0
102 238 m 0
 102 106 186 16 300 16 c 0
 414 16 498 106 498 238 c 0
 498 370 414 462 300 462 c 0
 186 462 102 370 102 238 c 0
182 582 m 1
 184 618 199 664 246 664 c 0xdf
 294 664 321 608 356 608 c 0
 378 608 390 630 394 664 c 1
 418 664 l 1
 416 629 401 582 354 582 c 0xff
 306 582 281 638 244 638 c 0
 222 638 210 617 206 582 c 1
 182 582 l 1
EndSplineSet
EndChar

StartChar: odieresis
Encoding: 246 246 329
Width: 600
Flags: MW
HStem: -12 28<243 357 243 362.5> 462 28<243 357> 602 72<204 224 376 396>
VStem: 70 32<172 304 172 318> 180 68<628 648> 352 68<628 648> 498 32<172 304>
LayerCount: 2
Fore
SplineSet
70 238 m 0
 70 398 175 490 300 490 c 0
 425 490 530 398 530 238 c 0
 530 80 425 -12 300 -12 c 0
 175 -12 70 80 70 238 c 0
102 238 m 0
 102 106 186 16 300 16 c 0
 414 16 498 106 498 238 c 0
 498 370 414 462 300 462 c 0
 186 462 102 370 102 238 c 0
214 602 m 0
 194 602 180 618 180 638 c 0
 180 658 194 674 214 674 c 0
 234 674 248 658 248 638 c 0
 248 618 234 602 214 602 c 0
386 602 m 0
 366 602 352 618 352 638 c 0
 352 658 366 674 386 674 c 0
 406 674 420 658 420 638 c 0
 420 618 406 602 386 602 c 0
EndSplineSet
EndChar

StartChar: divide
Encoding: 247 247 663
Width: 600
Flags: MW
HStem: 114 70<291 309> 316 28<98 502 98 502> 474 70<291 309>
VStem: 268 64<139 160 499 520>
LayerCount: 2
Fore
SplineSet
300 474 m 0
 282 474 268 488 268 510 c 0
 268 530 282 544 300 544 c 0
 318 544 332 530 332 510 c 0
 332 488 318 474 300 474 c 0
268 150 m 0
 268 170 282 184 300 184 c 0
 318 184 332 170 332 150 c 0
 332 128 318 114 300 114 c 0
 282 114 268 128 268 150 c 0
98 316 m 1
 98 344 l 1
 502 344 l 1
 502 316 l 1
 98 316 l 1
EndSplineSet
EndChar

StartChar: oslash
Encoding: 248 248 341
Width: 600
GlyphClass: 2
Flags: MW
HStem: -12 28<274.5 357 274.5 362.5> -4 20 460 20G<530 530> 462 28<243 326>
VStem: 70 32<207.5 304 207.5 318> 498 32<172 268>
AnchorPoint: "Anchor-0" 300 500 basechar 0
LayerCount: 2
Fore
SplineSet
451 389 m 1x9c
 169 66 l 1
 203 34 249 16 300 16 c 0
 414 16 498 106 498 238 c 0
 498 298 480 350 451 389 c 1x9c
150 87 m 1
 431 410 l 1
 397 443 352 462 300 462 c 0
 186 462 102 370 102 238 c 0
 102 177 120 126 150 87 c 1
530 480 m 1xac
 472 413 l 1
 508 371 530 312 530 238 c 0
 530 80 425 -12 300 -12 c 0
 243 -12 190 7 149 43 c 1
 92 -22 l 1xac
 70 -4 l 1
 129 64 l 1
 92 106 70 165 70 238 c 0
 70 398 175 490 300 490 c 0
 358 490 411 470 452 434 c 1
 508 498 l 1x5c
 530 480 l 1xac
EndSplineSet
EndChar

StartChar: ugrave
Encoding: 249 249 370
Width: 600
Flags: MW
HStem: -12 28<213.5 300 213.5 303> 0 21G<464 490 464 464> 458 20G<90 120 120 120 460 490 490 490>
VStem: 90 30<180 184 184 478> 460 30<96 96 132 478 0 478>
LayerCount: 2
Fore
SplineSet
490 478 m 1xb8
 490 0 l 1
 464 0 l 1x78
 460 96 l 1
 456 96 l 1
 403 34 342 -12 264 -12 c 0
 147 -12 90 49 90 180 c 2
 90 478 l 1
 120 478 l 1
 120 184 l 2
 120 71 163 16 264 16 c 0
 336 16 390 53 460 132 c 1
 460 478 l 1
 490 478 l 1xb8
318 572 m 1
 214 706 l 1
 254 706 l 1
 346 572 l 1
 318 572 l 1
EndSplineSet
EndChar

StartChar: uacute
Encoding: 250 250 371
Width: 600
Flags: MW
HStem: -12 28<213.5 300 213.5 303> 0 21G<464 490 464 464> 458 20G<90 120 120 120 460 490 490 490>
VStem: 90 30<180 184 184 478> 460 30<96 96 132 478 0 478>
LayerCount: 2
Fore
SplineSet
490 478 m 1xb8
 490 0 l 1
 464 0 l 1x78
 460 96 l 1
 456 96 l 1
 403 34 342 -12 264 -12 c 0
 147 -12 90 49 90 180 c 2
 90 478 l 1
 120 478 l 1
 120 184 l 2
 120 71 163 16 264 16 c 0
 336 16 390 53 460 132 c 1
 460 478 l 1
 490 478 l 1xb8
374 706 m 1
 270 572 l 1
 242 572 l 1
 334 706 l 1
 374 706 l 1
EndSplineSet
EndChar

StartChar: ucircumflex
Encoding: 251 251 372
Width: 600
Flags: MW
HStem: -12 28<213.5 300 213.5 303> 0 21G<464 490 464 464> 458 20G<90 120 120 120 460 490 490 490> 674 32<292 296 292 292>
VStem: 90 30<180 184 184 478> 460 30<96 96 132 478 0 478>
LayerCount: 2
Fore
SplineSet
490 478 m 1xbc
 490 0 l 1
 464 0 l 1x7c
 460 96 l 1
 456 96 l 1
 403 34 342 -12 264 -12 c 0
 147 -12 90 49 90 180 c 2
 90 478 l 1
 120 478 l 1
 120 184 l 2
 120 71 163 16 264 16 c 0
 336 16 390 53 460 132 c 1
 460 478 l 1
 490 478 l 1xbc
186 572 m 1
 280 706 l 1
 308 706 l 1
 402 572 l 1
 374 572 l 1
 296 674 l 1
 292 674 l 1
 214 572 l 1
 186 572 l 1
EndSplineSet
EndChar

StartChar: udieresis
Encoding: 252 252 374
Width: 600
Flags: MW
HStem: -12 28<213.5 300 213.5 303> 0 21G<464 490 464 464> 458 20G<90 120 120 120 460 490 490 490> 602 72<198 218 370 390>
VStem: 90 30<180 184 184 478> 174 68<628 648> 346 68<628 648> 460 30<96 96 132 478 0 478>
LayerCount: 2
Fore
SplineSet
490 478 m 1xb9
 490 0 l 1
 464 0 l 1x7f
 460 96 l 1
 456 96 l 1
 403 34 342 -12 264 -12 c 0
 147 -12 90 49 90 180 c 2
 90 478 l 1
 120 478 l 1
 120 184 l 2
 120 71 163 16 264 16 c 0
 336 16 390 53 460 132 c 1
 460 478 l 1
 490 478 l 1xb9
208 602 m 0
 188 602 174 618 174 638 c 0
 174 658 188 674 208 674 c 0
 228 674 242 658 242 638 c 0
 242 618 228 602 208 602 c 0
380 602 m 0
 360 602 346 618 346 638 c 0
 346 658 360 674 380 674 c 0
 400 674 414 658 414 638 c 0
 414 618 400 602 380 602 c 0
EndSplineSet
EndChar

StartChar: thorn
Encoding: 254 254 410
Width: 600
GlyphClass: 2
Flags: MW
HStem: -222 21G<110 140 110 110> -12 28<285.5 361 285.5 363.5> 462 28<295.5 384.5> 702 20G<110 140 140 140>
VStem: 110 30<-222 -42 -42 58 92 368 498 722> 498 32<179 307>
AnchorPoint: "Anchor-2" 306 -22 basechar 0
AnchorPoint: "Anchor-0" 128 730 basechar 0
LayerCount: 2
Fore
SplineSet
140 -42 m 1
 140 -222 l 1
 110 -222 l 1
 110 722 l 1
 140 722 l 1
 140 498 l 1
 138 402 l 1
 192 454 260 490 324 490 c 0
 461 490 530 394 530 246 c 0
 530 84 423 -12 304 -12 c 0
 255 -12 192 14 140 58 c 1
 140 -42 l 1
140 92 m 1
 200 37 265 16 306 16 c 0
 416 16 498 112 498 246 c 0
 498 368 447 462 322 462 c 0
 269 462 204 432 140 368 c 1
 140 92 l 1
EndSplineSet
EndChar

StartChar: ydieresis
Encoding: 255 255 400
Width: 600
Flags: MW
HStem: -222 30<116 163.5 116 171> 458 20G<64 96 96 96 506 536 536 536> 602 72<206 226 378 398>
VStem: 182 68<628 648> 354 68<628 648>
LayerCount: 2
Fore
SplineSet
77 -184 m 1
 89 -188 107 -192 125 -192 c 0
 202 -192 251 -134 282 -56 c 2
 300 -12 l 1
 64 478 l 1
 96 478 l 1
 244 164 l 2
 263 124 288 72 312 30 c 1
 316 30 l 1
 336 72 357 124 374 164 c 2
 506 478 l 1
 536 478 l 1
 306 -68 l 1
 280 -142 220 -222 122 -222 c 0
 104 -222 80 -218 67 -212 c 1
 77 -184 l 1
216 602 m 0
 196 602 182 618 182 638 c 0
 182 658 196 674 216 674 c 0
 236 674 250 658 250 638 c 0
 250 618 236 602 216 602 c 0
388 602 m 0
 368 602 354 618 354 638 c 0
 354 658 368 674 388 674 c 0
 408 674 422 658 422 638 c 0
 422 618 408 602 388 602 c 0
EndSplineSet
EndChar

StartChar: Amacron
Encoding: 256 256 59
Width: 600
Flags: MW
HStem: 0 21G<50 82 50 50 516 550 516 516> 236 28<175 424 175 434 165 424> 626 34<298 302 298 298> 736 28<190 410 190 410>
VStem: 50 500<0 0>
LayerCount: 2
Fore
SplineSet
410 764 m 1
 410 736 l 1
 190 736 l 1
 190 764 l 1
 410 764 l 1
175 264 m 1
 424 264 l 1
 378 396 l 2
 350 476 326 544 302 626 c 1
 298 626 l 1
 274 544 250 476 222 396 c 2
 175 264 l 1
516 0 m 1
 434 236 l 1
 165 236 l 1
 82 0 l 1
 50 0 l 1
 286 660 l 1
 314 660 l 1
 550 0 l 1
 516 0 l 1
EndSplineSet
EndChar

StartChar: Abreve
Encoding: 258 258 60
Width: 600
Flags: MW
HStem: 0 21G<50 82 50 50 516 550 516 516> 236 28<175 424 175 434 165 424> 626 34<298 302 298 298> 712 26<273 327 273 337>
VStem: 188 26<814 814>
LayerCount: 2
Fore
SplineSet
386 814 m 1
 412 814 l 1
 406 772 374 712 300 712 c 0
 226 712 194 772 188 814 c 1
 214 814 l 1
 220 778 246 738 300 738 c 0
 354 738 380 778 386 814 c 1
175 264 m 1
 424 264 l 1
 378 396 l 2
 350 476 326 544 302 626 c 1
 298 626 l 1
 274 544 250 476 222 396 c 2
 175 264 l 1
516 0 m 1
 434 236 l 1
 165 236 l 1
 82 0 l 1
 50 0 l 1
 286 660 l 1
 314 660 l 1
 550 0 l 1
 516 0 l 1
EndSplineSet
EndChar

StartChar: abreve
Encoding: 259 259 237
Width: 600
Flags: MW
HStem: -12 28<232 298 232 300> 0 21G<474 500 474 474> 462 28<284 380> 576 26<290 346 290 358>
VStem: 96 32<81 159 81 170.5> 202 26<692 692> 408 26<692 692> 470 30<74 74 108 272 272 272 298 310 0 340>
LayerCount: 2
Fore
SplineSet
96 117 m 0xb9
 96 224 206 274 470 298 c 1
 470 382 438 462 322 462 c 0
 246 462 173 422 136 394 c 1
 120 418 l 1
 154 444 238 490 324 490 c 0
 451 490 500 406 500 310 c 2
 500 0 l 1
 474 0 l 1x79
 470 74 l 1
 468 74 l 1
 412 29 336 -12 264 -12 c 0
 180 -12 96 26 96 117 c 0xb9
128 118 m 0
 128 44 198 16 266 16 c 0
 330 16 398 47 470 108 c 1
 470 272 l 1
 212 248 128 200 128 118 c 0
318 576 m 0xbf
 238 576 208 644 202 692 c 1
 228 692 l 1
 234 648 262 602 318 602 c 0
 374 602 402 648 408 692 c 1
 434 692 l 1
 428 644 398 576 318 576 c 0xbf
EndSplineSet
Substitution2: "'ss02' Style Set 2 in Latin lookup 18 subtable" abreve.a
Substitution2: "'aalt' Access All Alternates in Latin lookup 0 subtable" abreve.a
EndChar

StartChar: Aogonek
Encoding: 260 260 75
Width: 600
GlyphClass: 2
Flags: MW
HStem: -202 28<517 538> 0 21G<50 82 50 50 516 518 516 516 550 550> 236 28<175 424 175 434 165 424> 626 34<298 302 298 298>
VStem: 448 30<-138 -99 -138 -98>
AnchorPoint: "Anchor-0" 300 682 basechar 0
LayerCount: 2
Fore
SplineSet
175 264 m 1
 424 264 l 1
 378 396 l 2
 350 476 326 544 302 626 c 1
 298 626 l 1
 274 544 250 476 222 396 c 2
 175 264 l 1
574 -160 m 1
 588 -180 l 1
 574 -192 548 -202 528 -202 c 0
 484 -202 448 -176 448 -122 c 0
 448 -74 482 -26 518 0 c 1
 516 0 l 1
 434 236 l 1
 165 236 l 1
 82 0 l 1
 50 0 l 1
 286 660 l 1
 314 660 l 1
 550 0 l 1
 510 -30 478 -78 478 -120 c 0
 478 -156 504 -174 530 -174 c 0
 548 -174 560 -170 574 -160 c 1
EndSplineSet
Ligature2: "'ccmp' Glyph Composition/Decomposition in Latin lookup 6 subtable" A uni0328
EndChar

StartChar: aogonek
Encoding: 261 261 252
Width: 600
GlyphClass: 2
Flags: MW
HStem: -202 28<451 472> -12 28<232 298 232 300> 0 21G<500 500> 462 28<284 380>
VStem: 96 32<81 159 81 170.5> 384 30<-138 -98 -138 -97> 470 30<74 74 108 272 272 272 298 310 0 340>
AnchorPoint: "Anchor-0" 318 500 basechar 0
LayerCount: 2
Fore
SplineSet
96 117 m 0xde
 96 224 206 274 470 298 c 1
 470 382 438 462 322 462 c 0
 246 462 173 422 136 394 c 1
 120 418 l 1
 154 444 238 490 324 490 c 0
 451 490 500 406 500 310 c 2
 500 0 l 1xbe
 452 -26 414 -76 414 -120 c 0
 414 -156 438 -174 464 -174 c 0
 482 -174 494 -170 508 -160 c 1
 522 -180 l 1
 508 -192 482 -202 462 -202 c 0
 418 -202 384 -176 384 -122 c 0
 384 -72 424 -22 474 8 c 1
 470 74 l 1
 468 74 l 1
 412 29 336 -12 264 -12 c 0
 180 -12 96 26 96 117 c 0xde
128 118 m 0
 128 44 198 16 266 16 c 0
 330 16 398 47 470 108 c 1
 470 272 l 1
 212 248 128 200 128 118 c 0
EndSplineSet
Substitution2: "'ss02' Style Set 2 in Latin lookup 18 subtable" aogonek.a
Ligature2: "'ccmp' Glyph Composition/Decomposition in Latin lookup 6 subtable" a uni0328
Substitution2: "'aalt' Access All Alternates in Latin lookup 0 subtable" aogonek.a
EndChar

StartChar: Cacute
Encoding: 262 262 79
Width: 600
Flags: MW
HStem: -12 30<275 384 275 390> 642 30<277 384>
VStem: 74 34<237 427 237 436>
LayerCount: 2
Fore
SplineSet
74 332 m 0
 74 540 185 672 353 672 c 0
 429 672 487 634 521 594 c 1
 501 572 l 1
 465 614 415 642 353 642 c 0
 201 642 108 522 108 332 c 0
 108 142 201 18 349 18 c 0
 419 18 471 46 521 102 c 1
 541 82 l 1
 491 24 433 -12 347 -12 c 0
 185 -12 74 124 74 332 c 0
448 814 m 1
 340 710 l 1
 310 710 l 1
 404 814 l 1
 448 814 l 1
EndSplineSet
EndChar

StartChar: Ccircumflex
Encoding: 264 264 80
Width: 600
Flags: MW
HStem: -12 30<275 384 275 390> 642 30<277 384> 784 30<340 344 340 340>
VStem: 74 34<237 427 237 436>
LayerCount: 2
Fore
SplineSet
74 332 m 0
 74 540 185 672 353 672 c 0
 429 672 487 634 521 594 c 1
 501 572 l 1
 465 614 415 642 353 642 c 0
 201 642 108 522 108 332 c 0
 108 142 201 18 349 18 c 0
 419 18 471 46 521 102 c 1
 541 82 l 1
 491 24 433 -12 347 -12 c 0
 185 -12 74 124 74 332 c 0
262 710 m 1
 232 710 l 1
 328 814 l 1
 356 814 l 1
 452 710 l 1
 422 710 l 1
 344 784 l 1
 340 784 l 1
 262 710 l 1
EndSplineSet
EndChar

StartChar: ccircumflex
Encoding: 265 265 257
Width: 600
Flags: MW
HStem: -12 28<280 381.5 280 386> 462 28<281 379> 674 32<343 347 343 343>
VStem: 90 32<172 304 172 318>
LayerCount: 2
Fore
SplineSet
90 238 m 0
 90 398 206 490 348 490 c 0
 429 490 480 454 519 416 c 1
 499 394 l 1
 458 434 410 462 348 462 c 0
 214 462 122 370 122 238 c 0
 122 106 212 16 348 16 c 0
 415 16 470 46 514 88 c 1
 532 66 l 1
 484 20 424 -12 348 -12 c 0
 200 -12 90 80 90 238 c 0
237 572 m 1
 331 706 l 1
 359 706 l 1
 453 572 l 1
 425 572 l 1
 347 674 l 1
 343 674 l 1
 265 572 l 1
 237 572 l 1
EndSplineSet
EndChar

StartChar: Cdotaccent
Encoding: 266 266 82
Width: 600
Flags: MW
HStem: -12 30<275 384 275 390> 642 30<277 384> 724 70<333 351>
VStem: 74 34<237 427 237 436> 308 68<749 770>
LayerCount: 2
Fore
SplineSet
74 332 m 0
 74 540 185 672 353 672 c 0
 429 672 487 634 521 594 c 1
 501 572 l 1
 465 614 415 642 353 642 c 0
 201 642 108 522 108 332 c 0
 108 142 201 18 349 18 c 0
 419 18 471 46 521 102 c 1
 541 82 l 1
 491 24 433 -12 347 -12 c 0
 185 -12 74 124 74 332 c 0
342 724 m 0
 324 724 308 738 308 760 c 0
 308 780 324 794 342 794 c 0
 360 794 376 780 376 760 c 0
 376 738 360 724 342 724 c 0
EndSplineSet
EndChar

StartChar: cdotaccent
Encoding: 267 267 259
Width: 600
Flags: MW
HStem: -12 28<280 381.5 280 386> 462 28<281 379> 600 84<334 356>
VStem: 90 32<172 304 172 318> 305 80<629 655>
LayerCount: 2
Fore
SplineSet
90 238 m 0
 90 398 206 490 348 490 c 0
 429 490 480 454 519 416 c 1
 499 394 l 1
 458 434 410 462 348 462 c 0
 214 462 122 370 122 238 c 0
 122 106 212 16 348 16 c 0
 415 16 470 46 514 88 c 1
 532 66 l 1
 484 20 424 -12 348 -12 c 0
 200 -12 90 80 90 238 c 0
345 600 m 0
 323 600 305 616 305 642 c 0
 305 668 323 684 345 684 c 0
 367 684 385 668 385 642 c 0
 385 616 367 600 345 600 c 0
EndSplineSet
EndChar

StartChar: Ccaron
Encoding: 268 268 81
Width: 600
Flags: MW
HStem: -12 30<275 384 275 390> 642 30<277 384> 710 30<340 344 340 356 328 344>
VStem: 74 34<237 427 237 436>
LayerCount: 2
Fore
SplineSet
74 332 m 0
 74 540 185 672 353 672 c 0
 429 672 487 634 521 594 c 1
 501 572 l 1
 465 614 415 642 353 642 c 0
 201 642 108 522 108 332 c 0
 108 142 201 18 349 18 c 0
 419 18 471 46 521 102 c 1
 541 82 l 1
 491 24 433 -12 347 -12 c 0
 185 -12 74 124 74 332 c 0
422 814 m 1
 452 814 l 1
 356 710 l 1
 328 710 l 1
 232 814 l 1
 262 814 l 1
 340 740 l 1
 344 740 l 1
 422 814 l 1
EndSplineSet
EndChar

StartChar: ccaron
Encoding: 269 269 258
Width: 600
Flags: MW
HStem: -12 28<280 381.5 280 386> 462 28<281 379> 572 32<331 347 343 347 343 359>
VStem: 90 32<172 304 172 318>
LayerCount: 2
Fore
SplineSet
90 238 m 0
 90 398 206 490 348 490 c 0
 429 490 480 454 519 416 c 1
 499 394 l 1
 458 434 410 462 348 462 c 0
 214 462 122 370 122 238 c 0
 122 106 212 16 348 16 c 0
 415 16 470 46 514 88 c 1
 532 66 l 1
 484 20 424 -12 348 -12 c 0
 200 -12 90 80 90 238 c 0
331 572 m 1
 237 706 l 1
 265 706 l 1
 343 604 l 1
 347 604 l 1
 425 706 l 1
 453 706 l 1
 359 572 l 1
 331 572 l 1
EndSplineSet
EndChar

StartChar: Dcaron
Encoding: 270 270 83
Width: 600
Flags: MW
HStem: 0 28<132 244 244 248> 632 28<132 244 132 132> 710 30<298 302 298 314 286 302>
VStem: 100 32<28 28 28 632> 510 34<245 419>
LayerCount: 2
Fore
SplineSet
100 0 m 1
 100 660 l 1
 248 660 l 2
 452 660 544 528 544 332 c 0
 544 136 452 0 248 0 c 2
 100 0 l 1
132 28 m 1
 244 28 l 2
 432 28 510 158 510 332 c 0
 510 506 432 632 244 632 c 2
 132 632 l 1
 132 28 l 1
380 814 m 1
 410 814 l 1
 314 710 l 1
 286 710 l 1
 190 814 l 1
 220 814 l 1
 298 740 l 1
 302 740 l 1
 380 814 l 1
EndSplineSet
EndChar

StartChar: dcaron
Encoding: 271 271 260
Width: 600
GlyphClass: 3
Flags: MW
HStem: -12 28<227 313.5 227 317> 0 21G<464 490 464 464> 462 28<242 322.5> 702 20G<460 490 490 490>
VStem: 70 32<172 300 172 315> 460 30<74 74 110 386 386 386 520 722 0 722> 538 29
LayerCount: 2
Fore
SplineSet
70 238 m 0xbe
 70 392 177 490 298 490 c 0
 360 490 409 464 462 420 c 1
 460 520 l 1
 460 722 l 1
 490 722 l 1
 490 0 l 1
 464 0 l 1x7e
 460 74 l 1
 458 74 l 1
 415 29 352 -12 282 -12 c 0
 156 -12 70 76 70 238 c 0xbe
102 238 m 0
 102 106 170 16 284 16 c 0
 343 16 403 50 460 110 c 1
 460 386 l 1
 402 441 349 462 296 462 c 0
 188 462 102 362 102 238 c 0
561 548 m 1
 539 548 l 1
 537 752 l 1
 567 752 l 1
 567 704 l 1
 561 548 l 1
EndSplineSet
Ligature2: "'ccmp' Glyph Composition/Decomposition in Latin lookup 6 subtable" d uni030C
EndChar

StartChar: dcroat
Encoding: 273 273 263
Width: 600
Flags: MW
HStem: -12 28<227 313.5 227 317> 0 21G<464 490 464 464> 442 28<242 322.5> 584 28<272 460 272 460> 584 138<272 490 460 490>
VStem: 70 32<165 286.5 165 302> 460 30<74 74 110 366 366 366 500 584 0 584 612 722>
LayerCount: 2
Fore
SplineSet
460 110 m 1xb6
 460 366 l 1
 402 421 349 442 296 442 c 0
 188 442 102 345 102 228 c 0
 102 102 170 16 284 16 c 0
 343 16 403 50 460 110 c 1xb6
490 612 m 1
 566 612 l 1
 566 588 l 1
 490 584 l 1
 490 0 l 1
 464 0 l 1x76
 460 74 l 1
 458 74 l 1
 415 29 352 -12 282 -12 c 0
 156 -12 70 72 70 228 c 0
 70 376 177 470 298 470 c 0
 360 470 409 444 462 400 c 1
 460 500 l 1
 460 584 l 1
 272 584 l 1
 272 612 l 1
 460 612 l 1xb6
 460 722 l 1
 490 722 l 1xae
 490 612 l 1
EndSplineSet
EndChar

StartChar: Emacron
Encoding: 274 274 92
Width: 600
Flags: MW
HStem: 0 28<164 526 164 526> 338 28<164 460 164 460> 632 28<164 516 164 164> 736 28<228 448 228 448>
VStem: 132 32<28 338 366 632>
LayerCount: 2
Fore
SplineSet
132 0 m 1
 132 660 l 1
 516 660 l 1
 516 632 l 1
 164 632 l 1
 164 366 l 1
 460 366 l 1
 460 338 l 1
 164 338 l 1
 164 28 l 1
 526 28 l 1
 526 0 l 1
 132 0 l 1
228 736 m 1
 228 764 l 1
 448 764 l 1
 448 736 l 1
 228 736 l 1
EndSplineSet
EndChar

StartChar: emacron
Encoding: 275 275 269
Width: 600
Flags: MW
HStem: -12 28<266 365 266 373.5> 238 28<112 500 112 528 112 500> 462 28<267.5 372> 608 28<206 426 206 426>
VStem: 80 32<174 238 174 266 174 316> 500 30<266 331>
LayerCount: 2
Fore
SplineSet
80 238 m 0
 80 394 197 490 318 490 c 0
 446 490 530 408 530 270 c 0
 530 260 530 250 528 238 c 1
 112 238 l 1
 112 110 200 16 332 16 c 0
 398 16 451 38 496 70 c 1
 510 44 l 1
 468 17 417 -12 330 -12 c 0
 194 -12 80 82 80 238 c 0
112 266 m 1
 500 266 l 1
 500 396 426 462 318 462 c 0
 217 462 126 386 112 266 c 1
206 608 m 1
 206 636 l 1
 426 636 l 1
 426 608 l 1
 206 608 l 1
EndSplineSet
EndChar

StartChar: Ebreve
Encoding: 276 276 93
Width: 600
Flags: MW
HStem: 0 28<164 526 164 526> 338 28<164 460 164 460> 632 28<164 516 164 164> 712 26<311 365 311 375>
VStem: 132 32<28 338 366 632> 226 26<814 814>
LayerCount: 2
Fore
SplineSet
132 0 m 1
 132 660 l 1
 516 660 l 1
 516 632 l 1
 164 632 l 1
 164 366 l 1
 460 366 l 1
 460 338 l 1
 164 338 l 1
 164 28 l 1
 526 28 l 1
 526 0 l 1
 132 0 l 1
338 712 m 0
 264 712 232 772 226 814 c 1
 252 814 l 1
 258 778 284 738 338 738 c 0
 392 738 418 778 424 814 c 1
 450 814 l 1
 444 772 412 712 338 712 c 0
EndSplineSet
EndChar

StartChar: ebreve
Encoding: 277 277 270
Width: 600
Flags: MW
HStem: -12 28<266 365 266 373.5> 238 28<112 500 112 528 112 500> 462 28<267.5 372> 576 26<288 344 288 356>
VStem: 80 32<174 238 174 266 174 316> 200 26<692 692> 406 26<692 692> 500 30<266 331>
LayerCount: 2
Fore
SplineSet
80 238 m 0
 80 394 197 490 318 490 c 0
 446 490 530 408 530 270 c 0
 530 260 530 250 528 238 c 1
 112 238 l 1
 112 110 200 16 332 16 c 0
 398 16 451 38 496 70 c 1
 510 44 l 1
 468 17 417 -12 330 -12 c 0
 194 -12 80 82 80 238 c 0
112 266 m 1
 500 266 l 1
 500 396 426 462 318 462 c 0
 217 462 126 386 112 266 c 1
316 576 m 0
 236 576 206 644 200 692 c 1
 226 692 l 1
 232 648 260 602 316 602 c 0
 372 602 400 648 406 692 c 1
 432 692 l 1
 426 644 396 576 316 576 c 0
EndSplineSet
EndChar

StartChar: Edotaccent
Encoding: 278 278 94
Width: 600
Flags: MW
HStem: 0 28<164 526 164 526> 338 28<164 460 164 460> 632 28<164 516 164 164> 724 70<329 347>
VStem: 132 32<28 338 366 632> 304 68<749 770>
LayerCount: 2
Fore
SplineSet
132 0 m 1
 132 660 l 1
 516 660 l 1
 516 632 l 1
 164 632 l 1
 164 366 l 1
 460 366 l 1
 460 338 l 1
 164 338 l 1
 164 28 l 1
 526 28 l 1
 526 0 l 1
 132 0 l 1
338 724 m 0
 320 724 304 738 304 760 c 0
 304 780 320 794 338 794 c 0
 356 794 372 780 372 760 c 0
 372 738 356 724 338 724 c 0
EndSplineSet
EndChar

StartChar: edotaccent
Encoding: 279 279 271
Width: 600
Flags: MW
HStem: -12 28<266 365 266 373.5> 238 28<112 500 112 528 112 500> 462 28<267.5 372> 600 84<305 327>
VStem: 80 32<174 238 174 266 174 316> 276 80<629 655> 500 30<266 331>
LayerCount: 2
Fore
SplineSet
80 238 m 0
 80 394 197 490 318 490 c 0
 446 490 530 408 530 270 c 0
 530 260 530 250 528 238 c 1
 112 238 l 1
 112 110 200 16 332 16 c 0
 398 16 451 38 496 70 c 1
 510 44 l 1
 468 17 417 -12 330 -12 c 0
 194 -12 80 82 80 238 c 0
112 266 m 1
 500 266 l 1
 500 396 426 462 318 462 c 0
 217 462 126 386 112 266 c 1
316 600 m 0
 294 600 276 616 276 642 c 0
 276 668 294 684 316 684 c 0
 338 684 356 668 356 642 c 0
 356 616 338 600 316 600 c 0
EndSplineSet
EndChar

StartChar: Eogonek
Encoding: 280 280 103
Width: 600
GlyphClass: 2
Flags: MW
HStem: -202 28<467 488> 0 28<164 470 524 524 524 526> 338 28<164 460 164 460> 632 28<164 516 164 164>
VStem: 132 32<28 338 366 632> 398 30<-138 -97>
AnchorPoint: "Anchor-0" 338 682 basechar 0
LayerCount: 2
Fore
SplineSet
132 0 m 1
 132 660 l 1
 516 660 l 1
 516 632 l 1
 164 632 l 1
 164 366 l 1
 460 366 l 1
 460 338 l 1
 164 338 l 1
 164 28 l 1
 526 28 l 1
 526 0 l 1
 524 0 l 1
 479 -10 428 -60 428 -120 c 0
 428 -156 454 -174 480 -174 c 0
 498 -174 510 -170 524 -160 c 1
 538 -180 l 1
 524 -192 498 -202 478 -202 c 0
 434 -202 398 -176 398 -122 c 0
 398 -72 430 -26 470 0 c 1
 132 0 l 1
EndSplineSet
Ligature2: "'ccmp' Glyph Composition/Decomposition in Latin lookup 6 subtable" E uni0328
EndChar

StartChar: eogonek
Encoding: 281 281 280
Width: 600
GlyphClass: 2
Flags: MW
HStem: -202 28<423 444> -12 28<266 347> 238 28<112 500 112 528 112 500> 462 28<267.5 372>
VStem: 80 32<174 238 174 266 174 316> 356 30<-138 -96.5 -138 -95> 500 30<266 331>
AnchorPoint: "Anchor-0" 317 500 basechar 0
LayerCount: 2
Fore
SplineSet
496 70 m 1
 510 44 l 1
 416 -24 386 -73 386 -120 c 0
 386 -156 410 -174 436 -174 c 0
 454 -174 466 -170 480 -160 c 1
 494 -180 l 1
 480 -192 454 -202 434 -202 c 0
 390 -202 356 -176 356 -122 c 0
 356 -68 398 -20 430 6 c 1
 394 -10 364 -12 330 -12 c 0
 194 -12 80 82 80 238 c 0
 80 394 197 490 318 490 c 0
 446 490 530 408 530 270 c 0
 530 260 530 250 528 238 c 1
 112 238 l 1
 112 110 200 16 332 16 c 0
 398 16 451 38 496 70 c 1
112 266 m 1
 500 266 l 1
 500 396 426 462 318 462 c 0
 217 462 126 386 112 266 c 1
EndSplineSet
Ligature2: "'ccmp' Glyph Composition/Decomposition in Latin lookup 6 subtable" e uni0328
EndChar

StartChar: Ecaron
Encoding: 282 282 90
Width: 600
Flags: MW
HStem: 0 28<164 526 164 526> 338 28<164 460 164 460> 632 28<164 516 164 164> 632 182<228 258 418 448 164 258> 710 30<336 340 336 352 324 340>
VStem: 132 32<28 338 366 632>
LayerCount: 2
Fore
SplineSet
132 0 m 1xe4
 132 660 l 1
 516 660 l 1
 516 632 l 1
 164 632 l 1
 164 366 l 1
 460 366 l 1
 460 338 l 1
 164 338 l 1
 164 28 l 1
 526 28 l 1
 526 0 l 1
 132 0 l 1xe4
418 814 m 1xd4
 448 814 l 1xd4
 352 710 l 1
 324 710 l 1xec
 228 814 l 1
 258 814 l 1xd4
 336 740 l 1
 340 740 l 1xec
 418 814 l 1xd4
EndSplineSet
EndChar

StartChar: ecaron
Encoding: 283 283 267
Width: 600
Flags: MW
HStem: -12 28<266 365 266 373.5> 238 28<112 500 112 528 112 500> 462 28<267.5 372> 572 32<302 318 314 318 314 330>
VStem: 80 32<174 238 174 266 174 316> 500 30<266 331>
LayerCount: 2
Fore
SplineSet
80 238 m 0
 80 394 197 490 318 490 c 0
 446 490 530 408 530 270 c 0
 530 260 530 250 528 238 c 1
 112 238 l 1
 112 110 200 16 332 16 c 0
 398 16 451 38 496 70 c 1
 510 44 l 1
 468 17 417 -12 330 -12 c 0
 194 -12 80 82 80 238 c 0
112 266 m 1
 500 266 l 1
 500 396 426 462 318 462 c 0
 217 462 126 386 112 266 c 1
302 572 m 1
 208 706 l 1
 236 706 l 1
 314 604 l 1
 318 604 l 1
 396 706 l 1
 424 706 l 1
 330 572 l 1
 302 572 l 1
EndSplineSet
EndChar

StartChar: Gcircumflex
Encoding: 284 284 104
Width: 600
Flags: MW
HStem: -12 30<260 366.5 260 375.5> 290 28<329 489 329 522> 642 30<266 379> 784 30<330 334 330 330>
VStem: 61 34<237 427 237 436> 489 33<72 290 290 290>
LayerCount: 2
Fore
SplineSet
61 332 m 0
 61 540 173 672 343 672 c 0
 429 672 482 630 516 594 c 1
 496 572 l 1
 462 610 415 642 343 642 c 0
 189 642 95 522 95 332 c 0
 95 142 185 18 335 18 c 0
 398 18 456 38 489 72 c 1
 489 290 l 1
 329 290 l 1
 329 318 l 1
 522 318 l 1
 522 62 l 1
 482 18 418 -12 333 -12 c 0
 169 -12 61 124 61 332 c 0
252 710 m 1
 222 710 l 1
 318 814 l 1
 346 814 l 1
 442 710 l 1
 412 710 l 1
 334 784 l 1
 330 784 l 1
 252 710 l 1
EndSplineSet
EndChar

StartChar: Gbreve
Encoding: 286 286 105
Width: 600
Flags: MW
HStem: -12 30<260 366.5 260 375.5> 290 28<329 489 329 522> 642 30<266 379> 712 26<305 359 305 369>
VStem: 61 34<237 427 237 436> 220 26<814 814> 489 33<72 290 290 290>
LayerCount: 2
Fore
SplineSet
61 332 m 0
 61 540 173 672 343 672 c 0
 429 672 482 630 516 594 c 1
 496 572 l 1
 462 610 415 642 343 642 c 0
 189 642 95 522 95 332 c 0
 95 142 185 18 335 18 c 0
 398 18 456 38 489 72 c 1
 489 290 l 1
 329 290 l 1
 329 318 l 1
 522 318 l 1
 522 62 l 1
 482 18 418 -12 333 -12 c 0
 169 -12 61 124 61 332 c 0
332 712 m 0
 258 712 226 772 220 814 c 1
 246 814 l 1
 252 778 278 738 332 738 c 0
 386 738 412 778 418 814 c 1
 444 814 l 1
 438 772 406 712 332 712 c 0
EndSplineSet
EndChar

StartChar: Gdotaccent
Encoding: 288 288 106
Width: 600
Flags: MW
HStem: -12 30<260 366.5 260 375.5> 290 28<329 489 329 522> 642 30<266 379> 724 70<323 341>
VStem: 61 34<237 427 237 436> 298 68<749 770> 489 33<72 290 290 290>
LayerCount: 2
Fore
SplineSet
61 332 m 0
 61 540 173 672 343 672 c 0
 429 672 482 630 516 594 c 1
 496 572 l 1
 462 610 415 642 343 642 c 0
 189 642 95 522 95 332 c 0
 95 142 185 18 335 18 c 0
 398 18 456 38 489 72 c 1
 489 290 l 1
 329 290 l 1
 329 318 l 1
 522 318 l 1
 522 62 l 1
 482 18 418 -12 333 -12 c 0
 169 -12 61 124 61 332 c 0
332 724 m 0
 314 724 298 738 298 760 c 0
 298 780 314 794 332 794 c 0
 350 794 366 780 366 760 c 0
 366 738 350 724 332 724 c 0
EndSplineSet
EndChar

StartChar: uni0122
Encoding: 290 290 107
Width: 600
Flags: MW
HStem: -206 26<266 272> -12 30<260 366.5 260 375.5> 290 28<329 489 329 522> 642 30<266 379>
VStem: 61 34<237 427 237 436> 360 30<-142 -112> 489 33<72 290 290 290>
LayerCount: 2
Fore
SplineSet
61 332 m 0
 61 540 173 672 343 672 c 0
 429 672 482 630 516 594 c 1
 496 572 l 1
 462 610 415 642 343 642 c 0
 189 642 95 522 95 332 c 0
 95 142 185 18 335 18 c 0
 398 18 456 38 489 72 c 1
 489 290 l 1
 329 290 l 1
 329 318 l 1
 522 318 l 1
 522 62 l 1
 482 18 418 -12 333 -12 c 0
 169 -12 61 124 61 332 c 0
312 -52 m 1
 362 -64 390 -84 390 -124 c 0
 390 -174 332 -198 272 -206 c 1
 266 -180 l 1
 322 -172 360 -156 360 -128 c 0
 360 -96 330 -84 302 -78 c 1
 312 -52 l 1
EndSplineSet
EndChar

StartChar: uni0123
Encoding: 291 291 284
Width: 600
GlyphClass: 3
Flags: MW
HStem: -234 28<243 375.5 243 388> 2 32<266 276 276 389 389 397> 152 28<281 335 257 344> 450 28<408 560 408 408> 462 28<257 309 248 335> 666 26<372 378>
VStem: 88 32<-127.5 -78.5 -127.5 -74.5> 122 32<291 361 279 368> 254 30<598 628 598 635> 438 32<279 347.5 272 361> 528 32<-106 -45.5>
LayerCount: 2
Fore
SplineSet
120 -97 m 0xf2e0
 120 -158 180 -206 306 -206 c 0
 445 -206 528 -138 528 -74 c 0
 528 -17 485 2 397 2 c 2
 276 2 l 2
 254 2 226 4 203 11 c 1
 141 -22 120 -60 120 -97 c 0xf2e0
88 -93 m 0
 88 -56 118 -11 170 22 c 1
 170 26 l 1
 146 37 120 62 120 102 c 0
 120 132 140 166 178 192 c 1
 178 196 l 1
 148 222 122 262 122 320 c 0
 122 416 200 490 296 490 c 0xe9e0
 322 490 342 486 360 478 c 1
 560 478 l 1
 560 450 l 1
 408 450 l 1
 440 420 470 375 470 320 c 0
 470 224 392 152 296 152 c 0
 266 152 232 160 202 176 c 1
 172 158 152 132 152 105 c 0xf1e0
 152 56 198 34 266 34 c 2
 389 34 l 2
 510 34 560 4 560 -72 c 0
 560 -152 464 -234 312 -234 c 0
 160 -234 88 -176 88 -93 c 0
296 180 m 0xede0
 374 180 438 238 438 320 c 0
 438 402 374 462 296 462 c 0
 218 462 154 402 154 320 c 0
 154 238 218 180 296 180 c 0xede0
332 538 m 1
 282 550 254 570 254 610 c 0
 254 660 312 684 372 692 c 1
 378 666 l 1
 322 658 284 642 284 614 c 0
 284 582 314 570 342 564 c 1
 332 538 l 1
EndSplineSet
Substitution2: "'ss03' Style Set 3 in Latin lookup 19 subtable" uni0123.a
Ligature2: "'ccmp' Glyph Composition/Decomposition in Latin lookup 6 subtable" g uni0327
Substitution2: "'aalt' Access All Alternates in Latin lookup 0 subtable" uni0123.a
EndChar

StartChar: Hcircumflex
Encoding: 292 292 111
Width: 600
Flags: MW
HStem: 0 21G<92 92 92 124 476 476 476 508> 338 28<124 476 124 476> 640 20G<92 124 124 124 476 508 508 508> 784 30<298 302 298 298>
VStem: 92 32<0 338 366 660> 476 32<0 338 338 338 366 660 0 660>
LayerCount: 2
Fore
SplineSet
92 0 m 1
 92 660 l 1
 124 660 l 1
 124 366 l 1
 476 366 l 1
 476 660 l 1
 508 660 l 1
 508 0 l 1
 476 0 l 1
 476 338 l 1
 124 338 l 1
 124 0 l 1
 92 0 l 1
220 710 m 1
 190 710 l 1
 286 814 l 1
 314 814 l 1
 410 710 l 1
 380 710 l 1
 302 784 l 1
 298 784 l 1
 220 710 l 1
EndSplineSet
EndChar

StartChar: hcircumflex
Encoding: 293 293 288
Width: 600
Flags: MW
HStem: 0 21G<110 110 110 140 480 480 480 510> 462 28<300 386.5> 702 20G<110 140 140 140> 822 30<140 144 140 140>
VStem: 110 30<0 346 508 722> 480 30<0 294 294 298 0 350.5>
LayerCount: 2
Fore
SplineSet
110 0 m 1
 110 722 l 1
 140 722 l 1
 140 508 l 1
 138 378 l 1
 201 444 258 490 336 490 c 0
 453 490 510 429 510 298 c 2
 510 0 l 1
 480 0 l 1
 480 294 l 2
 480 407 437 462 336 462 c 0
 264 462 214 424 140 346 c 1
 140 0 l 1
 110 0 l 1
62 748 m 1
 32 748 l 1
 128 852 l 1
 156 852 l 1
 252 748 l 1
 222 748 l 1
 144 822 l 1
 140 822 l 1
 62 748 l 1
EndSplineSet
EndChar

StartChar: Hbar
Encoding: 294 294 114
Width: 600
Flags: MW
HStem: 0 21G<92 124 92 92 476 508 476 476> 338 28<124 476 124 476> 496 28<16 92 124 476 508 584> 496 164<16 124 16 124 92 476 92 124>
VStem: 92 32<0 338 366 496 524 660> 476 32<0 338 338 338 366 496 0 496 524 660>
LayerCount: 2
Fore
SplineSet
476 366 m 1xec
 476 496 l 1
 124 496 l 1
 124 366 l 1
 476 366 l 1xec
584 524 m 1
 584 496 l 1
 508 496 l 1
 508 0 l 1
 476 0 l 1
 476 338 l 1
 124 338 l 1
 124 0 l 1
 92 0 l 1
 92 496 l 1
 16 496 l 1
 16 520 l 1
 92 524 l 1xec
 92 660 l 1
 124 660 l 1xdc
 124 524 l 1
 476 524 l 1xec
 476 660 l 1
 508 660 l 1xdc
 508 524 l 1
 584 524 l 1
EndSplineSet
EndChar

StartChar: hbar
Encoding: 295 295 291
Width: 600
Flags: MW
HStem: 0 21G<110 140 110 110 480 510 480 480> 442 28<300 386.5> 584 28<32 110 140 376> 584 138<32 140 32 140 110 140 110 376>
VStem: 110 30<0 326 488 584 612 722> 480 30<0 274 274 278 0 330.5>
LayerCount: 2
Fore
SplineSet
140 488 m 1xec
 138 358 l 1
 201 424 258 470 336 470 c 0
 453 470 510 409 510 278 c 2
 510 0 l 1
 480 0 l 1
 480 274 l 2
 480 387 437 442 336 442 c 0
 264 442 214 404 140 326 c 1
 140 0 l 1
 110 0 l 1
 110 584 l 1
 32 584 l 1
 32 608 l 1
 110 612 l 1xec
 110 722 l 1
 140 722 l 1xdc
 140 612 l 1
 376 612 l 1
 376 584 l 1
 140 584 l 1
 140 488 l 1xec
EndSplineSet
EndChar

StartChar: Itilde
Encoding: 296 296 118
Width: 600
Flags: MW
HStem: 0 28<112 284 112 284 316 488> 632 28<112 284 112 488 316 316 316 488> 718 28<339 371 339 380> 776 28<229 261>
VStem: 176 22<718 718> 284 32<28 632 28 632> 402 22<804 804>
LayerCount: 2
Fore
SplineSet
112 0 m 1
 112 28 l 1
 284 28 l 1
 284 632 l 1
 112 632 l 1
 112 660 l 1
 488 660 l 1
 488 632 l 1
 316 632 l 1
 316 28 l 1
 488 28 l 1
 488 0 l 1
 112 0 l 1
358 718 m 0xfe
 306 718 282 776 240 776 c 0xde
 218 776 202 752 198 718 c 1
 176 718 l 1
 178 756 198 804 242 804 c 0
 294 804 318 746 360 746 c 0xfe
 382 746 398 770 402 804 c 1
 424 804 l 1xde
 422 766 402 718 358 718 c 0xfe
EndSplineSet
EndChar

StartChar: itilde
Encoding: 297 297 295
Width: 600
Flags: MW
HStem: 0 21G<346 376 346 346> 450 28<100 376 100 346> 582 26<388.5 417 388.5 427.5> 638 26<283 312.5>
VStem: 232 24<582 582> 346 30<0 450 450 450> 444 24<664 664>
LayerCount: 2
Fore
SplineSet
100 450 m 1
 100 478 l 1
 376 478 l 1
 376 0 l 1
 346 0 l 1
 346 450 l 1
 100 450 l 1
232 582 m 1
 234 618 249 664 296 664 c 0xde
 344 664 371 608 406 608 c 0
 428 608 440 630 444 664 c 1
 468 664 l 1
 466 629 451 582 404 582 c 0xfe
 356 582 331 638 294 638 c 0
 272 638 260 617 256 582 c 1
 232 582 l 1
EndSplineSet
EndChar

StartChar: Imacron
Encoding: 298 298 120
Width: 600
Flags: MW
HStem: 0 28<112 284 112 284 316 488> 632 28<112 284 112 488 316 316 316 488> 736 28<190 410 190 410>
VStem: 284 32<28 632 28 632>
LayerCount: 2
Fore
SplineSet
112 0 m 1
 112 28 l 1
 284 28 l 1
 284 632 l 1
 112 632 l 1
 112 660 l 1
 488 660 l 1
 488 632 l 1
 316 632 l 1
 316 28 l 1
 488 28 l 1
 488 0 l 1
 112 0 l 1
190 736 m 1
 190 764 l 1
 410 764 l 1
 410 736 l 1
 190 736 l 1
EndSplineSet
EndChar

StartChar: imacron
Encoding: 299 299 297
Width: 600
Flags: MW
HStem: 0 21G<346 376 346 346> 450 28<100 376 100 346> 608 28<240 460 240 460>
VStem: 346 30<0 450 450 450>
LayerCount: 2
Fore
SplineSet
100 450 m 1
 100 478 l 1
 376 478 l 1
 376 0 l 1
 346 0 l 1
 346 450 l 1
 100 450 l 1
240 608 m 1
 240 636 l 1
 460 636 l 1
 460 608 l 1
 240 608 l 1
EndSplineSet
EndChar

StartChar: uni012C
Encoding: 300 300 121
Width: 600
Flags: MW
HStem: 0 28<112 284 112 284 316 488> 632 28<112 284 112 488 316 316 316 488> 712 26<273 327 273 337>
VStem: 188 26<814 814> 284 32<28 632 28 632>
LayerCount: 2
Fore
SplineSet
112 0 m 1
 112 28 l 1
 284 28 l 1
 284 632 l 1
 112 632 l 1
 112 660 l 1
 488 660 l 1
 488 632 l 1
 316 632 l 1
 316 28 l 1
 488 28 l 1
 488 0 l 1
 112 0 l 1
300 712 m 0
 226 712 194 772 188 814 c 1
 214 814 l 1
 220 778 246 738 300 738 c 0
 354 738 380 778 386 814 c 1
 412 814 l 1
 406 772 374 712 300 712 c 0
EndSplineSet
EndChar

StartChar: uni012D
Encoding: 301 301 298
Width: 600
Flags: MW
HStem: 0 21G<346 376 346 346> 450 28<100 376 100 346> 576 26<322 378 322 390>
VStem: 234 26<692 692> 346 30<0 450 450 450> 440 26<692 692>
LayerCount: 2
Fore
SplineSet
100 450 m 1
 100 478 l 1
 376 478 l 1
 376 0 l 1
 346 0 l 1
 346 450 l 1
 100 450 l 1
350 576 m 0
 270 576 240 644 234 692 c 1
 260 692 l 1
 266 648 294 602 350 602 c 0
 406 602 434 648 440 692 c 1
 466 692 l 1
 460 644 430 576 350 576 c 0
EndSplineSet
EndChar

StartChar: Iogonek
Encoding: 302 302 126
Width: 600
GlyphClass: 2
Flags: MW
HStem: -202 28<297 318> 0 28<112 284 112 284 112 288 316 488> 632 28<112 284 112 488 316 316 316 488>
VStem: 228 30<-138 -97 -138 -96> 284 32<28 632>
AnchorPoint: "Anchor-0" 300 682 basechar 0
LayerCount: 2
Fore
SplineSet
112 0 m 1
 112 28 l 1
 284 28 l 1
 284 632 l 1
 112 632 l 1
 112 660 l 1
 488 660 l 1
 488 632 l 1
 316 632 l 1
 316 28 l 1xe8
 488 28 l 1
 488 0 l 1
 316 0 l 1
 284 -40 258 -74 258 -120 c 0
 258 -156 284 -174 310 -174 c 0
 328 -174 340 -170 354 -160 c 1
 368 -180 l 1
 354 -192 328 -202 308 -202 c 0
 264 -202 228 -176 228 -122 c 0
 228 -70 254 -36 288 0 c 1xf8
 112 0 l 1
EndSplineSet
Ligature2: "'ccmp' Glyph Composition/Decomposition in Latin lookup 6 subtable" I uni0328
EndChar

StartChar: iogonek
Encoding: 303 303 302
Width: 600
GlyphClass: 3
Flags: MW
HStem: -202 28<353 374> 0 21G<346 346 346 348 376 376> 450 28<100 346 100 376> 600 84<339 361>
VStem: 286 30<-138 -98 -138 -97> 310 80<629 655> 346 30<0 450 450 450>
LayerCount: 2
Fore
SplineSet
346 0 m 1xf2
 346 450 l 1
 100 450 l 1
 100 478 l 1
 376 478 l 1
 376 0 l 1xf2
 346 -36 316 -76 316 -120 c 0
 316 -156 340 -174 366 -174 c 0
 384 -174 396 -170 410 -160 c 1
 424 -180 l 1
 410 -192 384 -202 364 -202 c 0
 320 -202 286 -176 286 -122 c 0xfa
 286 -72 318 -34 348 0 c 1
 346 0 l 1xf2
350 600 m 0xf4
 328 600 310 616 310 642 c 0
 310 668 328 684 350 684 c 0
 372 684 390 668 390 642 c 0
 390 616 372 600 350 600 c 0xf4
EndSplineSet
Substitution2: "Single Substitution lookup 22 subtable" iogonek.d
Ligature2: "'ccmp' Glyph Composition/Decomposition in Latin lookup 6 subtable" i uni0328
EndChar

StartChar: Idotaccent
Encoding: 304 304 122
Width: 600
Flags: MW
HStem: 0 28<112 284 112 284 316 488> 632 28<112 284 112 488 316 316 316 488> 724 70<291 309>
VStem: 266 68<749 770> 284 32<28 632 28 632>
LayerCount: 2
Fore
SplineSet
112 0 m 1xc8
 112 28 l 1
 284 28 l 1
 284 632 l 1
 112 632 l 1
 112 660 l 1
 488 660 l 1
 488 632 l 1
 316 632 l 1
 316 28 l 1
 488 28 l 1
 488 0 l 1
 112 0 l 1xc8
300 724 m 0xf0
 282 724 266 738 266 760 c 0
 266 780 282 794 300 794 c 0
 318 794 334 780 334 760 c 0
 334 738 318 724 300 724 c 0xf0
EndSplineSet
EndChar

StartChar: dotlessi
Encoding: 305 305 304
Width: 600
GlyphClass: 2
Flags: MW
HStem: 0 21G<346 376 346 346> 450 28<100 376 100 346>
VStem: 346 30<0 450 450 450>
AnchorPoint: "Anchor-4" 379 0 basechar 0
AnchorPoint: "Anchor-2" 350 -22 basechar 0
AnchorPoint: "Anchor-0" 350 500 basechar 0
LayerCount: 2
Fore
SplineSet
100 450 m 1
 100 478 l 1
 376 478 l 1
 376 0 l 1
 346 0 l 1
 346 450 l 1
 100 450 l 1
EndSplineSet
EndChar

StartChar: Jcircumflex
Encoding: 308 308 127
Width: 600
Flags: MW
HStem: -12 29<250.5 336.5 250.5 352.5> 634 27<152 443 152 475> 784 30<318 322 318 318>
VStem: 443 32<204 634 634 634>
LayerCount: 2
Fore
SplineSet
98 98 m 1
 128 115 l 1
 166 48 222 17 279 17 c 0
 394 17 443 80 443 204 c 2
 443 634 l 1
 152 634 l 1
 152 661 l 1
 475 661 l 1
 475 201 l 2
 475 83 427 -12 278 -12 c 0
 203 -12 134 25 98 98 c 1
240 710 m 1
 210 710 l 1
 306 814 l 1
 334 814 l 1
 430 710 l 1
 400 710 l 1
 322 784 l 1
 318 784 l 1
 240 710 l 1
EndSplineSet
EndChar

StartChar: jcircumflex
Encoding: 309 309 305
Width: 600
Flags: MW
HStem: -234 28<177.5 257.5 177.5 263> 450 28<100 376 100 346> 674 32<348 352 348 348>
VStem: 346 30<-52 -46 -46 450 450 450>
LayerCount: 2
Fore
SplineSet
100 450 m 1
 100 478 l 1
 376 478 l 1
 376 -46 l 2
 376 -164 332 -234 194 -234 c 0
 151 -234 101 -220 66 -202 c 1
 80 -176 l 1
 111 -192 156 -206 199 -206 c 0
 316 -206 346 -143 346 -52 c 2
 346 450 l 1
 100 450 l 1
242 572 m 1
 336 706 l 1
 364 706 l 1
 458 572 l 1
 430 572 l 1
 352 674 l 1
 348 674 l 1
 270 572 l 1
 242 572 l 1
EndSplineSet
EndChar

StartChar: uni0136
Encoding: 310 310 128
Width: 600
Flags: MW
HStem: -206 26<279 285> 0 21G<122 122 122 154 530 530 530 568> 640 20G<122 154 154 154 500 539 539 539>
VStem: 122 32<0 234 280 660> 373 30<-142 -112>
LayerCount: 2
Fore
SplineSet
122 0 m 1
 122 660 l 1
 154 660 l 1
 154 280 l 1
 156 280 l 1
 500 660 l 1
 539 660 l 1
 323 418 l 1
 568 0 l 1
 530 0 l 1
 299 394 l 1
 154 234 l 1
 154 0 l 1
 122 0 l 1
325 -52 m 1
 375 -64 403 -84 403 -124 c 0
 403 -174 345 -198 285 -206 c 1
 279 -180 l 1
 335 -172 373 -156 373 -128 c 0
 373 -96 343 -84 315 -78 c 1
 325 -52 l 1
EndSplineSet
EndChar

StartChar: uni0137
Encoding: 311 311 306
Width: 600
Flags: MW
HStem: -206 26<274 280> 0 21G<130 130 130 160 528 528 528 564> 458 20G<490 530 530 530> 702 20G<130 160 160 160>
VStem: 130 30<0 138 176 722> 368 30<-142 -112>
LayerCount: 2
Fore
SplineSet
130 0 m 1
 130 722 l 1
 160 722 l 1
 160 176 l 1
 164 176 l 1
 490 478 l 1
 530 478 l 1
 332 294 l 1
 564 0 l 1
 528 0 l 1
 308 276 l 1
 160 138 l 1
 160 0 l 1
 130 0 l 1
320 -52 m 1
 370 -64 398 -84 398 -124 c 0
 398 -174 340 -198 280 -206 c 1
 274 -180 l 1
 330 -172 368 -156 368 -128 c 0
 368 -96 338 -84 310 -78 c 1
 320 -52 l 1
EndSplineSet
EndChar

StartChar: kgreenlandic
Encoding: 312 312 307
Width: 600
Flags: MW
HStem: 0 21G<130 130 130 160 528 528 528 564> 458 20G<130 160 160 160 490 530 530 530>
VStem: 130 30<0 136 174 478>
LayerCount: 2
Fore
SplineSet
130 0 m 1
 130 478 l 1
 160 478 l 1
 160 174 l 1
 162 176 l 1
 490 478 l 1
 530 478 l 1
 332 294 l 1
 564 0 l 1
 528 0 l 1
 308 276 l 1
 160 136 l 1
 160 0 l 1
 130 0 l 1
EndSplineSet
EndChar

StartChar: Lacute
Encoding: 313 313 129
Width: 600
Flags: MW
HStem: 0 28<186 538 186 538> 640 20G<156 186 186 186>
VStem: 156 30<28 660 28 660 28 660>
LayerCount: 2
Fore
SplineSet
156 0 m 1
 156 660 l 1
 186 660 l 1
 186 28 l 1
 538 28 l 1
 538 0 l 1
 156 0 l 1
292 814 m 1
 184 710 l 1
 154 710 l 1
 248 814 l 1
 292 814 l 1
EndSplineSet
EndChar

StartChar: lacute
Encoding: 314 314 308
Width: 600
Flags: MW
HStem: -12 28<381 433 381 438> 694 28<97 310 97 280>
VStem: 280 30<138 694 694 694>
LayerCount: 2
Fore
SplineSet
97 694 m 1
 97 722 l 1
 310 722 l 1
 310 132 l 2
 310 54 345 16 417 16 c 0
 449 16 480 24 520 43 c 1
 532 18 l 1
 494 3 461 -12 415 -12 c 0
 329 -12 280 31 280 138 c 2
 280 694 l 1
 97 694 l 1
392 864 m 1
 284 760 l 1
 254 760 l 1
 348 864 l 1
 392 864 l 1
EndSplineSet
EndChar

StartChar: uni013B
Encoding: 315 315 131
Width: 600
Flags: MW
HStem: -206 26<288 294> 0 28<186 538 186 538> 640 20G<156 186 186 186>
VStem: 156 30<28 660 28 660 28 660> 382 30<-142 -112>
LayerCount: 2
Fore
SplineSet
156 0 m 1
 156 660 l 1
 186 660 l 1
 186 28 l 1
 538 28 l 1
 538 0 l 1
 156 0 l 1
334 -52 m 1
 384 -64 412 -84 412 -124 c 0
 412 -174 354 -198 294 -206 c 1
 288 -180 l 1
 344 -172 382 -156 382 -128 c 0
 382 -96 352 -84 324 -78 c 1
 334 -52 l 1
EndSplineSet
EndChar

StartChar: uni013C
Encoding: 316 316 311
Width: 600
Flags: MW
HStem: -206 26<308 314> -12 28<381 433 381 438> 694 28<97 310 97 280>
VStem: 280 30<138 694 694 694> 402 30<-142 -112>
LayerCount: 2
Fore
SplineSet
97 694 m 1
 97 722 l 1
 310 722 l 1
 310 132 l 2
 310 54 345 16 417 16 c 0
 449 16 480 24 520 43 c 1
 532 18 l 1
 494 3 461 -12 415 -12 c 0
 329 -12 280 31 280 138 c 2
 280 694 l 1
 97 694 l 1
354 -52 m 1
 404 -64 432 -84 432 -124 c 0
 432 -174 374 -198 314 -206 c 1
 308 -180 l 1
 364 -172 402 -156 402 -128 c 0
 402 -96 372 -84 344 -78 c 1
 354 -52 l 1
EndSplineSet
EndChar

StartChar: Lcaron
Encoding: 317 317 130
Width: 600
Flags: MW
HStem: 0 28<186 538 186 538> 640 20G<156 186 186 186>
VStem: 156 30<28 660 28 660 28 660> 391 29
LayerCount: 2
Fore
SplineSet
156 0 m 1
 156 660 l 1
 186 660 l 1
 186 28 l 1
 538 28 l 1
 538 0 l 1
 156 0 l 1
414 518 m 1
 392 518 l 1
 390 722 l 1
 420 722 l 1
 420 674 l 1
 414 518 l 1
EndSplineSet
EndChar

StartChar: lcaron
Encoding: 318 318 309
Width: 600
GlyphClass: 3
Flags: MW
HStem: -12 28<381 433 381 438> 694 28<97 310 97 280>
VStem: 280 30<138 694 694 694> 391 29
LayerCount: 2
Fore
SplineSet
97 694 m 1
 97 722 l 1
 310 722 l 1
 310 132 l 2
 310 54 345 16 417 16 c 0
 449 16 480 24 520 43 c 1
 532 18 l 1
 494 3 461 -12 415 -12 c 0
 329 -12 280 31 280 138 c 2
 280 694 l 1
 97 694 l 1
414 548 m 1
 392 548 l 1
 390 752 l 1
 420 752 l 1
 420 704 l 1
 414 548 l 1
EndSplineSet
Ligature2: "'ccmp' Glyph Composition/Decomposition in Latin lookup 6 subtable" l uni030C
EndChar

StartChar: Ldot
Encoding: 319 319 132
Width: 600
Flags: MW
HStem: 0 28<186 538 186 538> 300 84<401 423> 640 20G<156 186 186 186>
VStem: 156 30<28 660 28 660 28 660> 372 80<329 355>
LayerCount: 2
Fore
SplineSet
156 0 m 1
 156 660 l 1
 186 660 l 1
 186 28 l 1
 538 28 l 1
 538 0 l 1
 156 0 l 1
412 300 m 0
 390 300 372 316 372 342 c 0
 372 368 390 384 412 384 c 0
 434 384 452 368 452 342 c 0
 452 316 434 300 412 300 c 0
EndSplineSet
EndChar

StartChar: ldot
Encoding: 320 320 310
Width: 600
Flags: MW
HStem: -12 28<351 403 351 408> 300 84<399 421> 694 28<67 280 67 250>
VStem: 250 30<138 694 694 694> 370 80<329 355>
LayerCount: 2
Fore
SplineSet
67 694 m 1
 67 722 l 1
 280 722 l 1
 280 132 l 2
 280 54 315 16 387 16 c 0
 419 16 450 24 490 43 c 1
 502 18 l 1
 464 3 431 -12 385 -12 c 0
 299 -12 250 31 250 138 c 2
 250 694 l 1
 67 694 l 1
410 300 m 0
 388 300 370 316 370 342 c 0
 370 368 388 384 410 384 c 0
 432 384 450 368 450 342 c 0
 450 316 432 300 410 300 c 0
EndSplineSet
EndChar

StartChar: Lslash
Encoding: 321 321 136
Width: 600
Flags: MW
HStem: 0 28<186 538 186 538> 640 20G<156 186 186 186>
VStem: 156 30<28 28 28 251 251 251 295 660>
LayerCount: 2
Fore
SplineSet
186 28 m 1
 538 28 l 1
 538 0 l 1
 156 0 l 1
 156 251 l 1
 69 206 l 1
 69 236 l 1
 156 281 l 1
 156 660 l 1
 186 660 l 1
 186 295 l 1
 427 420 l 1
 427 390 l 1
 186 265 l 1
 186 28 l 1
EndSplineSet
EndChar

StartChar: lslash
Encoding: 322 322 315
Width: 600
Flags: MW
HStem: -12 28<381 433 381 438> 694 28<97 280 97 310>
VStem: 280 30<138 377 377 377 427 694 694 694>
LayerCount: 2
Fore
SplineSet
520 43 m 1
 532 18 l 1
 494 3 461 -12 415 -12 c 0
 329 -12 280 31 280 138 c 2
 280 377 l 1
 148 300 l 1
 148 332 l 1
 280 409 l 1
 280 694 l 1
 97 694 l 1
 97 722 l 1
 310 722 l 1
 310 427 l 1
 484 526 l 1
 484 494 l 1
 310 395 l 1
 310 132 l 2
 310 54 345 16 417 16 c 0
 449 16 480 24 520 43 c 1
EndSplineSet
EndChar

StartChar: Nacute
Encoding: 323 323 138
Width: 600
Flags: MW
HStem: 0 46<471 478 476 478 476 504> 614 46<122 124 122 122>
VStem: 96 30<0 433 0 660> 474 30<231 660 0 660>
LayerCount: 2
Fore
SplineSet
96 0 m 1
 96 660 l 1
 129 660 l 1
 403 174 l 1
 476 46 l 1
 478 46 l 1
 477 109 474 169 474 231 c 2
 474 660 l 1
 504 660 l 1
 504 0 l 1
 471 0 l 1
 197 486 l 1
 124 614 l 1
 122 614 l 1
 123 551 126 495 126 433 c 2
 126 0 l 1
 96 0 l 1
412 814 m 1
 304 710 l 1
 274 710 l 1
 368 814 l 1
 412 814 l 1
EndSplineSet
EndChar

StartChar: uni0145
Encoding: 325 325 141
Width: 600
Flags: MW
HStem: -206 26<230 236> 0 46<471 478 476 478 476 504> 614 46<122 124 122 122>
VStem: 96 30<0 433 0 660> 324 30<-142 -112> 474 30<231 660 0 660>
LayerCount: 2
Fore
SplineSet
96 0 m 1
 96 660 l 1
 129 660 l 1
 403 174 l 1
 476 46 l 1
 478 46 l 1
 477 109 474 169 474 231 c 2
 474 660 l 1
 504 660 l 1
 504 0 l 1
 471 0 l 1
 197 486 l 1
 124 614 l 1
 122 614 l 1
 123 551 126 495 126 433 c 2
 126 0 l 1
 96 0 l 1
276 -52 m 1
 326 -64 354 -84 354 -124 c 0
 354 -174 296 -198 236 -206 c 1
 230 -180 l 1
 286 -172 324 -156 324 -128 c 0
 324 -96 294 -84 266 -78 c 1
 276 -52 l 1
EndSplineSet
EndChar

StartChar: uni0146
Encoding: 326 326 320
Width: 600
Flags: MW
HStem: -206 26<248 254> 0 21G<110 110 110 140 480 480 480 510> 458 20G<110 136 136 136> 462 28<300 386.5>
VStem: 110 30<0 346> 342 30<-142 -112> 480 30<0 294 294 298 0 350.5>
LayerCount: 2
Fore
SplineSet
110 0 m 1x5e
 110 478 l 1
 136 478 l 1xee
 140 382 l 1
 144 382 l 1
 201 444 258 490 336 490 c 0
 453 490 510 429 510 298 c 2
 510 0 l 1
 480 0 l 1
 480 294 l 2
 480 407 437 462 336 462 c 0
 264 462 214 424 140 346 c 1
 140 0 l 1
 110 0 l 1x5e
294 -52 m 1
 344 -64 372 -84 372 -124 c 0
 372 -174 314 -198 254 -206 c 1
 248 -180 l 1
 304 -172 342 -156 342 -128 c 0
 342 -96 312 -84 284 -78 c 1
 294 -52 l 1
EndSplineSet
EndChar

StartChar: Ncaron
Encoding: 327 327 139
Width: 600
Flags: MW
HStem: 0 46<471 478 476 478 476 504> 614 46<122 124 122 122> 710 30<304 308 304 320 292 308>
VStem: 96 30<0 433 0 660> 474 30<231 660 0 660>
LayerCount: 2
Fore
SplineSet
96 0 m 1
 96 660 l 1
 129 660 l 1
 403 174 l 1
 476 46 l 1
 478 46 l 1
 477 109 474 169 474 231 c 2
 474 660 l 1
 504 660 l 1
 504 0 l 1
 471 0 l 1
 197 486 l 1
 124 614 l 1
 122 614 l 1
 123 551 126 495 126 433 c 2
 126 0 l 1
 96 0 l 1
386 814 m 1
 416 814 l 1
 320 710 l 1
 292 710 l 1
 196 814 l 1
 226 814 l 1
 304 740 l 1
 308 740 l 1
 386 814 l 1
EndSplineSet
EndChar

StartChar: ncaron
Encoding: 328 328 318
Width: 600
Flags: MW
HStem: 0 21G<110 110 110 140 480 480 480 510> 458 20G<110 136 136 136> 462 28<300 386.5> 572 32<306 322 318 322 318 334>
VStem: 110 30<0 346> 480 30<0 294 294 298 0 350.5>
LayerCount: 2
Fore
SplineSet
110 0 m 1xbc
 110 478 l 1
 136 478 l 1xdc
 140 382 l 1
 144 382 l 1
 201 444 258 490 336 490 c 0
 453 490 510 429 510 298 c 2
 510 0 l 1
 480 0 l 1
 480 294 l 2
 480 407 437 462 336 462 c 0
 264 462 214 424 140 346 c 1
 140 0 l 1
 110 0 l 1xbc
306 572 m 1
 212 706 l 1
 240 706 l 1
 318 604 l 1
 322 604 l 1
 400 706 l 1
 428 706 l 1
 334 572 l 1
 306 572 l 1
EndSplineSet
EndChar

StartChar: napostrophe
Encoding: 329 329 324
Width: 600
Flags: MW
HStem: 0 21G<180 210 180 180 530 560 530 530> 458 20G<180 206 206 206> 462 28<362 443> 586 114<49.5 69.5>
VStem: 96 38 180 30<0 356> 530 30<0 304 304 308 0 357>
LayerCount: 2
Fore
SplineSet
16 398 m 1xbe
 -2 422 l 1
 55 462 92 523 96 598 c 1
 86 591 75 586 64 586 c 0
 32 586 10 610 10 642 c 0
 10 675 33 700 66 700 c 0
 101 700 134 667 134 611 c 0
 134 518 84 438 16 398 c 1xbe
210 392 m 1
 214 392 l 1
 268 448 322 490 396 490 c 0
 506 490 560 432 560 308 c 2
 560 0 l 1
 530 0 l 1
 530 304 l 2
 530 410 490 462 396 462 c 0xbe
 328 462 280 427 210 356 c 1
 210 0 l 1
 180 0 l 1
 180 478 l 1
 206 478 l 1xde
 210 392 l 1
EndSplineSet
EndChar

StartChar: Omacron
Encoding: 332 332 150
Width: 600
Flags: MW
HStem: -12 30<237.5 362.5 237.5 371> 642 30<237.5 362.5> 736 28<190 410 190 410>
VStem: 56 34<237 427 237 436> 510 34<237 427>
LayerCount: 2
Fore
SplineSet
300 -12 m 0
 158 -12 56 124 56 332 c 0
 56 540 158 672 300 672 c 0
 442 672 544 540 544 332 c 0
 544 124 442 -12 300 -12 c 0
300 18 m 0
 425 18 510 142 510 332 c 0
 510 522 425 642 300 642 c 0
 175 642 90 522 90 332 c 0
 90 142 175 18 300 18 c 0
190 736 m 1
 190 764 l 1
 410 764 l 1
 410 736 l 1
 190 736 l 1
EndSplineSet
EndChar

StartChar: omacron
Encoding: 333 333 330
Width: 600
Flags: MW
HStem: -12 28<243 357 243 362.5> 462 28<243 357> 608 28<190 410 190 410>
VStem: 70 32<172 304 172 318> 498 32<172 304>
LayerCount: 2
Fore
SplineSet
70 238 m 0
 70 398 175 490 300 490 c 0
 425 490 530 398 530 238 c 0
 530 80 425 -12 300 -12 c 0
 175 -12 70 80 70 238 c 0
102 238 m 0
 102 106 186 16 300 16 c 0
 414 16 498 106 498 238 c 0
 498 370 414 462 300 462 c 0
 186 462 102 370 102 238 c 0
190 608 m 1
 190 636 l 1
 410 636 l 1
 410 608 l 1
 190 608 l 1
EndSplineSet
EndChar

StartChar: uni014E
Encoding: 334 334 151
Width: 600
Flags: MW
HStem: -12 30<237.5 362.5 237.5 371> 642 30<237.5 362.5> 712 26<273 327 273 337>
VStem: 56 34<237 427 237 436> 188 26<814 814> 510 34<237 427>
LayerCount: 2
Fore
SplineSet
300 -12 m 0
 158 -12 56 124 56 332 c 0
 56 540 158 672 300 672 c 0
 442 672 544 540 544 332 c 0
 544 124 442 -12 300 -12 c 0
300 18 m 0
 425 18 510 142 510 332 c 0
 510 522 425 642 300 642 c 0
 175 642 90 522 90 332 c 0
 90 142 175 18 300 18 c 0
300 712 m 0
 226 712 194 772 188 814 c 1
 214 814 l 1
 220 778 246 738 300 738 c 0
 354 738 380 778 386 814 c 1
 412 814 l 1
 406 772 374 712 300 712 c 0
EndSplineSet
EndChar

StartChar: uni014F
Encoding: 335 335 331
Width: 600
Flags: MW
HStem: -12 28<243 357 243 362.5> 462 28<243 357> 576 26<272 328 272 340>
VStem: 70 32<172 304 172 318> 184 26<692 692> 390 26<692 692> 498 32<172 304>
LayerCount: 2
Fore
SplineSet
70 238 m 0
 70 398 175 490 300 490 c 0
 425 490 530 398 530 238 c 0
 530 80 425 -12 300 -12 c 0
 175 -12 70 80 70 238 c 0
102 238 m 0
 102 106 186 16 300 16 c 0
 414 16 498 106 498 238 c 0
 498 370 414 462 300 462 c 0
 186 462 102 370 102 238 c 0
300 576 m 0
 220 576 190 644 184 692 c 1
 210 692 l 1
 216 648 244 602 300 602 c 0
 356 602 384 648 390 692 c 1
 416 692 l 1
 410 644 380 576 300 576 c 0
EndSplineSet
EndChar

StartChar: Ohungarumlaut
Encoding: 336 336 152
Width: 600
Flags: MW
HStem: -12 30<237.5 362.5 237.5 371> 642 30<237.5 362.5> 710 104<214 320 214 320 282 382 282 354>
VStem: 56 34<237 427 237 436> 510 34<237 427>
LayerCount: 2
Fore
SplineSet
300 -12 m 0
 158 -12 56 124 56 332 c 0
 56 540 158 672 300 672 c 0
 442 672 544 540 544 332 c 0
 544 124 442 -12 300 -12 c 0
300 18 m 0
 425 18 510 142 510 332 c 0
 510 522 425 642 300 642 c 0
 175 642 90 522 90 332 c 0
 90 142 175 18 300 18 c 0
242 710 m 1
 214 710 l 1
 282 814 l 1
 320 814 l 1
 242 710 l 1
354 710 m 1
 422 814 l 1
 460 814 l 1
 382 710 l 1
 354 710 l 1
EndSplineSet
EndChar

StartChar: ohungarumlaut
Encoding: 337 337 332
Width: 600
Flags: MW
HStem: -12 28<243 357 243 362.5> 462 28<243 357> 570 136<224 332 224 332 296 378 296 352>
VStem: 70 32<172 304 172 318> 498 32<172 304>
LayerCount: 2
Fore
SplineSet
70 238 m 0
 70 398 175 490 300 490 c 0
 425 490 530 398 530 238 c 0
 530 80 425 -12 300 -12 c 0
 175 -12 70 80 70 238 c 0
102 238 m 0
 102 106 186 16 300 16 c 0
 414 16 498 106 498 238 c 0
 498 370 414 462 300 462 c 0
 186 462 102 370 102 238 c 0
224 570 m 1
 296 706 l 1
 332 706 l 1
 250 570 l 1
 224 570 l 1
352 570 m 1
 424 706 l 1
 460 706 l 1
 378 570 l 1
 352 570 l 1
EndSplineSet
EndChar

StartChar: OE
Encoding: 338 338 162
Width: 600
GlyphClass: 2
Flags: MW
HStem: 0 28<298 303 303 323 356 588> 338 28<356 526 356 526> 634 27<356 578 356 356>
VStem: 44 33<245 419.5 245 430.5> 323 33<28 338 366 633 633 633>
AnchorPoint: "Anchor-0" 420 682 basechar 0
LayerCount: 2
Fore
SplineSet
44 332 m 0
 44 529 130 661 302 661 c 2
 578 661 l 1
 578 634 l 1
 356 634 l 1
 356 366 l 1
 526 366 l 1
 526 338 l 1
 356 338 l 1
 356 28 l 1
 588 28 l 1
 588 0 l 1
 303 0 l 2
 131 0 44 136 44 332 c 0
77 332 m 0
 77 158 144 28 298 28 c 2
 323 28 l 1
 323 633 l 1
 298 633 l 2
 144 633 77 507 77 332 c 0
EndSplineSet
EndChar

StartChar: oe
Encoding: 339 339 342
Width: 600
GlyphClass: 2
Flags: MW
HStem: -12 26<134.5 212.5> 238 26<343 570 343 598 343 570> 463 27<134.5 212 130 218>
VStem: 10 32<173 305 173 318.5> 312 31<174.5 238 174.5 264 174.5 305> 570 30<276 316>
AnchorPoint: "Anchor-0" 322 500 basechar 0
LayerCount: 2
Fore
SplineSet
42 239 m 0
 42 107 91 14 178 14 c 0
 258 14 312 107 312 239 c 0
 312 371 258 463 178 463 c 0
 91 463 42 371 42 239 c 0
10 239 m 0
 10 398 81 490 179 490 c 0
 245 490 298 439 326 348 c 1
 354 436 396 490 470 490 c 0
 557 490 600 394 600 282 c 0
 600 270 600 258 598 238 c 1
 343 238 l 1
 343 111 386 15 480 15 c 0
 519 15 546 32 574 50 c 1
 586 28 l 1
 559 10 529 -12 479 -12 c 0
 407 -12 354 37 326 128 c 1
 298 37 245 -12 180 -12 c 0
 81 -12 10 80 10 239 c 0
343 264 m 1
 570 264 l 1
 570 368 545 462 468 462 c 0
 389 462 351 381 343 264 c 1
EndSplineSet
EndChar

StartChar: racute
Encoding: 341 341 350
Width: 600
Flags: MW
HStem: 0 21G<170 170 170 200> 458 20G<170 196 196 196> 460 30<385.5 446>
VStem: 170 30<0 306>
LayerCount: 2
Fore
SplineSet
170 0 m 1xb0
 170 478 l 1
 196 478 l 1xd0
 200 358 l 1
 202 358 l 1
 254 434 333 490 431 490 c 0
 462 490 497 486 528 470 c 1
 518 442 l 1
 482 455 465 460 427 460 c 0
 344 460 270 418 200 306 c 1
 200 0 l 1
 170 0 l 1xb0
424 706 m 1
 320 572 l 1
 292 572 l 1
 384 706 l 1
 424 706 l 1
EndSplineSet
EndChar

StartChar: uni0156
Encoding: 342 342 172
Width: 600
Flags: MW
HStem: -206 26<250 256> 0 21G<124 156 124 124 490 528 490 490> 312 28<156 294 294 304 156 294> 632 28<156 294 156 156>
VStem: 124 32<0 312 0 340 340 632> 344 30<-142 -112> 484 34<439 542>
LayerCount: 2
Fore
SplineSet
286 -78 m 1
 296 -52 l 1
 346 -64 374 -84 374 -124 c 0
 374 -174 316 -198 256 -206 c 1
 250 -180 l 1
 306 -172 344 -156 344 -128 c 0
 344 -96 314 -84 286 -78 c 1
156 340 m 1
 294 340 l 2
 416 340 484 388 484 490 c 0
 484 594 416 632 294 632 c 2
 156 632 l 1
 156 340 l 1
340 314 m 1
 528 0 l 1
 490 0 l 1
 304 312 l 1
 156 312 l 1
 156 0 l 1
 124 0 l 1
 124 660 l 1
 306 660 l 2
 436 660 518 612 518 490 c 0
 518 385 450 324 340 314 c 1
EndSplineSet
EndChar

StartChar: uni0157
Encoding: 343 343 351
Width: 600
Flags: MW
HStem: -206 26<128 134> 0 21G<170 170 170 200> 458 20G<170 196 196 196> 460 30<385.5 446>
VStem: 170 30<0 306> 222 30<-142 -112>
LayerCount: 2
Fore
SplineSet
170 0 m 1x58
 170 478 l 1
 196 478 l 1x68
 200 358 l 1
 202 358 l 1
 254 434 333 490 431 490 c 0
 462 490 497 486 528 470 c 1
 518 442 l 1
 482 455 465 460 427 460 c 0
 344 460 270 418 200 306 c 1
 200 0 l 1
 170 0 l 1x58
174 -52 m 1xdc
 224 -64 252 -84 252 -124 c 0
 252 -174 194 -198 134 -206 c 1
 128 -180 l 1
 184 -172 222 -156 222 -128 c 0
 222 -96 192 -84 164 -78 c 1
 174 -52 l 1xdc
EndSplineSet
EndChar

StartChar: Rcaron
Encoding: 344 344 171
Width: 600
Flags: MW
HStem: 0 21G<124 156 124 124 490 528 490 490> 312 28<156 294 294 304 156 294> 632 28<156 294 156 156> 710 30<304 308 304 320 292 308>
VStem: 124 32<0 312 0 340 340 632> 484 34<439 542>
LayerCount: 2
Fore
SplineSet
320 710 m 1
 292 710 l 1
 196 814 l 1
 226 814 l 1
 304 740 l 1
 308 740 l 1
 386 814 l 1
 416 814 l 1
 320 710 l 1
156 340 m 1
 294 340 l 2
 416 340 484 388 484 490 c 0
 484 594 416 632 294 632 c 2
 156 632 l 1
 156 340 l 1
528 0 m 1
 490 0 l 1
 304 312 l 1
 156 312 l 1
 156 0 l 1
 124 0 l 1
 124 660 l 1
 306 660 l 2
 436 660 518 612 518 490 c 0
 518 385 450 324 340 314 c 1
 528 0 l 1
EndSplineSet
EndChar

StartChar: rcaron
Encoding: 345 345 352
Width: 600
Flags: MW
HStem: 0 21G<170 170 170 200> 458 20G<170 196 196 196> 460 30<385.5 446> 572 32<330 346 342 346 342 358>
VStem: 170 30<0 306>
LayerCount: 2
Fore
SplineSet
170 0 m 1xb8
 170 478 l 1
 196 478 l 1xd8
 200 358 l 1
 202 358 l 1
 254 434 333 490 431 490 c 0
 462 490 497 486 528 470 c 1
 518 442 l 1
 482 455 465 460 427 460 c 0
 344 460 270 418 200 306 c 1
 200 0 l 1
 170 0 l 1xb8
330 572 m 1
 236 706 l 1
 264 706 l 1
 342 604 l 1
 346 604 l 1
 424 706 l 1
 452 706 l 1
 358 572 l 1
 330 572 l 1
EndSplineSet
EndChar

StartChar: Scircumflex
Encoding: 348 348 177
Width: 600
Flags: MW
HStem: -12 30<268 366 268 375> 642 30<263 348> 784 30<312 316 312 312>
VStem: 116 32<475 554 475 561> 494 32<118 204>
LayerCount: 2
Fore
SplineSet
80 88 m 1
 102 110 l 1
 152 54 226 18 310 18 c 0
 422 18 494 76 494 160 c 0
 494 248 433 276 362 306 c 1
 260 352 l 1
 200 377 116 416 116 514 c 0
 116 608 200 672 312 672 c 0
 396 672 462 635 502 594 c 1
 482 572 l 1
 442 614 384 642 312 642 c 0
 214 642 148 592 148 516 c 0
 148 434 223 403 274 382 c 1
 376 336 l 1
 454 303 526 264 526 162 c 0
 526 62 440 -12 310 -12 c 0
 208 -12 132 30 80 88 c 1
234 710 m 1
 204 710 l 1
 300 814 l 1
 328 814 l 1
 424 710 l 1
 394 710 l 1
 316 784 l 1
 312 784 l 1
 234 710 l 1
EndSplineSet
EndChar

StartChar: uni015E
Encoding: 350 350 179
Width: 600
Flags: MW
HStem: -206 26<242 248> -12 30<301 301> 642 30<263 348>
VStem: 116 32<475 554 475 561> 336 30<-142 -112> 494 32<118 204>
LayerCount: 2
Fore
SplineSet
274 382 m 1
 376 336 l 1
 454 303 526 264 526 162 c 0
 526 67 448 -5 329 -11 c 1
 306 -56 l 1
 338 -66 366 -84 366 -124 c 0
 366 -174 308 -198 248 -206 c 1
 242 -180 l 1
 298 -172 336 -156 336 -128 c 0
 336 -96 306 -84 268 -74 c 1
 301 -12 l 1
 203 -9 130 32 80 88 c 1
 102 110 l 1
 152 54 226 18 310 18 c 0
 422 18 494 76 494 160 c 0
 494 248 433 276 362 306 c 1
 260 352 l 1
 200 377 116 416 116 514 c 0
 116 608 200 672 312 672 c 0
 396 672 462 635 502 594 c 1
 482 572 l 1
 442 614 384 642 312 642 c 0
 214 642 148 592 148 516 c 0
 148 434 223 403 274 382 c 1
EndSplineSet
EndChar

StartChar: uni015F
Encoding: 351 351 359
Width: 600
Flags: MW
HStem: -206 26<246 252> -12 28<305 305 333 333> 462 28<237.5 326.5 232.5 327.5>
VStem: 114 32<344 392 344 399> 340 30<-142 -112> 482 32<91 141>
LayerCount: 2
Fore
SplineSet
476 432 m 1
 458 408 l 1
 416 440 361 462 294 462 c 0
 181 462 146 416 146 368 c 0
 146 320 210 288 312 263 c 0
 470 224 514 186 514 120 c 0
 514 52 448 -8 333 -12 c 1
 310 -56 l 1
 342 -66 370 -84 370 -124 c 0
 370 -174 312 -198 252 -206 c 1
 246 -180 l 1
 302 -172 340 -156 340 -128 c 0
 340 -96 310 -84 272 -74 c 1
 305 -12 l 1
 213 -8 140 25 87 64 c 1
 106 88 l 1
 158 44 220 16 324 16 c 0
 428 16 482 64 482 118 c 0
 482 164 454 199 304 234 c 0
 193 260 114 304 114 366 c 0
 114 432 169 490 296 490 c 0
 357 490 431 466 476 432 c 1
EndSplineSet
EndChar

StartChar: uni0162
Encoding: 354 354 185
Width: 600
Flags: MW
HStem: -206 26<222 228> 0 21G<284 287 284 284 315 316 315 315> 632 28<50 284 50 550 316 316 316 550>
VStem: 284 32<0 632> 316 30<-142 -112>
LayerCount: 2
Fore
SplineSet
316 0 m 1x70
 315 0 l 1x70
 286 -56 l 1
 318 -66 346 -84 346 -124 c 0
 346 -174 288 -198 228 -206 c 1
 222 -180 l 1
 278 -172 316 -156 316 -128 c 0
 316 -96 286 -84 248 -74 c 1xe8
 287 0 l 1
 284 0 l 1
 284 632 l 1
 50 632 l 1
 50 660 l 1
 550 660 l 1
 550 632 l 1
 316 632 l 1
 316 0 l 1x70
EndSplineSet
EndChar

StartChar: uni0163
Encoding: 355 355 365
Width: 600
Flags: MW
HStem: -206 26<308 314> -12 28<395 395.5 395 397> -10 26<367 367> 450 28<84 232 262 524>
VStem: 232 30<176 450> 402 30<-142 -112>
LayerCount: 2
Fore
SplineSet
395 -12 m 2x5c
 372 -56 l 1x5c
 404 -66 432 -84 432 -124 c 0
 432 -174 374 -198 314 -206 c 1
 308 -180 l 1
 364 -172 402 -156 402 -128 c 0
 402 -96 372 -84 334 -74 c 1
 367 -10 l 1xbc
 264 1 232 73 232 176 c 2
 232 450 l 1
 84 450 l 1
 84 474 l 1
 232 478 l 1
 236 618 l 1
 262 618 l 1
 262 478 l 1
 524 478 l 1
 524 450 l 1
 262 450 l 1
 262 172 l 2
 262 76 288 16 399 16 c 0
 452 16 493 26 532 42 c 1
 542 18 l 1
 499 0 441 -12 397 -12 c 0
 396 -12 396 -12 395 -12 c 2x5c
EndSplineSet
EndChar

StartChar: Tcaron
Encoding: 356 356 184
Width: 600
Flags: MW
HStem: 0 21G<284 284 284 316> 632 28<50 284 50 550 316 316 316 550> 632 182<189 219 189 284 50 219 189 316 379 409> 710 30<297 301 297 313 285 301>
VStem: 284 32<0 632 0 632>
LayerCount: 2
Fore
SplineSet
284 0 m 1xd8
 284 632 l 1
 50 632 l 1
 50 660 l 1
 550 660 l 1
 550 632 l 1
 316 632 l 1
 316 0 l 1
 284 0 l 1xd8
379 814 m 1xa8
 409 814 l 1xa8
 313 710 l 1
 285 710 l 1xd8
 189 814 l 1
 219 814 l 1xa8
 297 740 l 1
 301 740 l 1xd8
 379 814 l 1xa8
EndSplineSet
EndChar

StartChar: tcaron
Encoding: 357 357 364
Width: 600
GlyphClass: 3
Flags: MW
HStem: -12 28<343.5 419> 450 28<84 232 262 524> 548 204<400 422 400 400>
VStem: 232 30<176 450> 399 29
LayerCount: 2
Fore
SplineSet
232 176 m 2
 232 450 l 1
 84 450 l 1
 84 474 l 1
 232 478 l 1
 236 618 l 1
 262 618 l 1
 262 478 l 1
 524 478 l 1
 524 450 l 1
 262 450 l 1
 262 172 l 2
 262 76 288 16 399 16 c 0
 452 16 493 26 532 42 c 1
 542 18 l 1
 499 0 441 -12 397 -12 c 0
 270 -12 232 64 232 176 c 2
422 548 m 1
 400 548 l 1
 398 752 l 1
 428 752 l 1
 428 704 l 1
 422 548 l 1
EndSplineSet
Ligature2: "'ccmp' Glyph Composition/Decomposition in Latin lookup 6 subtable" t uni030C
EndChar

StartChar: Utilde
Encoding: 360 360 192
Width: 600
Flags: MW
HStem: -12 30<254 347 254 352> 640 20G<92 124 124 124 478 508 508 508> 718 28<339 371 339 380> 776 28<229 261>
VStem: 92 32<246 254 254 660> 176 22<718 718> 402 22<804 804> 478 30<254 660>
LayerCount: 2
Fore
SplineSet
92 246 m 2
 92 660 l 1
 124 660 l 1
 124 254 l 2
 124 72 208 18 300 18 c 0
 394 18 478 72 478 254 c 2
 478 660 l 1
 508 660 l 1
 508 246 l 2
 508 42 404 -12 300 -12 c 0
 196 -12 92 42 92 246 c 2
358 718 m 0xff
 306 718 282 776 240 776 c 0xdf
 218 776 202 752 198 718 c 1
 176 718 l 1
 178 756 198 804 242 804 c 0
 294 804 318 746 360 746 c 0xff
 382 746 398 770 402 804 c 1
 424 804 l 1xdf
 422 766 402 718 358 718 c 0xff
EndSplineSet
EndChar

StartChar: utilde
Encoding: 361 361 373
Width: 600
Flags: MW
HStem: -12 28<213.5 300 213.5 303> 0 21G<464 490 464 464> 458 20G<90 120 120 120 460 490 490 490> 582 26<332.5 361 332.5 371.5> 638 26<227 256.5>
VStem: 90 30<180 184 184 478> 176 24<582 582> 388 24<664 664> 460 30<96 96 132 478 0 478>
LayerCount: 2
Fore
SplineSet
490 478 m 1xaf80
 490 0 l 1
 464 0 l 1x6f80
 460 96 l 1
 456 96 l 1
 403 34 342 -12 264 -12 c 0
 147 -12 90 49 90 180 c 2
 90 478 l 1
 120 478 l 1
 120 184 l 2
 120 71 163 16 264 16 c 0
 336 16 390 53 460 132 c 1
 460 478 l 1
 490 478 l 1xaf80
176 582 m 1
 178 618 193 664 240 664 c 0xaf80
 288 664 315 608 350 608 c 0
 372 608 384 630 388 664 c 1
 412 664 l 1
 410 629 395 582 348 582 c 0xbf80
 300 582 275 638 238 638 c 0
 216 638 204 617 200 582 c 1
 176 582 l 1
EndSplineSet
EndChar

StartChar: umacron
Encoding: 363 363 375
Width: 600
Flags: MW
HStem: -12 28<213.5 300 213.5 303> 0 21G<464 490 464 464> 458 20G<90 120 120 120 460 490 490 490> 608 28<184 404 184 404>
VStem: 90 30<180 184 184 478> 460 30<96 96 132 478 0 478>
LayerCount: 2
Fore
SplineSet
490 478 m 1xbc
 490 0 l 1
 464 0 l 1x7c
 460 96 l 1
 456 96 l 1
 403 34 342 -12 264 -12 c 0
 147 -12 90 49 90 180 c 2
 90 478 l 1
 120 478 l 1
 120 184 l 2
 120 71 163 16 264 16 c 0
 336 16 390 53 460 132 c 1
 460 478 l 1
 490 478 l 1xbc
184 608 m 1
 184 636 l 1
 404 636 l 1
 404 608 l 1
 184 608 l 1
EndSplineSet
EndChar

StartChar: Ubreve
Encoding: 364 364 195
Width: 600
Flags: MW
HStem: -12 30<254 347 254 352> 640 20G<92 124 124 124 478 508 508 508> 712 26<273 327 273 337>
VStem: 92 32<246 254 254 660> 188 26<814 814> 478 30<254 660>
LayerCount: 2
Fore
SplineSet
92 246 m 2
 92 660 l 1
 124 660 l 1
 124 254 l 2
 124 72 208 18 300 18 c 0
 394 18 478 72 478 254 c 2
 478 660 l 1
 508 660 l 1
 508 246 l 2
 508 42 404 -12 300 -12 c 0
 196 -12 92 42 92 246 c 2
300 712 m 0
 226 712 194 772 188 814 c 1
 214 814 l 1
 220 778 246 738 300 738 c 0
 354 738 380 778 386 814 c 1
 412 814 l 1
 406 772 374 712 300 712 c 0
EndSplineSet
EndChar

StartChar: ubreve
Encoding: 365 365 376
Width: 600
Flags: MW
HStem: -12 28<213.5 300 213.5 303> 0 21G<464 490 464 464> 458 20G<90 120 120 120 460 490 490 490> 576 26<266 322 266 334>
VStem: 90 30<180 184 184 478> 178 26<692 692> 384 26<692 692> 460 30<96 96 132 478 0 478>
LayerCount: 2
Fore
SplineSet
490 478 m 1xb9
 490 0 l 1
 464 0 l 1x7f
 460 96 l 1
 456 96 l 1
 403 34 342 -12 264 -12 c 0
 147 -12 90 49 90 180 c 2
 90 478 l 1
 120 478 l 1
 120 184 l 2
 120 71 163 16 264 16 c 0
 336 16 390 53 460 132 c 1
 460 478 l 1
 490 478 l 1xb9
294 576 m 0
 214 576 184 644 178 692 c 1
 204 692 l 1
 210 648 238 602 294 602 c 0
 350 602 378 648 384 692 c 1
 410 692 l 1
 404 644 374 576 294 576 c 0
EndSplineSet
EndChar

StartChar: Uring
Encoding: 366 366 196
Width: 600
Flags: MW
HStem: -12 30<254 347 254 352> 640 20G<92 124 124 124 478 508 508 508> 700 22<285 314 285 321> 838 22<285 314>
VStem: 92 32<246 254 254 660> 222 24<761 798 761 804> 352 26<761 798> 478 30<254 660>
LayerCount: 2
Fore
SplineSet
92 246 m 2
 92 660 l 1
 124 660 l 1
 124 254 l 2
 124 72 208 18 300 18 c 0
 394 18 478 72 478 254 c 2
 478 660 l 1
 508 660 l 1
 508 246 l 2
 508 42 404 -12 300 -12 c 0
 196 -12 92 42 92 246 c 2
300 700 m 0
 256 700 222 732 222 780 c 0
 222 828 256 860 300 860 c 0
 342 860 378 828 378 780 c 0
 378 732 342 700 300 700 c 0
300 722 m 0
 328 722 352 742 352 780 c 0
 352 816 328 838 300 838 c 0
 270 838 246 816 246 780 c 0
 246 742 270 722 300 722 c 0
EndSplineSet
EndChar

StartChar: uring
Encoding: 367 367 377
Width: 600
Flags: MW
HStem: -12 28<213.5 300 213.5 303> 0 21G<464 490 464 464> 458 20G<90 120 120 120 460 490 490 490> 538 22<279 309 279 316> 684 22<279 309>
VStem: 90 30<180 184 184 478> 216 24<603 641 603 647> 348 24<603 641> 460 30<96 96 132 478 0 478>
LayerCount: 2
Fore
SplineSet
490 478 m 1xbf80
 490 0 l 1
 464 0 l 1x7f80
 460 96 l 1
 456 96 l 1
 403 34 342 -12 264 -12 c 0
 147 -12 90 49 90 180 c 2
 90 478 l 1
 120 478 l 1
 120 184 l 2
 120 71 163 16 264 16 c 0
 336 16 390 53 460 132 c 1
 460 478 l 1
 490 478 l 1xbf80
294 538 m 0
 250 538 216 572 216 622 c 0
 216 672 250 706 294 706 c 0
 338 706 372 672 372 622 c 0
 372 572 338 538 294 538 c 0
294 560 m 0
 324 560 348 584 348 622 c 0
 348 660 324 684 294 684 c 0
 264 684 240 660 240 622 c 0
 240 584 264 560 294 560 c 0
EndSplineSet
EndChar

StartChar: Uhungarumlaut
Encoding: 368 368 197
Width: 600
Flags: MW
HStem: -12 30<254 347 254 352> 640 20G<92 124 124 124 478 508 508 508> 710 104<214 320 214 320 282 382 282 354>
VStem: 92 32<246 254 254 660> 478 30<254 660>
LayerCount: 2
Fore
SplineSet
92 246 m 2
 92 660 l 1
 124 660 l 1
 124 254 l 2
 124 72 208 18 300 18 c 0
 394 18 478 72 478 254 c 2
 478 660 l 1
 508 660 l 1
 508 246 l 2
 508 42 404 -12 300 -12 c 0
 196 -12 92 42 92 246 c 2
242 710 m 1
 214 710 l 1
 282 814 l 1
 320 814 l 1
 242 710 l 1
354 710 m 1
 422 814 l 1
 460 814 l 1
 382 710 l 1
 354 710 l 1
EndSplineSet
EndChar

StartChar: uhungarumlaut
Encoding: 369 369 378
Width: 600
Flags: MW
HStem: -12 28<213.5 300 213.5 303> 0 21G<464 490 464 464> 458 20G<90 120 120 120 460 490 490 490> 570 136<218 326 218 326 290 372 290 346>
VStem: 90 30<180 184 184 478> 460 30<96 96 132 478 0 478>
LayerCount: 2
Fore
SplineSet
490 478 m 1xbc
 490 0 l 1
 464 0 l 1x7c
 460 96 l 1
 456 96 l 1
 403 34 342 -12 264 -12 c 0
 147 -12 90 49 90 180 c 2
 90 478 l 1
 120 478 l 1
 120 184 l 2
 120 71 163 16 264 16 c 0
 336 16 390 53 460 132 c 1
 460 478 l 1
 490 478 l 1xbc
218 570 m 1
 290 706 l 1
 326 706 l 1
 244 570 l 1
 218 570 l 1
346 570 m 1
 418 706 l 1
 454 706 l 1
 372 570 l 1
 346 570 l 1
EndSplineSet
EndChar

StartChar: Uogonek
Encoding: 370 370 205
Width: 600
GlyphClass: 2
Flags: MW
HStem: -202 28<317 338> -11 29 640 20G<92 124 124 124 478 508 508 508>
VStem: 92 32<246 254 254 660> 248 30<-138 -99 -138 -97> 478 30<254 660>
AnchorPoint: "Anchor-0" 299 682 basechar 0
LayerCount: 2
Fore
SplineSet
92 246 m 2
 92 660 l 1
 124 660 l 1
 124 254 l 2
 124 72 206 18 299 18 c 0
 392 18 478 72 478 254 c 2
 478 660 l 1
 508 660 l 1
 508 246 l 2
 508 99 452 32 384 2 c 0
 320 -26 278 -78 278 -120 c 0
 278 -156 304 -174 330 -174 c 0
 348 -174 360 -170 374 -160 c 1
 388 -180 l 1
 374 -192 348 -202 328 -202 c 0
 284 -202 248 -176 248 -122 c 0
 248 -72 282 -43 314 -11 c 1
 164 -16 92 74 92 246 c 2
EndSplineSet
Ligature2: "'ccmp' Glyph Composition/Decomposition in Latin lookup 6 subtable" U uni0328
EndChar

StartChar: uogonek
Encoding: 371 371 386
Width: 600
GlyphClass: 2
Flags: MW
HStem: -202 28<441 462> -12 28<213.5 300 213.5 303> 0 21G<490 490> 458 20G<90 120 120 120 460 490 490 490>
VStem: 90 30<180 184 184 478> 374 30<-138 -98 -138 -97> 460 30<96 96 132 478 0 478>
AnchorPoint: "Anchor-0" 294 500 basechar 0
LayerCount: 2
Fore
SplineSet
490 478 m 1xde
 490 0 l 1xbe
 436 -36 404 -76 404 -120 c 0
 404 -156 428 -174 454 -174 c 0
 472 -174 484 -170 498 -160 c 1
 512 -180 l 1
 498 -192 472 -202 452 -202 c 0
 408 -202 374 -176 374 -122 c 0
 374 -72 408 -32 464 8 c 1
 460 96 l 1
 456 96 l 1
 403 34 342 -12 264 -12 c 0
 147 -12 90 49 90 180 c 2
 90 478 l 1
 120 478 l 1
 120 184 l 2
 120 71 163 16 264 16 c 0
 336 16 390 53 460 132 c 1
 460 478 l 1
 490 478 l 1xde
EndSplineSet
Ligature2: "'ccmp' Glyph Composition/Decomposition in Latin lookup 6 subtable" u uni0328
EndChar

StartChar: Ycircumflex
Encoding: 374 374 218
Width: 600
Flags: MW
HStem: 0 21G<284 284 284 316> 640 20G<56 88 88 88 514 544 544 544> 784 30<298 302 298 298>
VStem: 284 32<0 245 0 245>
LayerCount: 2
Fore
SplineSet
284 0 m 1
 284 245 l 1
 56 660 l 1
 88 660 l 1
 212 434 l 1
 243 383 269 331 300 278 c 1
 304 278 l 1
 336 331 365 383 394 435 c 1
 514 660 l 1
 544 660 l 1
 316 245 l 1
 316 0 l 1
 284 0 l 1
220 710 m 1
 190 710 l 1
 286 814 l 1
 314 814 l 1
 410 710 l 1
 380 710 l 1
 302 784 l 1
 298 784 l 1
 220 710 l 1
EndSplineSet
EndChar

StartChar: ycircumflex
Encoding: 375 375 399
Width: 600
Flags: MW
HStem: -222 30<116 163.5 116 171> 458 20G<64 96 96 96 506 536 536 536> 674 32<300 304 300 300>
VStem: 64 472<478 478>
LayerCount: 2
Fore
SplineSet
77 -184 m 1
 89 -188 107 -192 125 -192 c 0
 202 -192 251 -134 282 -56 c 2
 300 -12 l 1
 64 478 l 1
 96 478 l 1
 244 164 l 2
 263 124 288 72 312 30 c 1
 316 30 l 1
 336 72 357 124 374 164 c 2
 506 478 l 1
 536 478 l 1
 306 -68 l 1
 280 -142 220 -222 122 -222 c 0
 104 -222 80 -218 67 -212 c 1
 77 -184 l 1
194 572 m 1
 288 706 l 1
 316 706 l 1
 410 572 l 1
 382 572 l 1
 304 674 l 1
 300 674 l 1
 222 572 l 1
 194 572 l 1
EndSplineSet
EndChar

StartChar: Ydieresis
Encoding: 376 376 219
Width: 600
Flags: MW
HStem: 0 21G<284 284 284 316> 640 20G<56 88 88 88 514 544 544 544> 728 64<215 233 367 385>
VStem: 192 64<750 770> 284 32<0 245 0 245> 344 64<750 770>
LayerCount: 2
Fore
SplineSet
284 0 m 1
 284 245 l 1
 56 660 l 1
 88 660 l 1
 212 434 l 1
 243 383 269 331 300 278 c 1
 304 278 l 1
 336 331 365 383 394 435 c 1
 514 660 l 1
 544 660 l 1
 316 245 l 1
 316 0 l 1
 284 0 l 1
224 728 m 0xfc
 206 728 192 740 192 760 c 0
 192 780 206 792 224 792 c 0
 242 792 256 780 256 760 c 0
 256 740 242 728 224 728 c 0xfc
376 728 m 0
 358 728 344 740 344 760 c 0
 344 780 358 792 376 792 c 0
 394 792 408 780 408 760 c 0
 408 740 394 728 376 728 c 0
EndSplineSet
EndChar

StartChar: Zacute
Encoding: 377 377 224
Width: 600
Flags: MW
HStem: 0 28<109 533 109 533> 634 27<107 488 107 526> 634 180<378 422 378 488>
VStem: 72 461<0 19 19 19>
LayerCount: 2
Fore
SplineSet
72 0 m 1xd0
 72 19 l 1
 488 634 l 1
 107 634 l 1
 107 661 l 1
 526 661 l 1
 526 642 l 1
 109 28 l 1
 533 28 l 1
 533 0 l 1
 72 0 l 1xd0
422 814 m 1xb0
 314 710 l 1
 284 710 l 1
 378 814 l 1
 422 814 l 1xb0
EndSplineSet
EndChar

StartChar: zacute
Encoding: 378 378 405
Width: 600
Flags: MW
HStem: 0 28<120 524 120 524> 450 28<114 464 114 512>
VStem: 72 452<0 16 16 16>
LayerCount: 2
Fore
SplineSet
72 0 m 1
 72 16 l 1
 464 450 l 1
 114 450 l 1
 114 478 l 1
 512 478 l 1
 512 462 l 1
 120 28 l 1
 524 28 l 1
 524 0 l 1
 72 0 l 1
398 706 m 1
 294 572 l 1
 266 572 l 1
 358 706 l 1
 398 706 l 1
EndSplineSet
EndChar

StartChar: Zdotaccent
Encoding: 379 379 226
Width: 600
Flags: MW
HStem: 0 28<109 533 109 533> 634 27<107 488 107 526> 724 70<307 325>
VStem: 282 68<749 770>
LayerCount: 2
Fore
SplineSet
72 0 m 1
 72 19 l 1
 488 634 l 1
 107 634 l 1
 107 661 l 1
 526 661 l 1
 526 642 l 1
 109 28 l 1
 533 28 l 1
 533 0 l 1
 72 0 l 1
316 724 m 0
 298 724 282 738 282 760 c 0
 282 780 298 794 316 794 c 0
 334 794 350 780 350 760 c 0
 350 738 334 724 316 724 c 0
EndSplineSet
EndChar

StartChar: zdotaccent
Encoding: 380 380 407
Width: 600
Flags: MW
HStem: 0 28<120 524 120 524> 450 28<114 464 114 512> 600 84<307 329>
VStem: 278 80<629 655>
LayerCount: 2
Fore
SplineSet
72 0 m 1
 72 16 l 1
 464 450 l 1
 114 450 l 1
 114 478 l 1
 512 478 l 1
 512 462 l 1
 120 28 l 1
 524 28 l 1
 524 0 l 1
 72 0 l 1
318 600 m 0
 296 600 278 616 278 642 c 0
 278 668 296 684 318 684 c 0
 340 684 358 668 358 642 c 0
 358 616 340 600 318 600 c 0
EndSplineSet
EndChar

StartChar: Zcaron
Encoding: 381 381 225
Width: 600
Flags: MW
HStem: 0 28<109 533 109 533> 634 27<107 488 107 526> 634 180<206 236 396 426 107 236> 710 30<314 318 314 330 302 318>
VStem: 72 461<0 19 19 19>
LayerCount: 2
Fore
SplineSet
72 0 m 1xc8
 72 19 l 1
 488 634 l 1
 107 634 l 1
 107 661 l 1
 526 661 l 1
 526 642 l 1
 109 28 l 1
 533 28 l 1
 533 0 l 1
 72 0 l 1xc8
396 814 m 1xa8
 426 814 l 1xa8
 330 710 l 1
 302 710 l 1xd8
 206 814 l 1
 236 814 l 1xa8
 314 740 l 1
 318 740 l 1xd8
 396 814 l 1xa8
EndSplineSet
EndChar

StartChar: zcaron
Encoding: 382 382 406
Width: 600
Flags: MW
HStem: 0 28<120 524 120 524> 450 28<114 464 114 512> 572 32<304 320 316 320 316 332>
VStem: 72 452<0 16 16 16>
LayerCount: 2
Fore
SplineSet
72 0 m 1
 72 16 l 1
 464 450 l 1
 114 450 l 1
 114 478 l 1
 512 478 l 1
 512 462 l 1
 120 28 l 1
 524 28 l 1
 524 0 l 1
 72 0 l 1
304 572 m 1
 210 706 l 1
 238 706 l 1
 316 604 l 1
 320 604 l 1
 398 706 l 1
 426 706 l 1
 332 572 l 1
 304 572 l 1
EndSplineSet
EndChar

StartChar: uni0180
Encoding: 384 384 254
Width: 600
Flags: MW
HStem: -12 28<287.5 363 287.5 365.5> 0 21G<110 136 110 110> 442 28<297.5 386.5> 584 28<32 110 140 376> 584 138<32 140 32 140 110 140 110 376>
VStem: 110 30<54 54 92 348 488 584 612 722> 498 32<172 294>
LayerCount: 2
Fore
SplineSet
140 348 m 1xb6
 140 92 l 1
 200 37 267 16 308 16 c 0
 418 16 498 108 498 236 c 0
 498 352 449 442 324 442 c 0
 271 442 204 412 140 348 c 1xb6
140 488 m 1
 138 382 l 1
 191 434 262 470 326 470 c 0
 463 470 530 378 530 236 c 0
 530 80 425 -12 306 -12 c 0
 257 -12 191 14 142 54 c 1
 140 54 l 1xb6
 136 0 l 1
 110 0 l 1
 110 584 l 1
 32 584 l 1
 32 608 l 1
 110 612 l 1x76
 110 722 l 1
 140 722 l 1xae
 140 612 l 1
 376 612 l 1
 376 584 l 1
 140 584 l 1
 140 488 l 1
EndSplineSet
EndChar

StartChar: uni018F
Encoding: 399 399 230
Width: 600
GlyphClass: 2
Flags: MW
HStem: -12 28<240 359 240 371> 300 28<98 98 98 509> 644 28<274 371>
VStem: 66 32<298 328 298 328> 510 32<328 332 331.5 426>
AnchorPoint: "Anchor-2" 314 -22 basechar 0
AnchorPoint: "Anchor-0" 316 682 basechar 0
LayerCount: 2
Fore
SplineSet
98 300 m 1
 98 298 l 1
 108 126 182 16 298 16 c 0
 420 16 500 130 509 300 c 1
 98 300 l 1
154 576 m 1
 136 598 l 1
 174 640 230 672 302 672 c 0
 456 672 542 540 542 332 c 0
 542 124 444 -12 298 -12 c 0
 152 -12 66 132 66 326 c 0
 66 328 66 328 66 328 c 1
 510 328 l 1
 510 329 510 331 510 332 c 0
 510 520 438 644 304 644 c 0
 244 644 192 618 154 576 c 1
EndSplineSet
EndChar

StartChar: uni0192
Encoding: 402 402 635
Width: 600
Flags: MW
HStem: -98 28<116 168.5 116 173> 376 28<228 280 313 476 228 310> 630 20G<524 524> 644 28<396.5 452>
VStem: 286.5 30
LayerCount: 2
Fore
SplineSet
524 650 m 1xe8
 510 626 l 1
 490 638 468 644 436 644 c 0
 357 644 327 558 320 472 c 1
 313 404 l 1
 476 404 l 1
 476 376 l 1
 310 376 l 1
 280 100 l 1
 265 -24 222 -98 124 -98 c 0
 96 -98 73 -88 52 -78 c 1
 64 -54 l 1
 83 -62 104 -70 128 -70 c 0
 209 -70 239 6 250 98 c 1
 280 376 l 1
 162 376 l 1
 162 400 l 1
 228 404 l 1
 283 404 l 1
 290 470 l 2
 303 592 346 672 438 672 c 0xd8
 477 672 503 662 524 650 c 1xe8
EndSplineSet
EndChar

StartChar: Ohorn
Encoding: 416 416 163
Width: 600
GlyphClass: 2
Flags: MW
HStem: -12 30<237.5 362.5 237.5 371> 642 30<237.5 320.5 229 362.5>
VStem: 56 34<237 427 237 436> 506 30<690.5 716> 510 34<237 397 228 427>
AnchorPoint: "Anchor-2" 299 -22 basechar 0
AnchorPoint: "Anchor-0" 299 682 basechar 0
LayerCount: 2
Fore
SplineSet
300 18 m 0xe8
 425 18 510 142 510 332 c 0
 510 522 425 642 300 642 c 0
 175 642 90 522 90 332 c 0
 90 142 175 18 300 18 c 0xe8
492 748 m 1xf0
 518 764 l 1
 530 746 536 730 536 712 c 0xf0
 536 660 498 632 440 619 c 1
 504 562 544 462 544 332 c 0xe8
 544 124 442 -12 300 -12 c 0
 158 -12 56 124 56 332 c 0
 56 540 158 672 300 672 c 0
 341 672 379 661 411 640 c 1
 477 649 506 671 506 710 c 0
 506 722 502 734 492 748 c 1xf0
EndSplineSet
EndChar

StartChar: ohorn
Encoding: 417 417 343
Width: 600
GlyphClass: 2
Flags: MW
HStem: -12 28<243 357 243 362.5> 462 28<243 318 237.5 357>
VStem: 70 32<172 304 172 318> 498 32<172 286 159 304> 502 30<519 544>
AnchorPoint: "Anchor-2" 300 -22 basechar 0
AnchorPoint: "Anchor-0" 300 500 basechar 0
LayerCount: 2
Fore
SplineSet
300 16 m 0xf0
 414 16 498 106 498 238 c 0
 498 370 414 462 300 462 c 0
 186 462 102 370 102 238 c 0
 102 106 186 16 300 16 c 0xf0
488 576 m 1xe8
 514 592 l 1
 526 574 532 558 532 540 c 0xe8
 532 488 493 460 436 447 c 1
 492 405 530 334 530 238 c 0xf0
 530 80 425 -12 300 -12 c 0
 175 -12 70 80 70 238 c 0
 70 398 175 490 300 490 c 0
 336 490 371 482 402 467 c 1
 475 476 502 500 502 538 c 0
 502 550 498 562 488 576 c 1xe8
EndSplineSet
EndChar

StartChar: Uhorn
Encoding: 431 431 206
Width: 600
GlyphClass: 2
Flags: MW
HStem: -12 30<254 347 254 352> 640 20G<92 124 124 124 478 484 484 484>
VStem: 92 32<246 254 254 660> 478 30<254 638> 576 30<710 736>
AnchorPoint: "Anchor-2" 300 -22 basechar 0
AnchorPoint: "Anchor-0" 300 682 basechar 0
LayerCount: 2
Fore
SplineSet
562 768 m 1
 588 784 l 1
 600 766 606 750 606 732 c 0
 606 672 558 650 508 638 c 1
 508 246 l 2
 508 42 404 -12 300 -12 c 0
 196 -12 92 42 92 246 c 2
 92 660 l 1
 124 660 l 1
 124 254 l 2
 124 72 208 18 300 18 c 0
 394 18 478 72 478 254 c 2
 478 660 l 1
 484 660 l 1
 548 670 576 690 576 730 c 0
 576 742 572 754 562 768 c 1
EndSplineSet
EndChar

StartChar: uni01CF
Encoding: 463 463 123
Width: 600
Flags: MW
HStem: 0 28<112 284 112 284 316 488> 632 28<112 284 112 488 316 316 316 488> 710 30<298 302 298 314 286 302>
VStem: 284 32<28 632 28 632>
LayerCount: 2
Fore
SplineSet
112 0 m 1
 112 28 l 1
 284 28 l 1
 284 632 l 1
 112 632 l 1
 112 660 l 1
 488 660 l 1
 488 632 l 1
 316 632 l 1
 316 28 l 1
 488 28 l 1
 488 0 l 1
 112 0 l 1
380 814 m 1
 410 814 l 1
 314 710 l 1
 286 710 l 1
 190 814 l 1
 220 814 l 1
 298 740 l 1
 302 740 l 1
 380 814 l 1
EndSplineSet
EndChar

StartChar: uni01D0
Encoding: 464 464 299
Width: 600
Flags: MW
HStem: 0 21G<346 376 346 346> 450 28<100 376 100 346> 572 32<336 352 348 352 348 364>
VStem: 346 30<0 450 450 450>
LayerCount: 2
Fore
SplineSet
100 450 m 1
 100 478 l 1
 376 478 l 1
 376 0 l 1
 346 0 l 1
 346 450 l 1
 100 450 l 1
336 572 m 1
 242 706 l 1
 270 706 l 1
 348 604 l 1
 352 604 l 1
 430 706 l 1
 458 706 l 1
 364 572 l 1
 336 572 l 1
EndSplineSet
EndChar

StartChar: uni01D1
Encoding: 465 465 153
Width: 600
Flags: MW
HStem: -12 30<237.5 362.5 237.5 371> 642 30<237.5 362.5> 710 30<298 302 298 314 286 302>
VStem: 56 34<237 427 237 436> 510 34<237 427>
LayerCount: 2
Fore
SplineSet
300 -12 m 0
 158 -12 56 124 56 332 c 0
 56 540 158 672 300 672 c 0
 442 672 544 540 544 332 c 0
 544 124 442 -12 300 -12 c 0
300 18 m 0
 425 18 510 142 510 332 c 0
 510 522 425 642 300 642 c 0
 175 642 90 522 90 332 c 0
 90 142 175 18 300 18 c 0
380 814 m 1
 410 814 l 1
 314 710 l 1
 286 710 l 1
 190 814 l 1
 220 814 l 1
 298 740 l 1
 302 740 l 1
 380 814 l 1
EndSplineSet
EndChar

StartChar: uni01D2
Encoding: 466 466 333
Width: 600
Flags: MW
HStem: -12 28<243 357 243 362.5> 462 28<243 357> 572 32<286 302 298 302 298 314>
VStem: 70 32<172 304 172 318> 498 32<172 304>
LayerCount: 2
Fore
SplineSet
70 238 m 0
 70 398 175 490 300 490 c 0
 425 490 530 398 530 238 c 0
 530 80 425 -12 300 -12 c 0
 175 -12 70 80 70 238 c 0
102 238 m 0
 102 106 186 16 300 16 c 0
 414 16 498 106 498 238 c 0
 498 370 414 462 300 462 c 0
 186 462 102 370 102 238 c 0
286 572 m 1
 192 706 l 1
 220 706 l 1
 298 604 l 1
 302 604 l 1
 380 706 l 1
 408 706 l 1
 314 572 l 1
 286 572 l 1
EndSplineSet
EndChar

StartChar: uni01D4
Encoding: 468 468 379
Width: 600
Flags: MW
HStem: -12 28<213.5 300 213.5 303> 0 21G<464 490 464 464> 458 20G<90 120 120 120 460 490 490 490> 572 32<280 296 292 296 292 308>
VStem: 90 30<180 184 184 478> 460 30<96 96 132 478 0 478>
LayerCount: 2
Fore
SplineSet
490 478 m 1xbc
 490 0 l 1
 464 0 l 1x7c
 460 96 l 1
 456 96 l 1
 403 34 342 -12 264 -12 c 0
 147 -12 90 49 90 180 c 2
 90 478 l 1
 120 478 l 1
 120 184 l 2
 120 71 163 16 264 16 c 0
 336 16 390 53 460 132 c 1
 460 478 l 1
 490 478 l 1xbc
280 572 m 1
 186 706 l 1
 214 706 l 1
 292 604 l 1
 296 604 l 1
 374 706 l 1
 402 706 l 1
 308 572 l 1
 280 572 l 1
EndSplineSet
EndChar

StartChar: uni01D8
Encoding: 472 472 381
Width: 600
Flags: MW
HStem: -12 28<213.5 300 213.5 303> 0 21G<464 490 464 464> 458 20G<90 120 120 120 460 490 490 490> 602 64<209 227 361 379>
VStem: 90 30<180 184 184 478> 186 64<625 643> 338 64<625 643> 460 30<96 96 132 478 0 478>
LayerCount: 2
Fore
SplineSet
490 478 m 1xb9
 490 0 l 1
 464 0 l 1x7f
 460 96 l 1
 456 96 l 1
 403 34 342 -12 264 -12 c 0
 147 -12 90 49 90 180 c 2
 90 478 l 1
 120 478 l 1
 120 184 l 2
 120 71 163 16 264 16 c 0
 336 16 390 53 460 132 c 1
 460 478 l 1
 490 478 l 1xb9
254 706 m 1
 334 802 l 1
 376 802 l 1
 282 706 l 1
 254 706 l 1
218 602 m 0
 200 602 186 616 186 634 c 0
 186 652 200 666 218 666 c 0
 236 666 250 652 250 634 c 0
 250 616 236 602 218 602 c 0
370 602 m 0
 352 602 338 616 338 634 c 0
 338 652 352 666 370 666 c 0
 388 666 402 652 402 634 c 0
 402 616 388 602 370 602 c 0
EndSplineSet
EndChar

StartChar: uni01EA
Encoding: 490 490 169
Width: 600
GlyphClass: 2
Flags: MW
HStem: -202 28<322 343> -12 30 642 30<237.5 362.5>
VStem: 56 34<245 427 237 436> 253 30<-138 -103> 510 34<244 427>
AnchorPoint: "Anchor-0" 300 682 basechar 0
LayerCount: 2
Fore
SplineSet
379 -160 m 1
 393 -180 l 1
 379 -192 353 -202 333 -202 c 0
 289 -202 253 -176 253 -122 c 0
 253 -84 274 -44 313 -12 c 1
 134 -16 56 158 56 332 c 0
 56 540 158 672 300 672 c 0
 442 672 544 540 544 332 c 0
 544 156 476 44 368 -2 c 0
 312 -26 283 -80 283 -120 c 0
 283 -156 309 -174 335 -174 c 0
 353 -174 365 -170 379 -160 c 1
300 18 m 0
 425 18 510 142 510 332 c 0
 510 522 425 642 300 642 c 0
 175 642 90 522 90 332 c 0
 90 142 175 18 300 18 c 0
EndSplineSet
Ligature2: "'ccmp' Glyph Composition/Decomposition in Latin lookup 6 subtable" O uni0328
EndChar

StartChar: uni01EB
Encoding: 491 491 349
Width: 600
GlyphClass: 2
Flags: MW
HStem: -202 28<317 338> -12 28 462 28<243 357>
VStem: 70 32<172 304 172 318> 250 30<-138 -98 -138 -97> 498 32<172 304>
AnchorPoint: "Anchor-0" 300 500 basechar 0
LayerCount: 2
Fore
SplineSet
250 -122 m 0
 250 -72 284 -30 306 -12 c 1
 174 -14 70 80 70 238 c 0
 70 398 175 490 300 490 c 0
 425 490 530 398 530 238 c 0
 530 100 462 34 356 -8 c 1
 312 -28 280 -76 280 -120 c 0
 280 -156 304 -174 330 -174 c 0
 348 -174 360 -170 374 -160 c 1
 388 -180 l 1
 374 -192 348 -202 328 -202 c 0
 284 -202 250 -176 250 -122 c 0
102 238 m 0
 102 106 186 16 300 16 c 0
 414 16 498 106 498 238 c 0
 498 370 414 462 300 462 c 0
 186 462 102 370 102 238 c 0
EndSplineSet
Ligature2: "'ccmp' Glyph Composition/Decomposition in Latin lookup 6 subtable" o uni0328
EndChar

StartChar: uni0219
Encoding: 537 537 360
Width: 600
Flags: MW
HStem: -206 26<242 248> -12 28<272 376 272 383> 462 28<237.5 326.5 232.5 327.5>
VStem: 114 32<344 392 344 399> 336 30<-142 -112> 482 32<91 141>
LayerCount: 2
Fore
SplineSet
87 64 m 1
 106 88 l 1
 158 44 220 16 324 16 c 0
 428 16 482 64 482 118 c 0
 482 164 454 199 304 234 c 0
 193 260 114 304 114 366 c 0
 114 432 169 490 296 490 c 0
 357 490 431 466 476 432 c 1
 458 408 l 1
 416 440 361 462 294 462 c 0
 181 462 146 416 146 368 c 0
 146 320 210 288 312 263 c 0
 470 224 514 186 514 120 c 0
 514 50 444 -12 322 -12 c 0
 222 -12 143 23 87 64 c 1
288 -52 m 1
 338 -64 366 -84 366 -124 c 0
 366 -174 308 -198 248 -206 c 1
 242 -180 l 1
 298 -172 336 -156 336 -128 c 0
 336 -96 306 -84 278 -78 c 1
 288 -52 l 1
EndSplineSet
EndChar

StartChar: uni021A
Encoding: 538 538 186
Width: 600
Flags: MW
HStem: -206 26<231 237> 0 21G<284 284 284 316> 632 28<50 284 50 550 316 316 316 550>
VStem: 284 32<0 632 0 632> 325 30<-142 -112>
LayerCount: 2
Fore
SplineSet
284 0 m 1
 284 632 l 1
 50 632 l 1
 50 660 l 1
 550 660 l 1
 550 632 l 1
 316 632 l 1
 316 0 l 1
 284 0 l 1
277 -52 m 1xf8
 327 -64 355 -84 355 -124 c 0
 355 -174 297 -198 237 -206 c 1
 231 -180 l 1
 287 -172 325 -156 325 -128 c 0
 325 -96 295 -84 267 -78 c 1
 277 -52 l 1xf8
EndSplineSet
EndChar

StartChar: uni021B
Encoding: 539 539 366
Width: 600
Flags: MW
HStem: -206 26<318 324> -12 28<343.5 419> 450 28<84 232 262 524>
VStem: 232 30<176 450> 412 30<-142 -112>
LayerCount: 2
Fore
SplineSet
232 176 m 2
 232 450 l 1
 84 450 l 1
 84 474 l 1
 232 478 l 1
 236 618 l 1
 262 618 l 1
 262 478 l 1
 524 478 l 1
 524 450 l 1
 262 450 l 1
 262 172 l 2
 262 76 288 16 399 16 c 0
 452 16 493 26 532 42 c 1
 542 18 l 1
 499 0 441 -12 397 -12 c 0
 270 -12 232 64 232 176 c 2
364 -52 m 1
 414 -64 442 -84 442 -124 c 0
 442 -174 384 -198 324 -206 c 1
 318 -180 l 1
 374 -172 412 -156 412 -128 c 0
 412 -96 382 -84 354 -78 c 1
 364 -52 l 1
EndSplineSet
EndChar

StartChar: uni0237
Encoding: 567 567 411
Width: 600
GlyphClass: 2
Flags: MW
HStem: -234 28<177.5 257.5 177.5 263> 450 28<100 376 100 346>
VStem: 346 30<-52 -46 -46 450 450 450>
AnchorPoint: "Anchor-0" 350 500 basechar 0
LayerCount: 2
Fore
SplineSet
100 450 m 1
 100 478 l 1
 376 478 l 1
 376 -46 l 2
 376 -164 332 -234 194 -234 c 0
 151 -234 101 -220 66 -202 c 1
 80 -176 l 1
 111 -192 156 -206 199 -206 c 0
 316 -206 346 -143 346 -52 c 2
 346 450 l 1
 100 450 l 1
EndSplineSet
EndChar

StartChar: uni0243
Encoding: 579 579 77
Width: 600
Flags: MW
HStem: 0 28<152 292 292 304> 178 28<42 120 152 324> 338 28<152 272 272 292 152 272> 632 28<152 152 152 278>
VStem: 120 32<28 28 28 178 206 338 366 632> 474 32<465 549> 516 32<134 238 129 240>
LayerCount: 2
Fore
SplineSet
152 28 m 1
 292 28 l 2
 430 28 516 78 516 190 c 0
 516 290 434 338 292 338 c 2
 152 338 l 1
 152 206 l 1
 324 206 l 1
 324 178 l 1
 152 178 l 1
 152 28 l 1
152 632 m 1
 152 366 l 1
 272 366 l 2
 416 366 474 412 474 504 c 0xfe
 474 594 406 632 278 632 c 2
 152 632 l 1
388 356 m 1xfa
 388 352 l 1
 486 338 548 284 548 192 c 0xfa
 548 66 454 0 304 0 c 2
 120 0 l 1
 120 178 l 1
 42 178 l 1
 42 202 l 1
 120 206 l 1
 120 660 l 1
 292 660 l 2
 424 660 506 608 506 500 c 0xfe
 506 430 466 376 388 356 c 1xfa
EndSplineSet
EndChar

StartChar: uni0250
Encoding: 592 592 412
Width: 600
GlyphClass: 2
Flags: MW
HStem: -12 28<232 328 232 331> 458 20G<112 138 138 138> 462 28<314 380>
VStem: 112 30<168 180 138 206 206 370> 484 32<319 397>
AnchorPoint: "Anchor-2" 324 -22 basechar 0
AnchorPoint: "Anchor-0" 312 500 basechar 0
LayerCount: 2
Fore
SplineSet
516 361 m 0xb8
 516 254 406 204 142 180 c 1
 142 96 174 16 290 16 c 0
 366 16 439 56 476 84 c 1
 492 60 l 1
 458 34 374 -12 288 -12 c 0
 161 -12 112 72 112 168 c 2
 112 478 l 1
 138 478 l 1xd8
 142 404 l 1
 144 404 l 1
 200 449 276 490 348 490 c 0
 432 490 516 452 516 361 c 0xb8
484 360 m 0
 484 434 414 462 346 462 c 0
 282 462 214 431 142 370 c 1
 142 206 l 1
 400 230 484 278 484 360 c 0
EndSplineSet
EndChar

StartChar: uni0251
Encoding: 593 593 413
Width: 600
GlyphClass: 2
Flags: MW
HStem: -12 28<227 313.5 227 317> 0 21G<464 490 464 464> 458 20G<464 490 490 490> 462 28<242 322.5>
VStem: 70 32<172 300 172 315> 460 30<74 74 110 386 386 386 422 422>
AnchorPoint: "Anchor-2" 302 -22 basechar 0
AnchorPoint: "Anchor-0" 302 500 basechar 0
LayerCount: 2
Fore
SplineSet
102 238 m 0x9c
 102 106 170 16 284 16 c 0
 343 16 403 50 460 110 c 1
 460 386 l 1
 402 441 349 462 296 462 c 0
 188 462 102 362 102 238 c 0x9c
70 238 m 0
 70 392 177 490 298 490 c 0
 360 490 409 464 458 422 c 1
 460 422 l 1x9c
 464 478 l 1
 490 478 l 1
 490 0 l 1
 464 0 l 1x6c
 460 74 l 1
 458 74 l 1
 415 29 352 -12 282 -12 c 0
 156 -12 70 76 70 238 c 0
EndSplineSet
EndChar

StartChar: uni0252
Encoding: 594 594 414
Width: 600
GlyphClass: 2
Flags: MW
HStem: -12 28<287 363 287 366> 0 21G<110 136 110 110> 458 20G<110 136 136 136> 462 28<294.5 386.5>
VStem: 110 28 498 32<179 307>
AnchorPoint: "Anchor-2" 312 -22 basechar 0
AnchorPoint: "Anchor-0" 314 500 basechar 0
LayerCount: 2
Fore
SplineSet
498 246 m 0x9c
 498 368 449 462 324 462 c 0
 265 462 197 428 140 368 c 1
 140 92 l 1
 202 36 266 16 308 16 c 0
 418 16 498 112 498 246 c 0x9c
530 246 m 0
 530 84 426 -12 306 -12 c 0
 256 -12 192 14 142 54 c 1
 140 54 l 1x9c
 136 0 l 1
 110 0 l 1
 110 478 l 1
 136 478 l 1x6c
 140 404 l 1
 142 404 l 1
 185 449 256 490 326 490 c 0
 463 490 530 394 530 246 c 0
EndSplineSet
EndChar

StartChar: uni0254
Encoding: 596 596 415
Width: 600
GlyphClass: 2
Flags: MW
HStem: -12 28<225 325 225 331> 462 28<230 329>
VStem: 478 32<172 304>
AnchorPoint: "Anchor-2" 321 -22 basechar 0
AnchorPoint: "Anchor-0" 280 500 basechar 0
LayerCount: 2
Fore
SplineSet
510 238 m 0
 510 80 402 -12 260 -12 c 0
 182 -12 116 20 68 66 c 1
 86 88 l 1
 130 46 190 16 260 16 c 0
 390 16 478 106 478 238 c 0
 478 370 392 462 266 462 c 0
 194 462 141 434 100 394 c 1
 80 416 l 1
 119 454 175 490 266 490 c 0
 400 490 510 398 510 238 c 0
EndSplineSet
EndChar

StartChar: uni0258
Encoding: 600 600 416
Width: 600
GlyphClass: 2
Flags: MW
HStem: -12 28<235 334 235 338> 238 28<100 488 100 488> 462 28<243 348>
VStem: 70 30<266 331 266 339> 488 32<174 238 266 266>
AnchorPoint: "Anchor-4" 396 0 basechar 0
AnchorPoint: "Anchor-2" 306 -22 basechar 0
AnchorPoint: "Anchor-0" 286 500 basechar 0
LayerCount: 2
Fore
SplineSet
520 238 m 0
 520 82 406 -12 270 -12 c 0
 183 -12 132 17 90 44 c 1
 104 70 l 1
 149 38 202 16 268 16 c 0
 400 16 488 110 488 238 c 1
 72 238 l 1
 70 250 70 260 70 270 c 0
 70 408 174 490 292 490 c 0
 424 490 520 394 520 238 c 0
100 266 m 1
 488 266 l 1
 474 386 404 462 292 462 c 0
 194 462 100 396 100 266 c 1
EndSplineSet
EndChar

StartChar: uni0259
Encoding: 601 601 417
Width: 600
GlyphClass: 2
Flags: MW
HStem: -12 28<244 359 244 368> 224 28<110 110 110 498> 462 28<255 358.5>
VStem: 80 30<152 223> 498 32<224 224 252 311>
AnchorPoint: "Anchor-4" 285 0 basechar 0
AnchorPoint: "Anchor-2" 285 -22 basechar 0
AnchorPoint: "Anchor-0" 297 500 basechar 0
LayerCount: 2
Fore
SplineSet
80 218 m 0
 80 228 80 240 82 252 c 1
 498 252 l 1
 498 370 429 462 288 462 c 0
 222 462 169 442 124 414 c 1
 110 440 l 1
 152 466 208 490 290 490 c 0
 436 490 530 400 530 240 c 0
 530 84 440 -12 296 -12 c 0
 176 -12 80 66 80 218 c 0
110 224 m 1
 110 80 192 16 296 16 c 0
 422 16 490 96 498 224 c 1
 110 224 l 1
EndSplineSet
Substitution2: "'sups' Superscript in Latin lookup 12 subtable" uni0259.sups
Substitution2: "'aalt' Access All Alternates in Latin lookup 0 subtable" uni0259.sups
EndChar

StartChar: uni0261
Encoding: 609 609 418
Width: 600
GlyphClass: 2
Flags: MW
HStem: -234 27<260.5 342.5 260.5 350> -2 28<227 313.5 227 317> 458 20G<464 490 490 490> 462 28<242 322.5>
VStem: 70 32<179 305 179 320> 460 30<-40 86 86 86 120 386 386 386 422 422>
AnchorPoint: "Anchor-2" 462 -218 basechar 0
AnchorPoint: "Anchor-0" 304 500 basechar 0
LayerCount: 2
Fore
SplineSet
124 -156 m 1xdc
 175 -192 233 -207 288 -207 c 0
 397 -207 460 -144 460 -40 c 2
 460 86 l 1
 418 40 352 -2 282 -2 c 0
 156 -2 70 84 70 244 c 0
 70 396 177 490 298 490 c 0
 360 490 412 462 458 422 c 1
 460 422 l 1xdc
 464 478 l 1
 490 478 l 1xec
 490 -48 l 2
 490 -160 412 -234 288 -234 c 0
 218 -234 157 -214 108 -182 c 1
 124 -156 l 1xdc
284 26 m 0
 343 26 403 60 460 120 c 1
 460 386 l 1
 402 441 349 462 296 462 c 0
 188 462 102 366 102 244 c 0
 102 114 170 26 284 26 c 0
EndSplineSet
EndChar

StartChar: uni0265
Encoding: 613 613 419
Width: 600
GlyphClass: 2
Flags: MW
HStem: -222 21G<460 490 460 460> -12 28<213.5 300 213.5 303> 458 20G<90 120 120 120 460 490 490 490>
VStem: 90 30<180 184 184 478> 460 30<-222 -30 -30 -30 132 478 -222 478>
AnchorPoint: "Anchor-2" 299 -22 basechar 0
AnchorPoint: "Anchor-0" 292 500 basechar 0
LayerCount: 2
Fore
SplineSet
490 478 m 1
 490 -222 l 1
 460 -222 l 1
 460 -30 l 1
 462 100 l 1
 399 34 342 -12 264 -12 c 0
 147 -12 90 49 90 180 c 2
 90 478 l 1
 120 478 l 1
 120 184 l 2
 120 71 163 16 264 16 c 0
 336 16 386 54 460 132 c 1
 460 478 l 1
 490 478 l 1
EndSplineSet
EndChar

StartChar: uni026F
Encoding: 623 623 420
Width: 600
GlyphClass: 2
Flags: MW
HStem: -12 28<138 186.5 138 187.5 354 402.5> 0 21G<494 520 494 494> 458 20G<58 88 88 88 274 304 304 304 490 520 520 520>
VStem: 58 30<130 134 134 478> 274 30<112 134 134 478> 490 30<66 66 112 478 0 478>
AnchorPoint: "Anchor-2" 291 -22 basechar 0
AnchorPoint: "Anchor-0" 290 498 basechar 0
LayerCount: 2
Fore
SplineSet
520 478 m 1xbc
 520 0 l 1
 494 0 l 1x7c
 490 66 l 1
 488 66 l 1
 459 18 430 -12 377 -12 c 0
 323 -12 293 16 280 74 c 1
 243 18 214 -12 161 -12 c 0
 95 -12 58 34 58 130 c 2
 58 478 l 1
 88 478 l 1
 88 134 l 2
 88 56 113 16 163 16 c 0
 210 16 240 48 274 112 c 1
 274 478 l 1
 304 478 l 1
 304 134 l 2
 304 56 329 16 379 16 c 0
 426 16 456 48 490 112 c 1
 490 478 l 1
 520 478 l 1xbc
EndSplineSet
EndChar

StartChar: uni0279
Encoding: 633 633 421
Width: 600
GlyphClass: 2
Flags: MW
HStem: -12 30<154 214.5 154 218> 0 21G<404 430 404 404> 458 20G<400 430 430 430>
VStem: 400 30<120 120 172 478 0 478>
AnchorPoint: "Anchor-2" 100 -22 basechar 0
AnchorPoint: "Anchor-0" 402 500 basechar 0
LayerCount: 2
Fore
SplineSet
430 478 m 1xb0
 430 0 l 1
 404 0 l 1x70
 400 120 l 1
 398 120 l 1
 346 44 267 -12 169 -12 c 0
 138 -12 103 -8 72 8 c 1
 82 36 l 1
 118 23 135 18 173 18 c 0
 256 18 330 60 400 172 c 1
 400 478 l 1
 430 478 l 1xb0
EndSplineSet
EndChar

StartChar: uni0287
Encoding: 647 647 422
Width: 600
GlyphClass: 2
Flags: MW
HStem: 0 28<76 338 76 338 368 516> 462 28<181 256.5>
VStem: 338 30<-140 0 0 0 28 302>
AnchorPoint: "Anchor-2" 362 -22 basechar 0
AnchorPoint: "Anchor-0" 224 500 basechar 0
LayerCount: 2
Fore
SplineSet
368 302 m 2
 368 28 l 1
 516 28 l 1
 516 0 l 1
 368 0 l 1
 364 -140 l 1
 338 -140 l 1
 338 0 l 1
 76 0 l 1
 76 28 l 1
 338 28 l 1
 338 306 l 2
 338 402 312 462 201 462 c 0
 148 462 107 452 68 436 c 1
 58 460 l 1
 101 478 159 490 203 490 c 0
 330 490 368 414 368 302 c 2
EndSplineSet
EndChar

StartChar: uni028C
Encoding: 652 652 423
Width: 600
GlyphClass: 2
Flags: MW
HStem: 0 21G<66 96 66 66 502 534 502 502> 446 32<296 300 296 296>
VStem: 66 468<0 0>
AnchorPoint: "Anchor-2" 301 -22 basechar 0
AnchorPoint: "Anchor-0" 301 500 basechar 0
LayerCount: 2
Fore
SplineSet
314 478 m 1
 534 0 l 1
 502 0 l 1
 362 310 l 2
 340 358 319 404 300 446 c 1
 296 446 l 1
 277 404 258 358 236 310 c 2
 96 0 l 1
 66 0 l 1
 284 478 l 1
 314 478 l 1
EndSplineSet
EndChar

StartChar: uni028D
Encoding: 653 653 424
Width: 600
GlyphClass: 2
Flags: MW
HStem: 0 30<298 302 298 320 278 302> 448 30<158 162 158 158 436 440 436 436>
VStem: 12 576<0 0>
AnchorPoint: "Anchor-2" 300 -22 basechar 0
AnchorPoint: "Anchor-0" 300 500 basechar 0
LayerCount: 2
Fore
SplineSet
458 478 m 1
 588 0 l 1
 554 0 l 1
 471 322 l 2
 460 366 449 406 440 448 c 1
 436 448 l 1
 425 406 414 366 403 322 c 2
 320 0 l 1
 278 0 l 1
 195 322 l 2
 184 366 173 406 162 448 c 1
 158 448 l 1
 147 406 136 366 126 322 c 1
 44 0 l 1
 12 0 l 1
 140 478 l 1
 182 478 l 1
 264 166 l 2
 276 120 285 76 298 30 c 1
 302 30 l 1
 313 76 322 122 336 168 c 1
 416 478 l 1
 458 478 l 1
EndSplineSet
EndChar

StartChar: uni028E
Encoding: 654 654 425
Width: 600
GlyphClass: 2
Flags: MW
HStem: 0 21G<64 94 64 64 504 536 504 504> 704 20 704 30<445.5 490.5>
VStem: 64 474
AnchorPoint: "Anchor-2" 266 -242 basechar 0
AnchorPoint: "Anchor-0" 302 500 basechar 0
LayerCount: 2
Fore
SplineSet
528 696 m 1xb0
 516 700 500 704 481 704 c 0
 410 704 363 646 334 568 c 1
 300 490 l 1
 536 0 l 1
 504 0 l 1
 356 314 l 2
 337 354 312 406 288 448 c 1
 284 448 l 1
 264 406 243 354 226 314 c 2
 94 0 l 1
 64 0 l 1
 310 580 l 1
 335 654 392 734 484 734 c 0xb0
 502 734 524 730 538 724 c 1xd0
 528 696 l 1xb0
EndSplineSet
EndChar

StartChar: uni029E
Encoding: 670 670 426
Width: 600
GlyphClass: 2
Flags: MW
HStem: -222 21G<440 470 440 440> 0 21G<70 110 70 70> 458 20G<36 72 72 72 440 470 470 470>
VStem: 440 30<-222 302 302 302 342 478 -222 478>
AnchorPoint: "Anchor-2" 250 -22 basechar 0
AnchorPoint: "Anchor-0" 274 500 basechar 0
LayerCount: 2
Fore
SplineSet
470 478 m 1
 470 -222 l 1
 440 -222 l 1
 440 302 l 1
 436 302 l 1
 110 0 l 1
 70 0 l 1
 268 184 l 1
 36 478 l 1
 72 478 l 1
 292 202 l 1
 440 342 l 1
 440 478 l 1
 470 478 l 1
EndSplineSet
EndChar

StartChar: h.sups
Encoding: 688 688 604
Width: 600
Flags: MW
HStem: 557 28<318.5 366.5>
VStem: 190 32<260 493 597 734> 421 32<260 459 459 463 260 492>
LayerCount: 2
Fore
SplineSet
190 260 m 1
 190 734 l 1
 222 734 l 1
 222 597 l 1
 220 521 l 1
 258 558 294 585 343 585 c 0
 417 585 453 545 453 463 c 2
 453 260 l 1
 421 260 l 1
 421 459 l 2
 421 525 396 557 337 557 c 0
 295 557 265 536 222 493 c 1
 222 260 l 1
 190 260 l 1
EndSplineSet
EndChar

StartChar: j.sups
Encoding: 690 690 606
Width: 600
Flags: MW
HStem: 109 28<217 266 217 276> 550 27<169 354 169 323> 653 65<328.5 347>
VStem: 305 65<675 695> 323 31<233 237 237 550 550 550>
LayerCount: 2
Fore
SplineSet
169 550 m 1xc8
 169 577 l 1
 354 577 l 1
 354 237 l 2
 354 159 324 109 228 109 c 0
 199 109 168 119 146 131 c 1
 158 156 l 1
 178 145 205 137 229 137 c 0
 303 137 323 175 323 233 c 2
 323 550 l 1
 169 550 l 1xc8
338 653 m 0xf0
 319 653 305 665 305 685 c 0
 305 705 319 718 338 718 c 0
 356 718 370 705 370 685 c 0
 370 665 356 653 338 653 c 0xf0
EndSplineSet
EndChar

StartChar: r.sups
Encoding: 691 691 614
Width: 600
Flags: MW
HStem: 555 30<405 440.5>
VStem: 267 32<260 455>
LayerCount: 2
Fore
SplineSet
267 260 m 1
 267 577 l 1
 294 577 l 1
 297 499 l 1
 299 499 l 1
 329 550 376 585 432 585 c 0
 454 585 476 582 496 572 c 1
 489 544 l 1
 465 552 453 555 428 555 c 0
 382 555 336 528 299 455 c 1
 299 260 l 1
 267 260 l 1
EndSplineSet
EndChar

StartChar: w.sups
Encoding: 695 695 619
Width: 600
Flags: MW
HStem: 260 29<165 188 185 188 185 203 365 368> 542 29<274 277 274 274>
VStem: 81 389<577 577>
LayerCount: 2
Fore
SplineSet
165 260 m 1
 81 577 l 1
 115 577 l 1
 166 374 l 2
 173 345 179 317 185 289 c 1
 188 289 l 1
 195 317 202 345 209 374 c 2
 259 571 l 1
 293 571 l 1
 344 374 l 2
 351 345 358 317 365 289 c 1
 368 289 l 1
 375 317 381 345 388 374 c 2
 438 577 l 1
 470 577 l 1
 389 260 l 1
 348 260 l 1
 298 451 l 2
 291 481 285 510 277 542 c 1
 274 542 l 1
 267 512 261 482 252 450 c 2
 203 260 l 1
 165 260 l 1
EndSplineSet
EndChar

StartChar: y.sups
Encoding: 696 696 621
Width: 600
Flags: MW
HStem: 116 29<187 214 187 223.5>
VStem: 148 304<577 577>
LayerCount: 2
Fore
SplineSet
163 150 m 1
 171 148 182 145 192 145 c 0
 236 145 266 180 284 227 c 1
 294 255 l 1
 148 577 l 1
 181 577 l 1
 268 380 l 2
 280 354 294 320 307 291 c 1
 310 291 l 1
 322 319 333 353 343 380 c 2
 420 577 l 1
 452 577 l 1
 311 222 l 1
 292 168 255 116 192 116 c 0
 179 116 165 119 155 123 c 1
 163 150 l 1
EndSplineSet
EndChar

StartChar: uni02BE
Encoding: 702 702 713
Width: 600
Flags: MW
HStem: 498 20<255 289.5> 686 20<255 289.5>
VStem: 355 26<577 627>
LayerCount: 2
Fore
SplineSet
255 498 m 1
 255 518 l 1
 324 518 355 552 355 602 c 0
 355 652 324 686 255 686 c 1
 255 706 l 1
 331 708 381 668 381 602 c 0
 381 536 331 496 255 498 c 1
EndSplineSet
EndChar

StartChar: uni02BF
Encoding: 703 703 714
Width: 600
Flags: MW
HStem: 498 20<318.5 353> 686 20<318.5 353>
VStem: 227 26<577 627 577 635>
LayerCount: 2
Fore
SplineSet
353 706 m 1
 353 686 l 1
 284 686 253 652 253 602 c 0
 253 552 284 518 353 518 c 1
 353 498 l 1
 277 496 227 536 227 602 c 0
 227 668 277 708 353 706 c 1
EndSplineSet
EndChar
